<svg height="511pt" viewBox="-86 1 511 511.999" width="511pt" xmlns="http://www.w3.org/2000/svg"><path d="m337.0625 443.402344-154.097656-383.773438c-1.375-3.425781-5.042969-5.347656-8.648438-4.523437-3.011718.691406-6.085937.691406-9.097656 0-3.605469-.824219-7.269531 1.097656-8.648438 4.523437l-154.09375 383.773438c-4.871093 12.132812-.492187 26.125 10.414063 33.277344 46.863281 30.730468 118.402344 35.320312 156.878906 35.320312 38.472657 0 110.011719-4.589844 156.875-35.320312 10.90625-7.148438 15.289063-21.144532 10.417969-33.277344zm0 0" fill="#ffdb56"/><path d="m182.964844 59.628906c-1.375-3.425781-5.042969-5.347656-8.648438-4.523437-3.011718.691406-6.085937.691406-9.097656 0-3.605469-.824219-7.269531 1.097656-8.648438 4.523437l-4.433593 11.042969 160.3125 414.183594c4.925781-2.496094 9.675781-5.210938 14.195312-8.175781 10.90625-7.148438 15.285157-21.144532 10.414063-33.273438zm0 0" fill="#f6c134"/><g fill="#f2433b"><path d="m324.085938 411.082031-27.058594-67.382812c-106.941406 48.6875-210.78125 75.164062-290.464844 89.53125l-4.085938 10.171875c-4.871093 12.132812-.488281 26.125 10.414063 33.277344 10.695313 7.011718 22.679687 12.648437 35.253906 17.195312 75.960938-13.636719 174.070313-38.296875 275.941407-82.792969zm0 0"/><path d="m57.773438 305.683594-33.738282 84.023437c76.070313-17.269531 165.46875-44.402343 256.53125-87l-28.671875-71.414062c-66.753906 32.527343-132.980469 56.589843-194.121093 74.390625zm0 0"/><path d="m115.660156 161.519531-37.734375 93.980469c50.703125-17.695312 103.652344-39.894531 156.492188-67.730469l-28.304688-70.488281c-30.183593 16.554688-60.480469 31.234375-90.453125 44.238281zm0 0"/></g><path d="m289.476562 425.507812c11.472657-4.566406 23.011719-9.359374 34.609376-14.425781l-27.058594-67.382812c-11.230469 5.113281-22.421875 9.964843-33.558594 14.601562zm0 0" fill="#d83636"/><path d="m220.066406 246.175781 27.597656 71.296875c10.929688-4.703125 21.90625-9.617187 32.90625-14.765625l-28.675781-71.414062c-10.628906 5.179687-21.242187 10.121093-31.828125 14.882812zm0 0" fill="#d83636"/><path d="m176.269531 133.015625 27.246094 70.394531c10.292969-5.007812 20.597656-10.214844 30.902344-15.640625l-28.304688-70.488281c-9.941406 5.453125-19.894531 10.679688-29.84375 15.734375zm0 0" fill="#d83636"/><path d="m169.769531 0c-19.476562 0-35.328125 15.847656-35.328125 35.324219 0 19.480469 15.847656 35.328125 35.328125 35.328125 19.476563 0 35.324219-15.847656 35.324219-35.328125 0-19.476563-15.847656-35.324219-35.324219-35.324219zm0 0" fill="#f2433b"/><path d="m169.769531 0c-6.367187 0-12.339843 1.699219-17.503906 4.660156 10.636719 6.09375 17.828125 17.550782 17.828125 30.664063s-7.191406 24.570312-17.828125 30.667969c5.164063 2.957031 11.136719 4.65625 17.503906 4.65625 19.476563 0 35.324219-15.84375 35.324219-35.324219 0-19.476563-15.847656-35.324219-35.324219-35.324219zm0 0" fill="#d83636"/></svg>