<?xml version="1.0" standalone="no"?>
<!DOCTYPE svg PUBLIC "-//W3C//DTD SVG 20010904//EN"
 "http://www.w3.org/TR/2001/REC-SVG-20010904/DTD/svg10.dtd">
<svg version="1.0" xmlns="http://www.w3.org/2000/svg"
 width="512.000000pt" height="512.000000pt" viewBox="0 0 512.000000 512.000000"
 preserveAspectRatio="xMidYMid meet">
<metadata>
Created by potrace 1.14, written by Peter Selinger 2001-2017
</metadata>
<g transform="translate(0.000000,512.000000) scale(0.100000,-0.100000)"
fill="#000000" stroke="none">
<path d="M2245 4111 c-248 -46 -442 -122 -632 -248 -153 -100 -185 -150 -130
-201 35 -33 68 -27 138 25 181 133 376 220 610 270 65 14 128 18 279 18 178
-1 204 -3 303 -28 59 -15 142 -41 183 -58 l75 -31 -46 -49 c-26 -27 -58 -75
-73 -107 -24 -50 -27 -69 -27 -157 0 -94 2 -105 34 -169 19 -39 55 -90 86
-120 l52 -53 -33 -36 c-41 -44 -43 -79 -9 -112 35 -36 65 -31 131 20 31 25 60
45 63 45 3 -1 33 -7 66 -15 81 -20 92 -19 119 8 18 18 26 43 35 108 14 94 4
181 -29 278 -28 79 -105 187 -167 235 l-53 41 27 12 c16 7 51 12 78 12 158 1
305 -189 305 -394 0 -28 7 -51 21 -69 20 -26 21 -26 162 -26 164 0 279 -20
401 -69 245 -98 429 -271 547 -513 l40 -83 -78 -5 c-142 -10 -214 -76 -221
-201 l-4 -69 -174 0 c-165 0 -174 -1 -198 -23 -36 -32 -39 -74 -6 -107 19 -19
33 -20 425 -20 442 0 448 1 509 58 58 55 78 133 55 216 -12 44 -85 122 -122
131 -19 5 -30 20 -47 68 -60 166 -164 323 -303 453 l-86 81 39 38 c86 84 131
219 111 331 -33 179 -173 316 -355 347 -218 37 -452 -171 -491 -438 -7 -43 -9
-45 -41 -45 -29 0 -34 4 -39 28 -31 153 -74 240 -161 329 -42 43 -83 73 -130
95 -62 30 -79 33 -165 35 -89 1 -102 4 -168 38 -84 42 -242 96 -351 120 -118
26 -427 30 -555 6z m2122 -326 c90 -27 170 -119 188 -217 12 -65 -18 -143 -80
-205 l-54 -54 -68 34 c-83 42 -203 83 -290 99 l-65 12 6 40 c15 95 95 219 172
267 67 41 114 47 191 24z m-1228 -140 c48 -24 128 -121 152 -183 21 -54 39
-202 25 -202 -21 0 -116 58 -156 96 -65 60 -94 130 -87 205 4 52 20 99 33 99
3 0 18 -7 33 -15z m1696 -1185 c4 -16 4 -43 0 -60 -7 -30 -7 -30 -76 -30 -56
0 -73 4 -89 20 -23 23 -26 49 -7 72 17 22 33 26 104 27 60 1 62 0 68 -29z"/>
<path d="M1231 3511 c-47 -51 -130 -181 -183 -288 -32 -66 -94 -237 -173 -475
l-122 -373 -204 -6 c-178 -5 -211 -8 -260 -27 -114 -45 -190 -113 -241 -217
-113 -227 -8 -501 229 -597 55 -22 71 -23 360 -26 293 -3 303 -2 322 17 28 28
28 82 0 107 -19 18 -44 19 -313 24 -276 5 -293 6 -332 27 -63 34 -97 66 -128
123 -78 142 -16 325 132 393 l47 22 1750 5 c963 3 1751 6 1753 8 11 8 29 68
24 84 -11 42 -49 58 -142 58 l-87 0 -13 43 c-34 114 -120 221 -218 271 -94 48
-149 56 -373 56 -190 0 -208 -2 -231 -20 -14 -11 -28 -28 -30 -38 -8 -30 18
-81 44 -86 13 -3 120 -7 238 -8 201 -3 218 -5 262 -26 25 -13 63 -39 82 -58
34 -33 76 -101 76 -124 0 -7 -174 -10 -543 -10 l-544 0 -13 43 c-47 158 -180
282 -338 316 -32 7 -163 11 -331 11 -262 0 -280 -1 -303 -20 -14 -11 -28 -28
-30 -38 -8 -30 18 -81 44 -87 13 -2 154 -6 313 -7 284 -3 291 -3 339 -27 27
-14 64 -40 82 -58 33 -32 74 -101 74 -123 0 -7 -213 -10 -671 -10 -533 0 -670
3 -666 13 2 6 52 158 111 337 118 357 169 476 269 623 76 111 83 143 41 176
-37 29 -71 26 -103 -8z"/>
<path d="M4051 2884 c-16 -21 -21 -41 -21 -89 0 -79 24 -115 76 -115 57 0 74
27 74 115 0 62 -4 79 -20 95 -30 30 -83 27 -109 -6z"/>
<path d="M4411 2884 c-16 -21 -21 -41 -21 -89 0 -79 24 -115 76 -115 57 0 74
27 74 115 0 62 -4 79 -20 95 -30 30 -83 27 -109 -6z"/>
<path d="M1217 1630 c-34 -27 -37 -80 -7 -110 20 -20 33 -20 568 -20 510 0
550 -2 587 -19 72 -33 105 -86 105 -168 0 -60 -34 -118 -86 -149 -39 -23 -49
-24 -208 -24 -127 0 -174 -4 -195 -15 -46 -23 -54 -66 -20 -109 l21 -27 202 3
c190 3 204 4 251 27 63 32 124 93 156 156 20 43 24 64 24 145 0 83 -4 101 -27
145 -32 62 -103 129 -166 158 -46 22 -57 22 -613 25 -562 3 -565 3 -592 -18z"/>
</g>
</svg>
