<svg height="512pt" viewBox="-52 0 512 512.0003" width="512pt" xmlns="http://www.w3.org/2000/svg"><path d="m106.339844 136.207031c0-10.652343-6.71875-19-15.296875-19-8.574219 0-15.292969 8.34375-15.292969 19 0 10.652344 6.71875 18.996094 15.292969 18.996094 8.578125 0 15.296875-8.34375 15.296875-18.996094zm0 0"/><path d="m232.8125 136.207031c0-10.652343-6.71875-19-15.292969-19-8.578125 0-15.296875 8.34375-15.296875 19 0 10.652344 6.71875 18.996094 15.296875 18.996094 8.574219 0 15.292969-8.34375 15.292969-18.996094zm0 0"/><path d="m154.28125 194.226562c4.164062 0 7.535156-3.371093 7.535156-7.535156v-16.894531c8.800782-2.523437 15.617188-9.1875 15.617188-16.351563 0-2.625-1.011719-8.972656-10.375-11.1875-3.070313-.726562-6.890625-1.039062-12.777344-1.039062-5.882812 0-9.703125.3125-12.777344 1.039062-9.363281 2.214844-10.375 8.5625-10.375 11.1875 0 7.164063 6.816406 13.828126 15.617188 16.351563v16.894531c0 4.164063 3.375 7.535156 7.535156 7.535156zm0 0"/><path d="m328.421875 209.242188c9.292969 21.644531 20.859375 48.578124 18.597656 78.667968-1.777343 23.613282-8.429687 48.1875-18.734375 69.195313-1.832031 3.738281-.289062 8.25 3.449219 10.082031 1.066406.523438 2.199219.773438 3.3125.773438 2.785156 0 5.460937-1.550782 6.773437-4.21875 11.125-22.691407 18.308594-49.21875 20.226563-74.703126 2.542969-33.773437-9.832031-62.589843-19.777344-85.746093-5.6875-13.246094-10.601562-24.6875-11.035156-33.253907-.460937-9.117187 7.339844-18.402343 16.699219-19.871093 5.429687-.855469 24.058594-.25 35.707031 43.351562 1.074219 4.019531 5.203125 6.40625 9.226563 5.335938 4.019531-1.074219 6.410156-5.207031 5.335937-9.226563-5.292969-19.796875-12.882813-34.535156-22.566406-43.804687-8.832031-8.457031-19.511719-12.199219-30.046875-10.546875-17.070313 2.683594-30.265625 18.617187-29.40625 35.523437.570312 11.269531 5.976562 23.863281 12.238281 38.441407zm0 0"/><path d="m407.152344 274.800781c.003906-20.140625-1.042969-38.496093-3.113282-54.558593-.527343-4.128907-4.3125-7.039063-8.433593-6.511719-4.128907.53125-7.042969 4.308593-6.515625 8.433593 1.988281 15.429688 2.992187 33.136719 2.988281 52.632813-.007813 37.335937-8.007813 70.878906-23.777344 99.703125-12.605469 23.046875-30.21875 43.21875-52.347656 59.953125-9.683594 7.324219-19.414063 13.347656-28.546875 18.265625 3.46875-7.703125 5.179688-16.546875 5.179688-26.640625 0-1.003906-.023438-2.066406-.0625-3.15625 12.042968-8.28125 22.921874-18.824219 32.378906-31.417969 2.5-3.328125 1.828125-8.050781-1.5-10.550781s-8.050782-1.828125-10.550782 1.5c-6.613281 8.804687-13.972656 16.46875-21.96875 22.910156-7.160156-52.933593-34.890624-149.0625-43-176.546875 13.214844-4.960937 25.898438-15.851562 33.835938-31.566406l10.730469 5.832031c3.613281 1.957031 8.261719.582031 10.21875-3.027343 1.988281-3.65625.632812-8.230469-3.023438-10.21875l-12.503906-6.792969c1.488281-5.476563 2.441406-11.355469 2.757813-17.609375l12.394531-2.117188c4.105469-.699218 6.863281-4.589844 6.164062-8.695312-.703125-4.101563-4.59375-6.855469-8.699219-6.160156l-10.929687 1.863281c-5.558594-31.179688-29.367187-70.386719-35.363281-79.90625.195312-5.058594.46875-17.085938-.644532-29.570313-2.21875-24.890625-8.835937-38.136718-20.226562-40.492187-11.183594-2.308594-22.433594 6.632812-34.394531 27.351562-5.03125 8.710938-9.050781 17.523438-11.304688 22.773438h-65.226562c-2.253907-5.25-6.273438-14.0625-11.304688-22.773438-11.960937-20.71875-23.210937-29.664062-34.394531-27.351562-11.390625 2.355469-18.007812 15.601562-20.226562 40.492187-1.113282 12.480469-.839844 24.511719-.640626 29.570313-6 9.519531-29.804687 48.726562-35.367187 79.90625l-10.929687-1.863281c-4.101563-.699219-7.996094 2.058593-8.695313 6.160156-.699219 4.105468 2.058594 7.996094 6.160156 8.695312l12.394531 2.117188c.316407 6.253906 1.273438 12.132812 2.757813 17.609375l-12.503906 6.792969c-3.65625 1.988281-5.007813 6.5625-3.023438 10.21875 1.960938 3.609374 6.605469 4.988281 10.21875 3.027343l10.730469-5.832031c7.941406 15.71875 20.625 26.609375 33.84375 31.566406-2.148438 7.296875-5.710938 19.546875-9.882812 34.457032-1.121094 4.007812 1.21875 8.167968 5.226562 9.289062 4.007812 1.125 8.167969-1.21875 9.289062-5.226562 6.765626-24.195313 11.917969-41.320313 11.96875-41.492188 1.273438-4.21875-1.476562-8.746094-5.800781-9.574219-17.964843-3.433593-36.726562-22.613281-37.828125-52.617187-.453125-12.375 5.421875-31.21875 16.992188-54.488282 9.007812-18.109374 18.308594-32.449218 18.402344-32.589843.878906-1.351563 1.300781-2.945313 1.207031-4.554688-.007813-.144531-.839844-14.851562.492187-29.832031 1.890625-21.195312 6.609375-26.730469 8.269532-27.070312 1.648437-.351563 8.136718 2.585937 18.214843 20 7.171875 12.390624 12.328125 25.507812 12.378907 25.640624 1.125 2.890626 3.914062 4.792969 7.019531 4.792969h75.292969c3.105468 0 5.890624-1.902343 7.019531-4.792969.050781-.132812 5.144531-13.117187 12.300781-25.511718 10.121094-17.523438 16.640625-20.472656 18.292969-20.128906 1.652343.339843 6.355469 5.847656 8.253906 26.929687 1.347656 14.984375.515625 29.828125.503906 29.976563-.089843 1.605468.332031 3.203124 1.210938 4.550781.09375.140625 9.394531 14.480469 18.402343 32.59375 11.570313 23.265625 17.445313 42.109375 16.988282 54.484375-1.097656 30.003906-19.863282 49.183594-37.828125 52.617187-4.324219.828125-7.070313 5.359375-5.800781 9.578125.464843 1.535156 46.242187 154.039063 46.242187 200.230469 0 15.453125-4.804687 26.4375-15.117187 34.570313-8.769532 6.914062-21.753907 11.902343-39.464844 15.148437 4.179687-16.5 7.886718-39.371094 11.023437-67.972656 5.3125-48.441407 7.199219-97.511719 7.21875-98 .15625-4.160157-3.085937-7.660157-7.246093-7.816407-4.128907-.175781-7.65625 3.085938-7.816407 7.246094-.015625.453125-1.765625 45.882813-6.625 92.152344-2.839843 27.007812-6.160156 48.976562-9.871093 65.292969-5.367188 23.582031-10.105469 28.949219-11.460938 30.050781-2.046875-1.515625-11.917969-12.503906-17.617188-84.929688-3.28125-41.703124-3.476562-82.703124-3.476562-83.113281-.015625-4.152343-3.386719-7.507812-7.535156-7.507812-.007813 0-.019532 0-.03125 0-4.160156.015625-7.519532 3.402343-7.503906 7.5625 0 .445312.207031 44.742187 3.867187 88.464843 2.164063 25.894532 5.105469 46.605469 8.742187 61.5625.117188.484376.242188.972657.363282 1.46875-6.464844.199219-13.300782.300782-20.683594.300782s-14.214844-.101563-20.683594-.300782c.125-.496093.246094-.988281.363282-1.46875 3.636718-14.957031 6.582031-35.667968 8.746093-61.5625 3.65625-43.722656 3.863281-88.019531 3.867188-88.464843.015625-4.160157-3.347657-7.546875-7.507813-7.5625-.011718 0-.019531 0-.03125 0-4.148437 0-7.519531 3.355469-7.535156 7.507812 0 .410157-.191406 41.335938-3.46875 83.039063-5.699219 72.496094-15.578125 83.488281-17.625 85.003906-.941406-.765625-3.507812-3.585938-6.78125-13.101562-.128906-.660157-.339844-1.292969-.628906-1.882813-1.273438-3.9375-2.640625-8.867187-4.050782-15.066406-3.710937-16.316407-7.03125-38.285157-9.871093-65.292969-4.859375-46.269531-6.609375-91.699219-6.625-92.152344-.160157-4.160156-3.660157-7.425781-7.816407-7.246094-4.160156.15625-7.402343 3.65625-7.246093 7.816407.019531.488281 1.910156 49.558593 7.21875 98 3.136719 28.605469 6.847656 51.472656 11.027343 67.972656-17.675781-3.238281-30.640624-8.207031-39.40625-15.097656-10.355468-8.140625-15.179687-19.140625-15.179687-34.621094 0-20.371094 9.117187-65.261719 26.359375-129.816406 1.074219-4.023438-1.3125-8.152344-5.335938-9.226563-4.015624-1.070312-8.148437 1.3125-9.226562 5.335938-17.828125 66.742187-26.867188 111.730468-26.867188 133.707031 0 20.195313 6.847657 35.394531 20.933594 46.46875 12.007813 9.4375 29.59375 15.78125 53.65625 19.339844 4.269532 11.085937 10.355469 20.113281 19.75 20.113281 8.84375 0 14.582032-7.621094 18.480469-16.828125 7.894531.304687 16.28125.457031 25.484375.457031s17.589844-.152344 25.484375-.457031c3.898437 9.207031 9.636719 16.828125 18.480469 16.828125 9.398437 0 15.480468-9.027344 19.753906-20.113281 8.773438-1.300781 16.675781-2.976563 23.769531-5.03125 3.320313-.691407 165.34375-37.613281 165.382813-212.054688zm0 0"/></svg>