<?xml version="1.0" encoding="UTF-8" standalone="no"?>
<!-- Created with Inkscape (http://www.inkscape.org/) -->

<svg
   version="1.1"
   id="svg309"
   xml:space="preserve"
   width="682.66669"
   height="682.66669"
   viewBox="0 0 682.66669 682.66669"
   xmlns="http://www.w3.org/2000/svg"
   xmlns:svg="http://www.w3.org/2000/svg"><defs
     id="defs313"><clipPath
       clipPathUnits="userSpaceOnUse"
       id="clipPath323"><path
         d="M 0,512 H 512 V 0 H 0 Z"
         id="path321" /></clipPath></defs><g
     id="g315"
     transform="matrix(1.3333333,0,0,-1.3333333,0,682.66667)"><g
       id="g317"><g
         id="g319"
         clip-path="url(#clipPath323)"><g
           id="g325"
           transform="translate(184.8841,266.5215)"><path
             d="m 0,0 -58.188,-30.024 c -36.505,-18.836 -59.44,-56.477 -59.44,-97.556 v 0 c 0,-55.633 45.1,-100.732 100.733,-100.732 h 134.524"
             style="fill:none;stroke:#000000;stroke-width:20;stroke-linecap:round;stroke-linejoin:round;stroke-miterlimit:10;stroke-dasharray:none;stroke-opacity:1"
             id="path327" /></g><g
           id="g329"
           transform="translate(415.6966,320.3766)"><path
             d="m 0,0 h 44.52 c 18.646,0 34.584,13.425 37.752,31.8 l 3.701,21.469 C 88.324,66.903 77.825,79.367 63.99,79.367 H 34.865 v 0 c -7.464,17.677 -24.787,29.167 -43.976,29.167 h -14.741 v 44.88 0 c -31.812,0 -57.601,-25.788 -57.601,-57.601 v -19.359 -11.889 0 c 0,-25.398 -14.179,-48.67 -36.75,-60.316 l -32.65,-16.847"
             style="fill:none;stroke:#000000;stroke-width:20;stroke-linecap:round;stroke-linejoin:round;stroke-miterlimit:10;stroke-dasharray:none;stroke-opacity:1"
             id="path331" /></g><g
           id="g333"
           transform="translate(330.9927,205.8021)"><path
             d="m 0,0 v -48.107 l 46.117,-119.486 h 40.174 c 12.324,0 18.641,14.768 10.13,23.681 l -8.79,9.204 -24.596,94.068 C 76.796,-7.276 84.083,28.859 84.083,65.68 v 48.894"
             style="fill:none;stroke:#000000;stroke-width:20;stroke-linecap:round;stroke-linejoin:round;stroke-miterlimit:10;stroke-dasharray:none;stroke-opacity:1"
             id="path335" /></g><g
           id="g337"
           transform="translate(242.8345,93.5219)"><path
             d="M 0,0 H 19.972 C 50.52,0 75.285,-24.764 75.285,-55.313 H 3.001"
             style="fill:none;stroke:#000000;stroke-width:20;stroke-linecap:round;stroke-linejoin:round;stroke-miterlimit:10;stroke-dasharray:none;stroke-opacity:1"
             id="path339" /></g><g
           id="g341"
           transform="translate(242.8345,93.5219)"><path
             d="M 0,0 H -73.21"
             style="fill:none;stroke:#000000;stroke-width:20;stroke-linecap:round;stroke-linejoin:round;stroke-miterlimit:10;stroke-dasharray:none;stroke-opacity:1"
             id="path343" /></g><g
           id="g345"
           transform="translate(377.1097,38.2092)"><path
             d="M 0,0 H -107.334"
             style="fill:none;stroke:#000000;stroke-width:20;stroke-linecap:round;stroke-linejoin:round;stroke-miterlimit:10;stroke-dasharray:none;stroke-opacity:1"
             id="path347" /></g><g
           id="g349"
           transform="translate(110.5625,317.5111)"><path
             d="M 0,0 C 0.336,0.004 -0.335,-0.001 0,0 Z"
             style="fill:none;stroke:#000000;stroke-width:20;stroke-linecap:round;stroke-linejoin:round;stroke-miterlimit:10;stroke-dasharray:none;stroke-opacity:1"
             id="path351" /></g><g
           id="g353"
           transform="translate(79.4915,189.3085)"><path
             d="m 0,0 c -5.808,11.704 -9.073,24.894 -9.073,38.846 0,32.723 17.965,61.243 44.569,76.25 6.289,3.547 2.795,13.107 -4.425,13.107 -54.702,0 -99.469,-45.185 -100.542,-99.881 -0.808,-41.139 22.76,-76.86 57.237,-93.7"
             style="fill:none;stroke:#000000;stroke-width:20;stroke-linecap:round;stroke-linejoin:round;stroke-miterlimit:10;stroke-dasharray:none;stroke-opacity:1"
             id="path355" /></g><g
           id="g357"
           transform="translate(409.6375,384.9416)"><path
             d="M 0,0 V 0"
             style="fill:none;stroke:#000000;stroke-width:20;stroke-linecap:round;stroke-linejoin:round;stroke-miterlimit:10;stroke-dasharray:none;stroke-opacity:1"
             id="path359" /></g><g
           id="g361"
           transform="translate(171.9816,180.645)"><path
             d="m 0,0 18.916,-4.012 c 23.881,-5.065 42.24,-24.212 46.297,-48.285 l 5.869,-34.826"
             style="fill:none;stroke:#000000;stroke-width:20;stroke-linecap:round;stroke-linejoin:round;stroke-miterlimit:10;stroke-dasharray:none;stroke-opacity:1"
             id="path363" /></g><g
           id="g365"
           transform="translate(224.8545,287.1455)"><path
             d="M 0,0 V 0"
             style="fill:none;stroke:#000000;stroke-width:20;stroke-linecap:round;stroke-linejoin:round;stroke-miterlimit:10;stroke-dasharray:none;stroke-opacity:1"
             id="path367" /></g></g></g></g></svg>
