<?xml version="1.0" encoding="UTF-8" standalone="no"?>
<!-- Created with Inkscape (http://www.inkscape.org/) -->

<svg
   version="1.1"
   id="svg789"
   xml:space="preserve"
   width="682.66669"
   height="682.66669"
   viewBox="0 0 682.66669 682.66669"
   xmlns="http://www.w3.org/2000/svg"
   xmlns:svg="http://www.w3.org/2000/svg"><defs
     id="defs793"><clipPath
       clipPathUnits="userSpaceOnUse"
       id="clipPath803"><path
         d="M 0,512 H 512 V 0 H 0 Z"
         id="path801" /></clipPath></defs><g
     id="g795"
     transform="matrix(1.3333333,0,0,-1.3333333,0,682.66667)"><g
       id="g797"><g
         id="g799"
         clip-path="url(#clipPath803)"><g
           id="g805"
           transform="translate(170.0981,144.3333)"><path
             d="m 0,0 v -60.583 c 0,-5.385 -4.365,-9.75 -9.75,-9.75 H -64"
             style="fill:none;stroke:#000000;stroke-width:20;stroke-linecap:round;stroke-linejoin:round;stroke-miterlimit:10;stroke-dasharray:none;stroke-opacity:1"
             id="path807" /></g><g
           id="g809"
           transform="translate(47.4485,340.8359)"><path
             d="m 0,0 c -8.557,-17.805 -13.351,-37.761 -13.351,-58.836 v 0 c 0,-23.345 5.888,-45.313 16.253,-64.508 5.148,-9.534 7.747,-20.234 7.747,-31.069 v -102.673 c 0,-5.385 4.366,-9.75 9.75,-9.75 h 44.5 c 5.385,0 9.75,4.365 9.75,9.75 v 62.25 h 111.142 v -62.25 c 0,-5.385 4.365,-9.75 9.75,-9.75 h 44.5 c 5.384,0 9.75,4.365 9.75,9.75 v 65.717 0 c 17.517,4.316 33.954,12.575 47.99,24.303"
             style="fill:none;stroke:#000000;stroke-width:20;stroke-linecap:round;stroke-linejoin:round;stroke-miterlimit:10;stroke-dasharray:none;stroke-opacity:1"
             id="path811" /></g><g
           id="g813"
           transform="translate(271.7538,418)"><path
             d="m 0,0 h -101.656 c -21.632,0 -42.084,-5.05 -60.242,-14.036"
             style="fill:none;stroke:#000000;stroke-width:20;stroke-linecap:round;stroke-linejoin:round;stroke-miterlimit:10;stroke-dasharray:none;stroke-opacity:1"
             id="path815" /></g><g
           id="g817"
           transform="translate(429.9945,222)"><path
             d="M 0,0 V 103.069 C 0,165.439 -50.561,216 -112.931,216 v 0 c -17.243,0 -33.69,-7.26 -45.31,-20 v 0"
             style="fill:none;stroke:#000000;stroke-width:20;stroke-linecap:round;stroke-linejoin:round;stroke-miterlimit:10;stroke-dasharray:none;stroke-opacity:1"
             id="path819" /></g><g
           id="g821"
           transform="translate(337.2335,212.747)"><path
             d="m 0,0 v 0 c 0,-54.536 44.211,-98.747 98.747,-98.747 h 39.614 c 14.623,0 26.477,11.854 26.477,26.478 v 0 c 0,13.819 -11.203,25.022 -25.022,25.022 v 0 c -25.988,0 -47.055,21.067 -47.055,47.055 v 22.879"
             style="fill:none;stroke:#000000;stroke-width:20;stroke-linecap:round;stroke-linejoin:round;stroke-miterlimit:10;stroke-dasharray:none;stroke-opacity:1"
             id="path823" /></g><g
           id="g825"
           transform="translate(280.3243,400.5716)"><path
             d="m 0,0 c -7.87,10.577 -20.466,17.428 -34.663,17.428 v 0 c -23.847,0 -43.178,-19.331 -43.178,-43.178 v -52.643 c 0,-23.847 19.331,-43.179 43.178,-43.179 v 0 c 23.846,0 43.178,19.332 43.178,43.179"
             style="fill:none;stroke:#000000;stroke-width:20;stroke-linecap:round;stroke-linejoin:round;stroke-miterlimit:10;stroke-dasharray:none;stroke-opacity:1"
             id="path827" /></g><g
           id="g829"
           transform="translate(398.4288,403.3778)"><path
             d="m 0,0 c 7.912,8.967 19.489,14.622 32.388,14.622 v 0 c 23.846,0 43.178,-19.331 43.178,-43.178 V -81.2 c 0,-23.846 -19.332,-43.178 -43.178,-43.178 v 0"
             style="fill:none;stroke:#000000;stroke-width:20;stroke-linecap:round;stroke-linejoin:round;stroke-miterlimit:10;stroke-dasharray:none;stroke-opacity:1"
             id="path831" /></g><g
           id="g833"
           transform="translate(350.8741,330)"><path
             d="M 0,0 V 0"
             style="fill:none;stroke:#000000;stroke-width:20;stroke-linecap:round;stroke-linejoin:round;stroke-miterlimit:10;stroke-dasharray:none;stroke-opacity:1"
             id="path835" /></g><g
           id="g837"
           transform="translate(369.9945,203)"><path
             d="m 0,0 c -30.879,0 -56,25.122 -56,56 0,11.046 8.954,20 20,20 11.046,0 20,-8.954 20,-20 C -16,47.178 -8.822,40 0,40 11.046,40 20,31.046 20,20 20,8.954 11.046,0 0,0 Z"
             style="fill:none;stroke:#000000;stroke-width:20;stroke-linecap:round;stroke-linejoin:round;stroke-miterlimit:10;stroke-dasharray:none;stroke-opacity:1"
             id="path839" /></g><g
           id="g841"
           transform="translate(34.0981,282.0001)"><path
             d="M 0,0 V 0 C -13.312,0 -24.104,-10.792 -24.104,-24.104 V -126"
             style="fill:none;stroke:#000000;stroke-width:20;stroke-linecap:round;stroke-linejoin:round;stroke-miterlimit:10;stroke-dasharray:none;stroke-opacity:1"
             id="path843" /></g><g
           id="g845"
           transform="translate(345.2299,165.5)"><path
             d="m 0,0 v -81.75 c 0,-5.385 -4.365,-9.75 -9.75,-9.75 H -64"
             style="fill:none;stroke:#000000;stroke-width:20;stroke-linecap:round;stroke-linejoin:round;stroke-miterlimit:10;stroke-dasharray:none;stroke-opacity:1"
             id="path847" /></g><g
           id="g849"
           transform="translate(73.3847,377.6118)"><path
             d="M 0,0 V 0"
             style="fill:none;stroke:#000000;stroke-width:20;stroke-linecap:round;stroke-linejoin:round;stroke-miterlimit:10;stroke-dasharray:none;stroke-opacity:1"
             id="path851" /></g></g></g></g></svg>
