<svg height="511pt" viewBox="-20 0 511 511.99982" width="511pt" xmlns="http://www.w3.org/2000/svg"><path d="m389.046875 373.675781c-40.945313 32.898438-95.871094 52.636719-146.921875 52.792969-.203125 0-.40625 0-.613281 0-22.269531 0-55.6875-3.757812-89.574219-21.453125-32.265625-16.847656-57.292969-42.34375-74.390625-75.78125-1.894531-3.703125-6.4375-5.171875-10.136719-3.277344-3.703125 1.894531-5.171875 6.433594-3.277344 10.136719 18.546876 36.273438 45.742188 63.953125 80.828126 82.277344 21.113281 11.023437 42.019531 17.035156 60.542968 20.148437v41.605469l-36.382812-12.652344c-3.933594-1.363281-8.226563.714844-9.59375 4.644532-1.363282 3.929687.714844 8.222656 4.644531 9.589843l24.285156 8.445313-23.953125 7.097656c-3.988281 1.183594-6.265625 5.375-5.082031 9.367188 1.167969 3.933593 5.425781 6.246093 9.363281 5.078124l46.390625-13.75c3.199219-.949218 5.394531-3.886718 5.394531-7.226562v-50.203125c7.65625.742187 14.710938 1.023437 20.945313 1.023437.21875 0 .4375-.003906.65625-.003906 15.703125-.046875 31.75-1.84375 47.679687-5.203125v43.792969l-36.382812-12.652344c-3.929688-1.367187-8.222656.710938-9.589844 4.644532-1.367187 3.929687.710938 8.222656 4.640625 9.589843l24.285157 8.441407-23.953126 7.101562c-3.988281 1.183594-6.261718 5.375-5.082031 9.363281 1.167969 3.9375 5.429688 6.25 9.367188 5.082031l46.390625-13.753906c3.195312-.945312 5.390625-3.886718 5.390625-7.222656v-58.039062c33.902343-9.300782 66.597656-25.59375 93.566406-47.261719 3.242187-2.605469 3.757813-7.347657 1.152344-10.589844s-7.347657-3.761719-10.589844-1.152344zm0 0"/><path d="m65.914062 301.722656c-5.816406-16.945312-9.953124-35.621094-12.296874-55.507812-7.613282-64.667969.375-112.695313 23.105468-138.890625 16.8125-19.375 37.210938-21.914063 45.199219-22.105469 20.722656-.5 35.289063 4.808594 45.792969 16.703125 9.703125 10.988281 15.125 26.34375 20.867187 42.601563 11.035157 31.257812 23.542969 66.679687 71.167969 73.519531 4.117188.589843 7.9375-2.265625 8.527344-6.386719.59375-4.117188-2.265625-7.933594-6.382813-8.527344-38.597656-5.542968-48.558593-33.753906-59.105469-63.621094-3.886718-11.011718-7.949218-22.503906-13.699218-32.894531 17.027344-10.972656 23.945312-24.503906 19.039062-37.851562-3.84375-10.457031-10.417968-14.726563-15.257812-16.472657-4.617188-1.664062-9.28125-1.699218-13.371094-1.058593-.582031-7.082031-3.675781-15.007813-11.988281-21.078125-10.691407-7.816406-22.472657-6.769532-30.304688-4.617188-4.863281-12.925781-16.105469-22.308594-30.53125-24.851562-19.847656-3.492188-39.089843 6.589844-49.015625 25.691406-13.660156 26.285156 4.402344 49.847656 16.945313 61.945312-3.144531 2.644532-6.253907 5.664063-9.261719 9.128907-6.082031 7.011719-11.21875 15.175781-15.433594 24.445312-22.578125 6.285157-48.621094 14.484375-45.972656 34.0625 1.445312 10.691407 12.382812 17.71875 24.59375 22.273438-.445312.398437-.898438.804687-1.371094 1.230469-9.558594 8.628906-16.671875 17.128906-21.140625 25.261718-8.8125 16.039063-5.453125 27.605469-1.082031 34.480469 6.976562 10.976563 18.128906 16.628906 32.578125 16.625.710937 0 1.429687-.015625 2.15625-.042969 2.574219 18.054688 6.597656 35.121094 11.992187 50.832032 1.332032 3.878906 5.683594 6.011718 9.570313 4.679687 3.9375-1.355469 6.03125-5.640625 4.679687-9.574219zm7.203126-238.933594c-6.207032-10.582031-6.890626-20.222656-2.085938-29.46875 8.296875-15.96875 22.976562-19.566406 33.03125-17.796874 8.761719 1.542968 18.734375 7.882812 20.460938 21.039062.324218 2.464844 1.859374 4.597656 4.070312 5.722656 2.214844 1.128906 4.859375 1.082032 7.039062-.105468.132813-.070313 13.183594-7.03125 22.992188.136718 8.757812 6.398438 5.378906 15.980469 4.992188 16.980469-1.222657 2.972656-.40625 6.382813 2.003906 8.503906 2.410156 2.125 5.921875 2.476563 8.714844.894531 2.132812-1.210937 8.707031-3.960937 13.46875-2.214843.984374.359375 3.96875 1.453125 6.183593 7.480469.929688 2.527343 1.523438 6.589843-4.03125 12.621093-2.714843 2.945313-6.152343 5.5-9.242187 7.488281-11.832032-14.535156-29.53125-24.613281-59.15625-23.914062-6.597656.15625-19.953125 1.585938-34.242188 9.429688-4.4375-3.960938-10.09375-9.800782-14.199218-16.796876zm-54.25 91.148438c-.699219-5.183594 12.597656-10.546875 24.515624-14.367188-2.34375 8.015626-4.148437 16.675782-5.417968 25.953126-11.949219-3.820313-18.679688-8.523438-19.097656-11.585938zm-1.210938 77.183594c-5.851562-9.207032 2-21.605469 9.621094-30.382813 2.78125-3.207031 5.746094-6.179687 8.558594-8.789062-.445313 14.984375.226562 31.253906 2.027343 48.796875-9.316406.050781-16.101562-3.164063-20.207031-9.625zm0 0"/><path d="m464.75 184.382812c-.453125-1.921874-3.964844-16.015624-12.683594-29.949218-12.804687-20.460938-30.523437-30.675782-51.25-29.515625-20.582031 1.140625-32.214844 16.832031-44.53125 33.441406-15.148437 20.425781-30.8125 41.546875-65.945312 45.347656-4.136719.445313-7.125 4.164063-6.679688 8.300781.449219 4.136719 4.164063 7.128907 8.300782 6.679688 41.6875-4.507812 60.949218-30.480469 76.425781-51.351562 11.03125-14.875 19.742187-26.625 33.265625-27.375 15.023437-.824219 27.617187 6.621093 37.445312 22.15625 7.910156 12.503906 10.96875 25.652343 10.996094 25.773437.027344.117187.054688.234375.089844.355469 8.992187 32.550781 9.527344 63.914062 1.59375 93.21875-7.175782 26.511718-21.089844 50.890625-41.34375 72.460937-2.851563 3.035157-2.699219 7.800781.332031 10.648438 2.992187 2.8125 7.839844 2.660156 10.648437-.332031 21.96875-23.390626 37.078126-49.917969 44.910157-78.839844 8.632812-31.898438 8.105469-65.886719-1.574219-101.019532zm0 0"/><path d="m303.675781 335.976562c-44.296875 10.703126-80.136719 3.09375-106.527343-22.625-19.925782-19.417968-26.957032-42.511718-27.054688-42.832031-1.167969-3.988281-5.347656-6.269531-9.335938-5.109375-3.992187 1.164063-6.289062 5.34375-5.121093 9.339844.3125 1.078125 7.964843 26.683594 30.5 48.910156 24.738281 24.390625 54.1875 31.960938 81.214843 31.960938 14.324219 0 27.964844-2.125 39.863282-5 54.042968-13.058594 81.988281-59.921875 76.886718-95.851563-.585937-4.117187-4.394531-6.980469-8.519531-6.398437-4.117187.585937-6.984375 4.398437-6.398437 8.519531 2 14.082031-2.972656 30.992187-13.300782 45.230469-8.523437 11.746094-24.5 27.160156-52.207031 33.855468zm0 0"/><path d="m103.777344 149.738281c0 10.734375 6.761718 19.140625 15.390625 19.140625 8.628906 0 15.386719-8.40625 15.386719-19.140625 0-10.730469-6.757813-19.136719-15.386719-19.136719-8.628907 0-15.390625 8.40625-15.390625 19.136719zm0 0"/></svg>