<?xml version="1.0" encoding="UTF-8" standalone="no"?>
<!-- Created with Inkscape (http://www.inkscape.org/) -->

<svg
   version="1.1"
   id="svg1215"
   xml:space="preserve"
   width="682.66669"
   height="682.66669"
   viewBox="0 0 682.66669 682.66669"
   xmlns="http://www.w3.org/2000/svg"
   xmlns:svg="http://www.w3.org/2000/svg"><defs
     id="defs1219"><clipPath
       clipPathUnits="userSpaceOnUse"
       id="clipPath1229"><path
         d="M 0,512 H 512 V 0 H 0 Z"
         id="path1227" /></clipPath></defs><g
     id="g1221"
     transform="matrix(1.3333333,0,0,-1.3333333,0,682.66667)"><g
       id="g1223"><g
         id="g1225"
         clip-path="url(#clipPath1229)"><g
           id="g1231"
           transform="translate(195.4307,385.7471)"><path
             d="M 0,0 C 0,9.642 -7.816,17.458 -17.458,17.458 -27.099,17.458 -34.916,9.642 -34.916,0"
             style="fill:none;stroke:#000000;stroke-width:15;stroke-linecap:round;stroke-linejoin:round;stroke-miterlimit:10;stroke-dasharray:none;stroke-opacity:1"
             id="path1233" /></g><g
           id="g1235"
           transform="translate(316.5693,385.7471)"><path
             d="M 0,0 C 0,9.642 7.816,17.458 17.457,17.458 27.1,17.458 34.915,9.642 34.915,0"
             style="fill:none;stroke:#000000;stroke-width:15;stroke-linecap:round;stroke-linejoin:round;stroke-miterlimit:10;stroke-dasharray:none;stroke-opacity:1"
             id="path1237" /></g><g
           id="g1239"
           transform="translate(237.4814,365.3428)"><path
             d="m 0,0 c 4.503,-5.167 11.127,-8.437 18.519,-8.437 7.391,0 14.015,3.27 18.518,8.437"
             style="fill:none;stroke:#000000;stroke-width:15;stroke-linecap:round;stroke-linejoin:round;stroke-miterlimit:10;stroke-dasharray:none;stroke-opacity:1"
             id="path1241" /></g><g
           id="g1243"
           transform="translate(146.9653,207.9653)"><path
             d="m 0,0 c -16.325,-6.462 -34.727,-5.799 -50.626,1.982 -2.375,-9.705 -6.551,-22.028 -13.579,-38.698 -14.441,-34.253 -30.809,-73.076 -14.346,-136.259 2.933,-11.255 13.079,-18.714 24.192,-18.714 2.088,0 4.21,0.263 6.324,0.814 13.37,3.484 21.385,17.146 17.901,30.516 -12.185,46.764 -0.962,73.383 12.032,104.206 C -11.066,-39.466 -3.455,-21.396 0,0 Z"
             style="fill:none;stroke:#000000;stroke-width:15;stroke-linecap:round;stroke-linejoin:round;stroke-miterlimit:10;stroke-dasharray:none;stroke-opacity:1"
             id="path1245" /></g><g
           id="g1247"
           transform="translate(229.4697,209.4624)"><path
             d="m 0,0 c -2.215,1.035 -4.386,2.198 -6.497,3.505 -14.319,8.872 -31.319,11.457 -47.206,7.771 3.336,-12.986 7.137,-31.328 8.73,-52.075 3.954,-51.491 -7.213,-91.511 -33.192,-118.946 -9.5,-10.033 -9.068,-25.867 0.965,-35.366 4.837,-4.58 11.021,-6.851 17.196,-6.851 6.63,0 13.25,2.621 18.169,7.815 35.593,37.59 51.758,91.941 46.748,157.179 C 3.888,-23.62 2.08,-11.113 0,0 Z"
             style="fill:none;stroke:#000000;stroke-width:15;stroke-linecap:round;stroke-linejoin:round;stroke-miterlimit:10;stroke-dasharray:none;stroke-opacity:1"
             id="path1249" /></g><g
           id="g1251"
           transform="translate(330.9746,107.8032)"><path
             d="m 0,0 c -3.956,17.718 -5.154,37.639 -3.559,59.683 1.526,21.082 5.43,39.943 8.844,53.247 -15.894,3.695 -32.904,1.112 -47.232,-7.765 -2.112,-1.308 -4.282,-2.471 -6.497,-3.506 -2.079,-11.113 -3.888,-23.619 -4.913,-36.968 -5.01,-65.237 11.156,-119.589 46.748,-157.179 4.92,-5.194 11.537,-7.815 18.169,-7.815 6.173,0 12.359,2.272 17.196,6.851 10.033,9.499 10.465,25.333 0.965,35.366 -8.274,8.737 -15.037,18.761 -20.295,30.021"
             style="fill:none;stroke:#000000;stroke-width:15;stroke-linecap:round;stroke-linejoin:round;stroke-miterlimit:10;stroke-dasharray:none;stroke-opacity:1"
             id="path1253" /></g><g
           id="g1255"
           transform="translate(429.2402,171.2495)"><path
             d="m 0,0 c -5.588,13.253 -10.752,25.517 -13.646,38.664 -15.885,-7.75 -34.258,-8.401 -50.559,-1.948 3.454,-21.397 11.066,-39.466 18.101,-56.154 12.995,-30.822 24.217,-57.441 12.032,-104.205 -3.484,-13.37 4.531,-27.032 17.901,-30.516 2.115,-0.551 4.235,-0.814 6.324,-0.814 11.113,0 21.259,7.46 24.193,18.714 C 30.809,-73.076 14.439,-34.253 0,0 Z"
             style="fill:none;stroke:#000000;stroke-width:15;stroke-linecap:round;stroke-linejoin:round;stroke-miterlimit:10;stroke-dasharray:none;stroke-opacity:1"
             id="path1257" /></g><g
           id="g1259"
           transform="translate(438.8281,281.6328)"><path
             d="m 0,0 c -13.555,-12.658 -32.529,-19.497 -52.6,-16.847 -41.052,5.42 -84.811,8.347 -130.228,8.347 -45.417,0 -89.176,-2.927 -130.229,-8.347 -20.07,-2.65 -39.044,4.189 -52.599,16.847 l -3.556,-11.179 c -6.926,-21.767 1.831,-45.456 21.248,-57.486 20.234,-12.536 45.82,-12.536 66.054,0 20.234,12.536 45.821,12.536 66.055,0 20.233,-12.536 45.82,-12.536 66.054,0 20.234,12.536 45.821,12.536 66.055,0 20.233,-12.536 45.82,-12.536 66.054,0 h 0.001 c 19.416,12.03 28.172,35.719 21.248,57.486 z"
             style="fill:none;stroke:#000000;stroke-width:15;stroke-linecap:round;stroke-linejoin:round;stroke-miterlimit:10;stroke-dasharray:none;stroke-opacity:1"
             id="path1261" /></g><g
           id="g1263"
           transform="translate(92.4341,432.8701)"><path
             d="m 0,0 c -24.833,-29.175 -39.52,-65.226 -39.52,-104.251 0,-0.26 0.001,-0.52 0.002,-0.779 0.194,-38.642 34.546,-68.112 72.855,-63.054 41.053,5.42 84.812,8.346 130.229,8.346 45.417,0 89.176,-2.926 130.228,-8.346 38.31,-5.058 72.662,24.412 72.856,63.054 0.001,0.259 0.002,0.519 0.002,0.779 0,97.136 -90.925,175.881 -203.086,175.881 -55.441,0 -105.684,-19.248 -142.331,-50.439"
             style="fill:none;stroke:#000000;stroke-width:15;stroke-linecap:round;stroke-linejoin:round;stroke-miterlimit:10;stroke-dasharray:none;stroke-opacity:1"
             id="path1265" /></g></g></g></g></svg>
