<?xml version="1.0" encoding="UTF-8" standalone="no"?>
<!-- Created with Inkscape (http://www.inkscape.org/) -->

<svg
   version="1.1"
   id="svg3741"
   xml:space="preserve"
   width="682.66669"
   height="682.66669"
   viewBox="0 0 682.66669 682.66669"
   xmlns="http://www.w3.org/2000/svg"
   xmlns:svg="http://www.w3.org/2000/svg"><defs
     id="defs3745"><clipPath
       clipPathUnits="userSpaceOnUse"
       id="clipPath3755"><path
         d="M 0,512 H 512 V 0 H 0 Z"
         id="path3753" /></clipPath></defs><g
     id="g3747"
     transform="matrix(1.3333333,0,0,-1.3333333,0,682.66667)"><g
       id="g3749"><g
         id="g3751"
         clip-path="url(#clipPath3755)"><g
           id="g3757"
           transform="translate(442.2714,352.151)"><path
             d="m 0,0 c 28.043,11.82 47.729,39.565 47.729,71.908 0,43.078 -34.922,78 -78,78 -33.966,0 -62.86,-21.709 -73.565,-52.009"
             style="fill:none;stroke:#000000;stroke-width:20;stroke-linecap:round;stroke-linejoin:round;stroke-miterlimit:10;stroke-dasharray:none;stroke-opacity:1"
             id="path3759" /></g><g
           id="g3761"
           transform="translate(448,424.0593)"><path
             d="m 0,0 c 0,19.882 -16.118,36 -36,36 -19.882,0 -36,-16.118 -36,-36 0,-19.882 16.118,-36 36,-36 19.882,0 36,16.118 36,36 z"
             style="fill:none;stroke:#000000;stroke-width:20;stroke-linecap:round;stroke-linejoin:round;stroke-miterlimit:10;stroke-dasharray:none;stroke-opacity:1"
             id="path3763" /></g><g
           id="g3765"
           transform="translate(391.5474,382.4322)"><path
             d="m 0,0 c -17.303,52.986 -71.441,91.646 -135.547,91.646 -78.057,0 -141.334,-57.316 -141.334,-128.019 0,-70.703 63.277,-128.019 141.334,-128.019 35.121,0 67.249,11.604 91.969,30.809"
             style="fill:none;stroke:#000000;stroke-width:20;stroke-linecap:round;stroke-linejoin:round;stroke-miterlimit:10;stroke-dasharray:none;stroke-opacity:1"
             id="path3767" /></g><g
           id="g3769"
           transform="translate(114.6684,347.4364)"><path
             d="m 0,0 c -4.751,-0.904 -9.654,-1.377 -14.668,-1.377 -43.079,0 -78,34.922 -78,78 0,43.078 34.921,78 78,78 33.965,0 62.859,-21.709 73.564,-52.009"
             style="fill:none;stroke:#000000;stroke-width:20;stroke-linecap:round;stroke-linejoin:round;stroke-miterlimit:10;stroke-dasharray:none;stroke-opacity:1"
             id="path3771" /></g><g
           id="g3773"
           transform="translate(64,424.0593)"><path
             d="M 0,0 C 0,19.882 16.118,36 36,36 55.882,36 72,19.882 72,0 72,-19.882 55.882,-36 36,-36 16.118,-36 0,-19.882 0,0 Z"
             style="fill:none;stroke:#000000;stroke-width:20;stroke-linecap:round;stroke-linejoin:round;stroke-miterlimit:10;stroke-dasharray:none;stroke-opacity:1"
             id="path3775" /></g><g
           id="g3777"
           transform="translate(192.5,366.0593)"><path
             d="M 0,0 V 0"
             style="fill:none;stroke:#000000;stroke-width:20;stroke-linecap:round;stroke-linejoin:round;stroke-miterlimit:10;stroke-dasharray:none;stroke-opacity:1"
             id="path3779" /></g><g
           id="g3781"
           transform="translate(319.5,366.0593)"><path
             d="M 0,0 V 0"
             style="fill:none;stroke:#000000;stroke-width:20;stroke-linecap:round;stroke-linejoin:round;stroke-miterlimit:10;stroke-dasharray:none;stroke-opacity:1"
             id="path3783" /></g><g
           id="g3785"
           transform="translate(256,288.0593)"><path
             d="m 0,0 v 0 c -14.106,0 -25.54,11.435 -25.54,25.54 v 16.253 c 0,14.106 11.434,25.54 25.54,25.54 v 0 c 14.105,0 25.54,-11.434 25.54,-25.54 V 25.54 C 25.54,11.435 14.105,0 0,0 Z"
             style="fill:none;stroke:#000000;stroke-width:20;stroke-linecap:round;stroke-linejoin:round;stroke-miterlimit:10;stroke-dasharray:none;stroke-opacity:1"
             id="path3787" /></g><g
           id="g3789"
           transform="translate(294.1616,53.8085)"><path
             d="M 0,0 28.335,101.251"
             style="fill:none;stroke:#000000;stroke-width:20;stroke-linecap:round;stroke-linejoin:round;stroke-miterlimit:10;stroke-dasharray:none;stroke-opacity:1"
             id="path3791" /></g><g
           id="g3793"
           transform="translate(372.8646,104.1351)"><path
             d="m 0,0 -23.145,-82.707 c -2.047,-7.315 -8.945,-11.967 -16.238,-11.448"
             style="fill:none;stroke:#000000;stroke-width:20;stroke-linecap:round;stroke-linejoin:round;stroke-miterlimit:10;stroke-dasharray:none;stroke-opacity:1"
             id="path3795" /></g><g
           id="g3797"
           transform="translate(339.3547,215.3011)"><path
             d="m 0,0 43.872,156.773 c 2.34,8.361 11.015,13.242 19.376,10.902 l 29.648,-8.297 c 8.361,-2.34 13.242,-11.014 10.903,-19.375 L 58.956,-20.236"
             style="fill:none;stroke:#000000;stroke-width:20;stroke-linecap:round;stroke-linejoin:round;stroke-miterlimit:10;stroke-dasharray:none;stroke-opacity:1"
             id="path3799" /></g><g
           id="g3801"
           transform="translate(111.4079,101.5542)"><path
             d="M 0,0 C 18.4,-53.316 69.024,-91.614 128.592,-91.614"
             style="fill:none;stroke:#000000;stroke-width:20;stroke-linecap:round;stroke-linejoin:round;stroke-miterlimit:10;stroke-dasharray:none;stroke-opacity:1"
             id="path3803" /></g><g
           id="g3805"
           transform="translate(157.5485,254.2245)"><path
             d="M 0,0 C -20.911,-15.964 -37.056,-37.855 -45.927,-63.165"
             style="fill:none;stroke:#000000;stroke-width:20;stroke-linecap:round;stroke-linejoin:round;stroke-miterlimit:10;stroke-dasharray:none;stroke-opacity:1"
             id="path3807" /></g><g
           id="g3809"
           transform="translate(256,218.0401)"><path
             d="M 0,0 H 70.51 C 87.901,0 102,-14.099 102,-31.49 v 0 C 102,-48.882 87.901,-62.981 70.51,-62.981 H 52"
             style="fill:none;stroke:#000000;stroke-width:20;stroke-linecap:round;stroke-linejoin:round;stroke-miterlimit:10;stroke-dasharray:none;stroke-opacity:1"
             id="path3811" /></g><g
           id="g3813"
           transform="translate(259.0154,53.9407)"><path
             d="m 0,0 h 30.462 c 24.301,0 44,-19.699 44,-44 h -93.477"
             style="fill:none;stroke:#000000;stroke-width:20;stroke-linecap:round;stroke-linejoin:round;stroke-miterlimit:10;stroke-dasharray:none;stroke-opacity:1"
             id="path3815" /></g><g
           id="g3817"
           transform="translate(244.4869,142.2584)"><path
             d="m 0,0 c 26.983,0 48.858,-21.874 48.858,-48.858 0,-16.139 -7.83,-30.445 -19.893,-39.341"
             style="fill:none;stroke:#000000;stroke-width:20;stroke-linecap:round;stroke-linejoin:round;stroke-miterlimit:10;stroke-dasharray:none;stroke-opacity:1"
             id="path3819" /></g><g
           id="g3821"
           transform="translate(402.4636,200.919)"><path
             d="m 0,0 c 0,0 -12.951,-26.924 -42.252,-35.42 -17.269,-5.007 -27.952,-22.754 -23.826,-40.254 6.121,-25.957 37.863,-20.667 37.863,-20.667 0,0 67.925,10.329 28.215,96.341 z"
             style="fill:none;stroke:#000000;stroke-width:20;stroke-linecap:round;stroke-linejoin:round;stroke-miterlimit:10;stroke-dasharray:none;stroke-opacity:1"
             id="path3823" /></g><g
           id="g3825"
           transform="translate(104,146.0593)"><path
             d="M 0,0 V 0"
             style="fill:none;stroke:#000000;stroke-width:20;stroke-linecap:round;stroke-linejoin:round;stroke-miterlimit:10;stroke-dasharray:none;stroke-opacity:1"
             id="path3827" /></g></g></g></g></svg>
