<svg height="511pt" viewBox="-54 0 511 511.99828" width="511pt" xmlns="http://www.w3.org/2000/svg"><path d="m123.53125 203.796875c11.789062 0 21.023438-12.070313 21.023438-27.472656 0-15.40625-9.234376-27.472657-21.023438-27.472657s-21.023438 12.066407-21.023438 27.472657c0 15.402343 9.234376 27.472656 21.023438 27.472656zm0 0"/><path d="m363.089844 57.136719c22.484375-23.585938 30.203125-46.253907 30.539062-47.269531 1.996094-6-4.21875-11.746094-10.050781-9.28125-85.050781 35.980468-180.460937 32.628906-181.414063 32.585937-.203124-.011719-.40625-.011719-.605468 0-.953125.03125-96.367188 3.394531-181.417969-32.585937-5.828125-2.464844-12.046875 3.28125-10.050781 9.285156.335937 1.011718 8.058594 23.683594 30.542968 47.269531-8.925781 13.730469-31.5 52.46875-38.257812 102.1875-.558594 4.109375 2.320312 7.894531 6.429688 8.449219 4.105468.5625 7.894531-2.320313 8.453124-6.425782 7.773438-57.210937 38.8125-100.242187 39.121094-100.664062 2.21875-3.027344 1.863282-7.222656-.832031-9.832031-10.785156-10.445313-18.277344-21.03125-23.210937-29.386719 81.164062 29.253906 162.871093 26.960938 169.523437 26.71875 6.664063.242188 88.394531 2.535156 169.566406-26.734375-4.917969 8.328125-12.40625 18.898437-23.25 29.398437-2.695312 2.613282-3.054687 6.808594-.835937 9.835938.476562.644531 47.257812 65.480469 40.164062 142.632812-7.234375 78.660157-71.429687 120.234376-185.644531 120.234376s-178.410156-41.574219-185.644531-120.234376c-.378906-4.15625-.617188-8.414062-.699219-12.65625-.082031-4.144531-3.546875-7.449218-7.652344-7.359374-4.148437.082031-7.441406 3.507812-7.363281 7.652343.089844 4.601563.347656 9.222657.761719 13.738281 2.527343 27.460938 11.292969 51.007813 26.136719 70.410157-7.636719 16.117187-30.839844 71.515625-10.9375 112.691406 10.320312 21.351563 30.335937 35.269531 59.519531 41.402344 4.367187 6.554687 9.515625 12.527343 15.445312 17.890625 4.941407 4.472656 10.421875 8.484375 16.40625 12.058594-6.28125 6.921874-13 18.4375-10.835937 34.941406.535156 4.058594 4.363281 6.992187 8.421875 6.464844 4.113281-.539063 7.007812-4.3125 6.46875-8.421876-1.789063-13.636718 5.695312-22.117187 10.042969-25.808593 2.246093.96875 4.554687 1.882812 6.914062 2.753906-5.566406 7.074219-11.589844 17.796875-11.402344 30.972656.054688 4.109375 3.40625 7.402344 7.503906 7.402344h.109376c4.144531-.058594 7.460937-3.464844 7.402343-7.613281-.167969-12.027344 7.871094-21.65625 12.144531-25.914063.328126.085938.667969.160157 1.003907.242188-4.230469 8.324219-8.296875 20.824219-3.578125 33.039062 1.476562 3.816407 5.890625 5.773438 9.710937 4.300781 3.871094-1.496093 5.792969-5.84375 4.300781-9.710937-3.207031-8.300781 1.328126-18.578125 5.007813-24.523437 12.53125 2.003906 26.140625 3.015624 40.816406 3.015624 14.683594 0 28.285157-1.003906 40.792969-2.992187 3.285156 5.296875 8.4375 15.6875 5.03125 24.5-1.496094 3.867187.429688 8.214844 4.296875 9.710937 3.820313 1.472657 8.234375-.484374 9.710937-4.300781 4.71875-12.203125.664063-24.691406-3.5625-33.015625.335938-.082031.667969-.171875 1-.253906 4.273438 4.261719 12.304688 13.882812 12.136719 25.902344-.058593 4.148437 3.253907 7.554687 7.402344 7.613281h.105469c4.097656 0 7.449218-3.292969 7.507812-7.402344.183594-13.160156-5.824218-23.871093-11.386718-30.945312 2.363281-.871094 4.679687-1.785157 6.929687-2.753907 4.351563 3.707032 11.792969 12.179688 10.007813 25.78125-.539063 4.109376 2.355468 7.882813 6.464843 8.421876 4.058594.527343 7.890625-2.40625 8.425781-6.464844 2.164063-16.484375-4.539062-27.992188-10.816406-34.917969 12.476563-7.457031 22.707032-16.871094 30.632813-28.230469.398437-.574218.769531-1.171875 1.15625-1.757812 27.34375-5.742188 46.707031-18.335938 57.53125-37.5 8.757812-15.511719 11.722656-34.984375 8.804687-57.878906-.523437-4.113282-4.296875-7.023438-8.398437-6.5-4.113281.523437-7.023438 4.285156-6.5 8.398437 2.5 19.613281.148437 35.964844-6.984375 48.59375-6.941406 12.292969-18.707032 21.261719-35.035156 26.804687 7.359374-18.480468 10.054687-40.328124 7.777343-64.398437-1.570312-16.625-5.089843-30.347656-7.328125-37.832031 3.007813-1.769532 5.925782-3.609375 8.734375-5.539063 7.019531-4.8125 13.390625-10.089843 19.121094-15.808593 2.21875 5.171874 4.925781 12.085937 7.414063 20.058593 1.28125 4.113281 5.921874 6.328125 9.929687 4.742188 3.609375-1.421875 5.558594-5.515625 4.402344-9.214844-3.898438-12.503906-8.28125-22.535156-10.851563-27.996094 14.847656-19.402343 23.617188-42.953125 26.140625-70.421875 6.484375-70.511718-27.800781-129.804687-39.367187-147.554687zm-48.867188 365.214843c-19.863281 28.480469-57.667968 42.921876-112.363281 42.921876-45.082031 0-78.851563-9.863282-100.359375-29.320313-16.308594-14.75-25.710938-35.152344-27.941406-60.648437-.359375-4.128907-3.992188-7.183594-8.132813-6.824219-4.132812.363281-7.1875 4.003906-6.828125 8.136719 1.097656 12.535156 3.753906 24.03125 7.910156 34.449218-17.554687-5.988281-29.820312-15.953125-36.511718-29.777344-15.019532-31.023437.082031-74.457031 8.316406-93.75 5.730469 5.714844 12.09375 10.984376 19.109375 15.796876 2.808594 1.925781 5.726563 3.765624 8.734375 5.539062-2.164062 7.238281-5.527344 20.320312-7.167969 36.21875-.417969 4.019531 2.546875 7.730469 6.554688 8.222656 4.117187.503906 7.957031-2.554687 8.382812-6.679687 1.316407-12.761719 3.875-23.660157 5.808594-30.609375 31.851563 14.96875 72.785156 22.542968 122.125 22.542968s90.273437-7.574218 122.125-22.542968c5.386719 19.441406 15.660156 69.875-9.761719 106.324218zm0 0"/><path d="m280.1875 203.796875c11.789062 0 21.023438-12.070313 21.023438-27.472656 0-15.40625-9.234376-27.472657-21.023438-27.472657s-21.023438 12.066407-21.023438 27.472657c0 15.402343 9.234376 27.472656 21.023438 27.472656zm0 0"/><path d="m117.921875 281.554688c22.652344 2.046874 44.175781-5.191407 61.597656-20.5 5.628907 8.414062 13.429688 14.199218 22.339844 14.199218 8.914063 0 16.714844-5.785156 22.339844-14.203125 15.488281 13.613281 34.214843 20.84375 54.097656 20.84375 2.480469 0 4.988281-.113281 7.5-.339843 24.324219-2.195313 46.082031-15.070313 58.214844-34.429688 17.609375-28.105469 21.375-74.695312 8.949219-110.78125-9.542969-27.722656-27.386719-47.015625-51.597657-55.792969-34.746093-12.605469-61.730469-2.414062-78.242187 8.351563-9.496094 6.1875-16.628906 13.21875-21.261719 18.492187-4.628906-5.273437-11.765625-12.304687-21.257813-18.492187-16.515624-10.765625-43.496093-20.957032-78.242187-8.351563-24.214844 8.777344-42.054687 28.070313-51.601563 55.792969-12.421874 36.085938-8.660156 82.675781 8.953126 110.78125 12.128906 19.363281 33.890624 32.234375 58.210937 34.429688zm83.9375-21.316407c-7.261719 0-16.628906-14.644531-16.628906-30.199219 0-15.699218 10.417969-18.046874 16.628906-18.046874 14.46875 0 16.628906 11.308593 16.628906 18.046874 0 15.554688-9.367187 30.199219-16.628906 30.199219zm-136.902344-119.007812c5.589844-16.234375 17.503907-37.492188 42.519531-46.5625 23.042969-8.355469 44.734376-6.160157 64.476563 6.523437 15.164063 9.746094 23.539063 22.332032 23.613281 22.441406 1.382813 2.125 3.746094 3.398438 6.28125 3.40625h.019532c2.523437 0 4.890624-1.277343 6.277343-3.390624.082031-.125 8.460938-12.710938 23.621094-22.457032 19.742187-12.683594 41.4375-14.882812 64.480469-6.523437 25.011718 9.070312 36.925781 30.328125 42.515625 46.5625 10.894531 31.636719 7.679687 73.734375-7.476563 97.921875-9.652344 15.410156-27.164062 25.667968-46.839844 27.445312-19.835937 1.792969-38.6875-5.222656-53.546874-19.816406 1.679687-5.441406 2.609374-11.175781 2.609374-16.742188 0-20.085937-12.421874-33.0625-31.648437-33.0625s-31.648437 12.976563-31.648437 33.0625c0 5.566407.929687 11.304688 2.613281 16.746094-14.867188 14.589844-33.722657 21.609375-53.550781 19.816406-19.675782-1.78125-37.1875-12.039062-46.839844-27.449218-15.152344-24.1875-18.367188-66.285156-7.476563-97.921875zm0 0"/></svg>