<?xml version="1.0" encoding="UTF-8" standalone="no"?>
<!-- Created with Inkscape (http://www.inkscape.org/) -->

<svg
   version="1.1"
   id="svg399"
   xml:space="preserve"
   width="682.66669"
   height="682.66669"
   viewBox="0 0 682.66669 682.66669"
   xmlns="http://www.w3.org/2000/svg"
   xmlns:svg="http://www.w3.org/2000/svg"><defs
     id="defs403"><clipPath
       clipPathUnits="userSpaceOnUse"
       id="clipPath413"><path
         d="M 0,512 H 512 V 0 H 0 Z"
         id="path411" /></clipPath></defs><g
     id="g405"
     transform="matrix(1.3333333,0,0,-1.3333333,0,682.66667)"><g
       id="g407"><g
         id="g409"
         clip-path="url(#clipPath413)"><g
           id="g415"
           transform="translate(336.7787,57.2069)"><path
             d="M 0,0 C -13.638,-6.648 -28.25,-11.609 -43.563,-14.612"
             style="fill:none;stroke:#000000;stroke-width:20;stroke-linecap:round;stroke-linejoin:round;stroke-miterlimit:10;stroke-dasharray:none;stroke-opacity:1"
             id="path417" /></g><g
           id="g419"
           transform="translate(436.9371,208.6204)"><path
             d="M 0,0 C -2.423,-48.082 -23.872,-91.147 -56.97,-121.82"
             style="fill:none;stroke:#000000;stroke-width:20;stroke-linecap:round;stroke-linejoin:round;stroke-miterlimit:10;stroke-dasharray:none;stroke-opacity:1"
             id="path421" /></g><g
           id="g423"
           transform="translate(301.4264,367.2018)"><path
             d="m 0,0 c -41.818,24.44 -73.7,64.033 -88.116,111.247 -5.527,18.104 16.955,31.508 30.34,18.123 L 78.183,-6.589"
             style="fill:none;stroke:#000000;stroke-width:20;stroke-linecap:round;stroke-linejoin:round;stroke-miterlimit:10;stroke-dasharray:none;stroke-opacity:1"
             id="path425" /></g><g
           id="g427"
           transform="translate(311.4663,314.8217)"><path
             d="m 0,0 c -51.92,-2.444 -103.485,16.038 -142.098,52.072 -13.839,12.915 -1.072,35.765 17.212,30.866 L 38.569,39.14"
             style="fill:none;stroke:#000000;stroke-width:20;stroke-linecap:round;stroke-linejoin:round;stroke-miterlimit:10;stroke-dasharray:none;stroke-opacity:1"
             id="path429" /></g><g
           id="g431"
           transform="translate(78.0103,196.6169)"><path
             d="m 0,0 c -7.832,-16.819 -12.205,-35.573 -12.205,-55.348 v -10e-4 c 0,-72.497 58.771,-131.268 131.269,-131.268"
             style="fill:none;stroke:#000000;stroke-width:20;stroke-linecap:round;stroke-linejoin:round;stroke-miterlimit:10;stroke-dasharray:none;stroke-opacity:1"
             id="path433" /></g><g
           id="g435"
           transform="translate(304.9452,272.5369)"><path
             d="m 0,0 h -107.871 c -20.313,0 -39.548,-4.614 -56.715,-12.85"
             style="fill:none;stroke:#000000;stroke-width:20;stroke-linecap:round;stroke-linejoin:round;stroke-miterlimit:10;stroke-dasharray:none;stroke-opacity:1"
             id="path437" /></g><g
           id="g439"
           transform="translate(71.8333,101.3333)"><path
             d="m 0,0 c -25.221,0 -45.667,-20.446 -45.667,-45.667 0,-25.221 20.446,-45.666 45.667,-45.666 19.436,0 36.036,12.141 42.628,29.253"
             style="fill:none;stroke:#000000;stroke-width:20;stroke-linecap:round;stroke-linejoin:round;stroke-miterlimit:10;stroke-dasharray:none;stroke-opacity:1"
             id="path441" /></g><g
           id="g443"
           transform="translate(259.8542,56.1597)"><path
             d="m 0,0 h -0.016 c 2.761,8.408 3.919,17.543 3.03,27.062 -3.08,33.017 -30.53,60.209 -63.69,60.209 -37.772,0 -69.11,-28.896 -69.11,-66.499 v 0 c 0,-36.965 29.967,-66.932 66.932,-66.932 H 46.16 C 46.16,-20.667 25.493,0 0,0 Z"
             style="fill:none;stroke:#000000;stroke-width:20;stroke-linecap:round;stroke-linejoin:round;stroke-miterlimit:10;stroke-dasharray:none;stroke-opacity:1"
             id="path445" /></g><g
           id="g447"
           transform="translate(475.5262,298.8548)"><path
             d="m 0,0 -12.658,18.279 c -18.6,26.862 -49.195,42.89 -81.869,42.89 v 0 c -42.003,0 -76.054,-34.05 -76.054,-76.054 v 0 c 0,-42.003 34.051,-76.054 76.054,-76.054 h 46.885 c 32.005,0 57.949,25.945 57.949,57.949 v 0 C 10.307,-21.201 6.711,-9.692 0,0 Z"
             style="fill:none;stroke:#000000;stroke-width:20;stroke-linecap:round;stroke-linejoin:round;stroke-miterlimit:10;stroke-dasharray:none;stroke-opacity:1"
             id="path449" /></g><g
           id="g451"
           transform="translate(379.9671,122.3333)"><path
             d="m 0,0 v -66.174 c 25.493,0 46.16,-20.666 46.16,-46.159 H -31.274 L -56.8,-11.197"
             style="fill:none;stroke:#000000;stroke-width:20;stroke-linecap:round;stroke-linejoin:round;stroke-miterlimit:10;stroke-dasharray:none;stroke-opacity:1"
             id="path453" /></g><g
           id="g455"
           transform="translate(400.1667,293)"><path
             d="M 0,0 V 0"
             style="fill:none;stroke:#000000;stroke-width:20;stroke-linecap:round;stroke-linejoin:round;stroke-miterlimit:10;stroke-dasharray:none;stroke-opacity:1"
             id="path457" /></g><g
           id="g459"
           transform="translate(103.7234,233.5514)"><path
             d="M 0,0 V 0"
             style="fill:none;stroke:#000000;stroke-width:20;stroke-linecap:round;stroke-linejoin:round;stroke-miterlimit:10;stroke-dasharray:none;stroke-opacity:1"
             id="path461" /></g></g></g></g></svg>
