<?xml version="1.0" encoding="UTF-8" standalone="no"?>
<!-- Created with Inkscape (http://www.inkscape.org/) -->

<svg
   version="1.1"
   id="svg4869"
   xml:space="preserve"
   width="682.66669"
   height="682.66669"
   viewBox="0 0 682.66669 682.66669"
   xmlns="http://www.w3.org/2000/svg"
   xmlns:svg="http://www.w3.org/2000/svg"><defs
     id="defs4873"><clipPath
       clipPathUnits="userSpaceOnUse"
       id="clipPath4883"><path
         d="M 0,512 H 512 V 0 H 0 Z"
         id="path4881" /></clipPath></defs><g
     id="g4875"
     transform="matrix(1.3333333,0,0,-1.3333333,0,682.66667)"><g
       id="g4877"><g
         id="g4879"
         clip-path="url(#clipPath4883)"><g
           id="g4885"
           transform="translate(40.8975,111.5037)"><path
             d="m 0,0 c 18.81,-58.872 73.965,-101.503 139.077,-101.503 l 55.527,-0.001"
             style="fill:none;stroke:#000000;stroke-width:20;stroke-linecap:round;stroke-linejoin:round;stroke-miterlimit:10;stroke-dasharray:none;stroke-opacity:1"
             id="path4887" /></g><g
           id="g4889"
           transform="translate(256.1268,294.2499)"><path
             d="m 0,0 v 84.687 c 0.001,67.966 -55.096,123.063 -123.062,123.064 h -0.001 c -67.966,0 -123.063,-55.097 -123.064,-123.063 v -36.937 0 c 45.105,11.772 81.177,-37.977 55.968,-77.188 l -0.001,-10e-4 c -12.693,-19.742 -21.771,-41.452 -26.936,-64.114"
             style="fill:none;stroke:#000000;stroke-width:20;stroke-linecap:round;stroke-linejoin:round;stroke-miterlimit:10;stroke-dasharray:none;stroke-opacity:1"
             id="path4891" /></g><g
           id="g4893"
           transform="translate(360.3731,159.5188)"><path
             d="m 0,0 -7.267,-32.483 c -2.83,-12.653 -7.945,-24.31 -14.852,-34.578 -11.705,-17.404 -28.557,-30.815 -48.154,-38.313"
             style="fill:none;stroke:#000000;stroke-width:20;stroke-linecap:round;stroke-linejoin:round;stroke-miterlimit:10;stroke-dasharray:none;stroke-opacity:1"
             id="path4895" /></g><g
           id="g4897"
           transform="translate(421.2574,319.5126)"><path
             d="M 0,0 V 0"
             style="fill:none;stroke:#000000;stroke-width:20;stroke-linecap:round;stroke-linejoin:round;stroke-miterlimit:10;stroke-dasharray:none;stroke-opacity:1"
             id="path4899" /></g><g
           id="g4901"
           transform="translate(492.8961,259.9054)"><path
             d="M 0,0 -18.106,8.549"
             style="fill:none;stroke:#000000;stroke-width:20;stroke-linecap:round;stroke-linejoin:round;stroke-miterlimit:10;stroke-dasharray:none;stroke-opacity:1"
             id="path4903" /></g><g
           id="g4905"
           transform="translate(231.2386,180.6667)"><path
             d="m 0,0 c 38.752,0 70.166,-31.415 70.166,-70.167 0,-23.178 -11.244,-43.723 -28.569,-56.5 h 15.888 c 24.3,0 44,-19.7 43.999,-44 H -4.907"
             style="fill:none;stroke:#000000;stroke-width:20;stroke-linecap:round;stroke-linejoin:round;stroke-miterlimit:10;stroke-dasharray:none;stroke-opacity:1"
             id="path4907" /></g><g
           id="g4909"
           transform="translate(250.9986,9.9999)"><path
             d="m 0,0 c -77.665,0 -140.625,62.961 -140.624,140.626 0,77.665 62.96,140.624 140.625,140.624 h 39.101 l 39.993,53.319 c 7.099,10.332 16.4,18.683 27.036,24.611 v 0 l 28.863,66.045 30.088,-58.43 -0.031,-0.004 c 15.096,-3.875 28.891,-12.092 39.536,-23.869 l 34.888,-38.6 c 7.037,-7.786 11.301,-17.792 11.517,-28.284 0.494,-23.988 -18.803,-43.589 -42.679,-43.589 h -26.935"
             style="fill:none;stroke:#000000;stroke-width:20;stroke-linecap:round;stroke-linejoin:round;stroke-miterlimit:10;stroke-dasharray:none;stroke-opacity:1"
             id="path4911" /></g><g
           id="g4913"
           transform="translate(346.6542,227.0473)"><path
             d="m 0,0 h 30.099 c 9.233,0 18.282,2.585 26.121,7.464 v 0 c 8.337,5.188 17.96,7.938 27.78,7.938 v 0 c 14.359,0 26,-11.641 26,-26.001 v 0 c 0,-14.359 -11.641,-25.999 -26,-25.999 v 0 c -6.964,0 -13.562,-3.119 -17.982,-8.5 v 0 C 54.927,-58.6 38.373,-66.425 20.901,-66.425 H -9.655"
             style="fill:none;stroke:#000000;stroke-width:20;stroke-linecap:round;stroke-linejoin:round;stroke-miterlimit:10;stroke-dasharray:none;stroke-opacity:1"
             id="path4915" /></g><g
           id="g4917"
           transform="translate(33.9993,155.9773)"><path
             d="M 0,0 V 0"
             style="fill:none;stroke:#000000;stroke-width:20;stroke-linecap:round;stroke-linejoin:round;stroke-miterlimit:10;stroke-dasharray:none;stroke-opacity:1"
             id="path4919" /></g></g></g></g></svg>
