<?xml version="1.0" encoding="UTF-8" standalone="no"?>
<svg
   width="199.3mm"
   height="155mm"
   viewBox="0 0 199.29999 155.00001"
   version="1.1"
   id="svg8"
   inkscape:version="1.3.2 (091e20e, 2023-11-25, custom)"
   sodipodi:docname="squeakLogo.svg"
   xml:space="preserve"
   xmlns:inkscape="http://www.inkscape.org/namespaces/inkscape"
   xmlns:sodipodi="http://sodipodi.sourceforge.net/DTD/sodipodi-0.dtd"
   xmlns:xlink="http://www.w3.org/1999/xlink"
   xmlns="http://www.w3.org/2000/svg"
   xmlns:svg="http://www.w3.org/2000/svg"
   xmlns:rdf="http://www.w3.org/1999/02/22-rdf-syntax-ns#"
   xmlns:cc="http://creativecommons.org/ns#"
   xmlns:dc="http://purl.org/dc/elements/1.1/"><defs
     id="defs2"><linearGradient
       id="linearGradient7"
       inkscape:collect="always"><stop
         style="stop-color:#999999;stop-opacity:1;"
         offset="0"
         id="stop7" /><stop
         style="stop-color:#7f7f7f;stop-opacity:1;"
         offset="1"
         id="stop8" /></linearGradient><inkscape:path-effect
       effect="envelope"
       id="path-effect7098"
       is_visible="true"
       lpeversion="1"
       yy="true"
       xx="false"
       bendpath1="m -168.41825,-210.67079 c 39.73784,-11.55176 99.068768,-11.08853 137.297371,0.45626"
       bendpath2="m -41.97935,-202.09361 v 29.71809"
       bendpath3="m -157.53292,-168.09921 c 38.07909,-13.27194 75.58196,-13.58142 115.2863,-0.26727"
       bendpath4="m -159.13654,-202.09361 v 29.71809"
       bendpath1-nodetypes="cc"
       bendpath3-nodetypes="cc" /><inkscape:path-effect
       effect="bend_path"
       id="path-effect1544"
       is_visible="true"
       lpeversion="1"
       bendpath="m 22.336012,87.793749 c 45.718716,-12.91667 91.073768,-12.740959 136.079768,0"
       prop_scale="1"
       scale_y_rel="false"
       vertical="false"
       hide_knot="false"
       bendpath-nodetypes="cc" /><rect
       id="CKX"
       width="164.8"
       height="260.79999"
       x="-82.400002"
       y="-130.39999" /><pattern
       patternUnits="userSpaceOnUse"
       width="337.34936"
       height="392.47447"
       patternTransform="translate(6.1876468e-7,31.898221)"
       id="pattern499"><g
         id="g1292"
         transform="matrix(3.7795276,0,0,3.7795276,-64.812877,-82.574712)"><g
           id="g893"
           transform="matrix(0.26458333,0,0,0.26458333,50.100532,66.72959)"><symbol
             id="D8"
             viewBox="-500 -500 1000 1000"
             preserveAspectRatio="xMinYMid"><path
               d="m -1,-50 a 205,205 0 1 1 2,0 h -2 a 255,255 0 1 0 2,0 z"
               stroke="#ff0000"
               stroke-width="80"
               stroke-linecap="square"
               stroke-miterlimit="1.5"
               fill="none"
               id="path833" /></symbol><symbol
             id="D"
             viewBox="-600 -600 1200 1200"
             preserveAspectRatio="xMinYMid"><path
               d="M -400,0 C -350,0 0,-450 0,-500 0,-450 350,0 400,0 350,0 0,450 0,500 0,450 -350,0 -400,0 Z"
               fill="#ff0000"
               id="path836" /></symbol><rect
             width="239"
             height="335"
             x="-87.865799"
             y="-126.82198"
             rx="12"
             ry="12"
             fill="#ffffff"
             stroke="#000000"
             id="rect839"
             transform="rotate(-21.044013)" /><use
             xlink:href="#D"
             height="70"
             width="70"
             x="-87.500999"
             y="-35"
             id="use841"
             transform="rotate(-21.044013,93.687651,-105.49789)" /><use
             xlink:href="#D"
             height="70"
             width="70"
             x="17.500999"
             y="-35"
             id="use843"
             transform="rotate(-21.044013,93.687651,-105.49789)" /><use
             xlink:href="#D8"
             height="32"
             width="32"
             x="-114.4"
             y="-156"
             id="use845"
             transform="rotate(-21.044013,93.687651,-105.49789)" /><use
             xlink:href="#D"
             height="26.768999"
             width="26.768999"
             x="-111.784"
             y="-119"
             id="use847"
             transform="rotate(-21.044013,93.687651,-105.49789)" /><use
             xlink:href="#D"
             height="70"
             width="70"
             x="-87.500999"
             y="-135.50101"
             id="use849"
             transform="rotate(-21.044013,93.687651,-105.49789)" /><use
             xlink:href="#D"
             height="70"
             width="70"
             x="17.500999"
             y="-135.50101"
             id="use851"
             transform="rotate(-21.044013,93.687651,-105.49789)" /><use
             xlink:href="#D"
             height="70"
             width="70"
             x="-35"
             y="-85.25"
             id="use853"
             transform="rotate(-21.044013,93.687651,-105.49789)" /><g
             transform="rotate(158.95599,19.594794,17.401202)"
             id="g865"><use
               xlink:href="#D8"
               height="32"
               width="32"
               x="-114.4"
               y="-156"
               id="use855" /><use
               xlink:href="#D"
               height="26.768999"
               width="26.768999"
               x="-111.784"
               y="-119"
               id="use857" /><use
               xlink:href="#D"
               height="70"
               width="70"
               x="-87.500999"
               y="-135.50101"
               id="use859" /><use
               xlink:href="#D"
               height="70"
               width="70"
               x="17.500999"
               y="-135.50101"
               id="use861" /><use
               xlink:href="#D"
               height="70"
               width="70"
               x="-35"
               y="-85.25"
               id="use863" /></g></g></g></pattern><clipPath
       clipPathUnits="userSpaceOnUse"
       id="clipPath1557"><rect
         style="fill:#000000;stroke-width:3.77953;stroke-linejoin:round;paint-order:stroke fill markers"
         id="rect1559"
         width="283.85287"
         height="368.70566"
         x="-106.70437"
         y="-243.52045"
         rx="12"
         ry="12"
         transform="rotate(-24.103344)" /></clipPath><linearGradient
       inkscape:collect="always"
       xlink:href="#linearGradient7"
       id="linearGradient8"
       x1="36.886902"
       y1="11.096462"
       x2="35.860302"
       y2="50.564503"
       gradientUnits="userSpaceOnUse" /><clipPath
       clipPathUnits="userSpaceOnUse"
       id="clipPath14"><rect
         style="fill:#000000;stroke:#000000;stroke-width:3.77953;stroke-linejoin:round;paint-order:stroke fill markers"
         id="rect15"
         width="253.54831"
         height="193.9493"
         x="-168.32146"
         y="-198.21651"
         rx="12"
         ry="12"
         transform="rotate(20.774872)" /></clipPath><filter
       style="color-interpolation-filters:sRGB"
       inkscape:label="Drop Shadow"
       id="filter101"
       x="-0.055345985"
       y="-0.12616167"
       width="1.110692"
       height="1.2523058"><feFlood
         result="flood"
         in="SourceGraphic"
         flood-opacity="0.498039"
         flood-color="rgb(0,0,0)"
         id="feFlood100" /><feGaussianBlur
         result="blur"
         in="SourceGraphic"
         stdDeviation="3.000000"
         id="feGaussianBlur100" /><feOffset
         result="offset"
         in="blur"
         dx="0.000000"
         dy="0.000000"
         id="feOffset100" /><feComposite
         result="comp1"
         operator="in"
         in="flood"
         in2="offset"
         id="feComposite100" /><feComposite
         result="comp2"
         operator="over"
         in="SourceGraphic"
         in2="comp1"
         id="feComposite101" /></filter></defs><sodipodi:namedview
     id="base"
     pagecolor="#ffffff"
     bordercolor="#666666"
     borderopacity="1.0"
     inkscape:pageopacity="0.0"
     inkscape:pageshadow="2"
     inkscape:zoom="0.7"
     inkscape:cx="313.57143"
     inkscape:cy="376.42857"
     inkscape:document-units="mm"
     inkscape:current-layer="layer3"
     inkscape:document-rotation="0"
     showgrid="false"
     inkscape:object-nodes="false"
     inkscape:snap-nodes="false"
     showguides="true"
     inkscape:guide-bbox="true"
     fit-margin-top="0"
     fit-margin-left="0"
     fit-margin-right="0"
     fit-margin-bottom="0"
     inkscape:window-width="1920"
     inkscape:window-height="1009"
     inkscape:window-x="1912"
     inkscape:window-y="-8"
     inkscape:window-maximized="1"
     inkscape:showpageshadow="2"
     inkscape:pagecheckerboard="0"
     inkscape:deskcolor="#d1d1d1" /><metadata
     id="metadata5"><rdf:RDF><cc:Work
         rdf:about=""><dc:format>image/svg+xml</dc:format><dc:type
           rdf:resource="http://purl.org/dc/dcmitype/StillImage" /></cc:Work></rdf:RDF></metadata><g
     inkscape:label="Layer 1"
     inkscape:groupmode="layer"
     id="layer1"><g
       id="g14"
       transform="matrix(0.24738048,-0.0938469,0.0938469,0.24738048,52.156167,60.673156)"
       style="display:inline"
       clip-path="url(#clipPath14)"><symbol
         id="D8-5"
         viewBox="-500 -500 1000 1000"
         preserveAspectRatio="xMinYMid"><path
           d="m -1,-50 a 205,205 0 1 1 2,0 h -2 a 255,255 0 1 0 2,0 z"
           stroke="#ff0000"
           stroke-width="80"
           stroke-linecap="square"
           stroke-miterlimit="1.5"
           fill="none"
           id="path1" /></symbol><symbol
         id="D-4"
         viewBox="-600 -600 1200 1200"
         preserveAspectRatio="xMinYMid"><path
           d="M -400,0 C -350,0 0,-450 0,-500 0,-450 350,0 400,0 350,0 0,450 0,500 0,450 -350,0 -400,0 Z"
           fill="#ff0000"
           id="path2" /></symbol><rect
         width="239"
         height="335"
         x="-119.5"
         y="-167.5"
         rx="12"
         ry="12"
         fill="#ffffff"
         stroke="#000000"
         id="rect2-5" /><use
         xlink:href="#D-4"
         height="70"
         width="70"
         x="-87.500999"
         y="-35"
         id="use2" /><use
         xlink:href="#D-4"
         height="70"
         width="70"
         x="17.500999"
         y="-35"
         id="use3" /><use
         xlink:href="#D8-5"
         height="32"
         width="32"
         x="-114.4"
         y="-156"
         id="use4" /><use
         xlink:href="#D-4"
         height="26.768999"
         width="26.768999"
         x="-111.784"
         y="-119"
         id="use5" /><use
         xlink:href="#D-4"
         height="70"
         width="70"
         x="-87.500999"
         y="-135.50101"
         id="use6" /><use
         xlink:href="#D-4"
         height="70"
         width="70"
         x="17.500999"
         y="-135.50101"
         id="use7" /><use
         xlink:href="#D-4"
         height="70"
         width="70"
         x="-35"
         y="-85.25"
         id="use8" /><g
         transform="scale(-1)"
         id="g13"><use
           xlink:href="#D8-5"
           height="32"
           width="32"
           x="-114.4"
           y="-156"
           id="use9" /><use
           xlink:href="#D-4"
           height="26.768999"
           width="26.768999"
           x="-111.784"
           y="-119"
           id="use10" /><use
           xlink:href="#D-4"
           height="70"
           width="70"
           x="-87.500999"
           y="-135.50101"
           id="use11" /><use
           xlink:href="#D-4"
           height="70"
           width="70"
           x="17.500999"
           y="-135.50101"
           id="use12" /><use
           xlink:href="#D-4"
           height="70"
           width="70"
           x="-35"
           y="-85.25"
           id="use13" /></g></g><g
       id="g1335"
       transform="translate(-16.795253,-20.55348)"><g
         id="g1179"
         transform="matrix(0.26458333,0,0,0.26458333,115.19317,65.748304)"><symbol
           id="CK"
           viewBox="-500 -500 1000 1000"
           preserveAspectRatio="xMinYMid"><path
             d="m -285,-460 h 200 m -100,0 v 920 m -100,0 H -85 M 85,-460 h 200 m -100,20 -355,595 M 85,460 H 285 M 185,440 -10,-70"
             stroke="#000000"
             stroke-width="80"
             stroke-linecap="square"
             stroke-miterlimit="1.5"
             fill="none"
             id="path1060" /></symbol><symbol
           id="C"
           viewBox="-600 -600 1200 1200"
           preserveAspectRatio="xMinYMid"><path
             d="m 30,150 c 5,235 55,250 100,350 H -130 C -85,400 -35,385 -30,150 a 10,10 0 0 0 -20,0 210,210 0 1 1 -74,-201 10,10 0 0 0 14,-14 230,230 0 1 1 220,0 10,10 0 0 0 14,14 210,210 0 1 1 -74,201 10,10 0 0 0 -20,0 z"
             fill="#000000"
             id="path1063" /></symbol><symbol
           id="CK1"
           preserveAspectRatio="none"
           viewBox="0 0 1300 2000"><path
             fill="#ffcc44"
             d="m 315.88477,799.27344 c -12.56235,0 -24.6922,1.85347 -36.10547,5.37109 -0.48214,27.8097 -0.56402,55.37273 -0.33008,82.75781 -30.26406,3.32862 -59.22646,9.71055 -87.20508,18.66797 -0.91775,6.03679 -1.35937,12.06769 -1.35937,18.20313 0,19.37207 4.40727,37.71502 12.39648,53.82031 85.71456,-21.84226 147.4165,-22.49246 227.92578,-6.01172 6.30069,-14.67951 9.67774,-30.8501 9.67774,-47.80859 0,-9.41882 -1.04097,-18.59369 -3.09961,-27.30078 -28.56833,-6.28932 -55.92855,-10.09375 -82.24414,-11.60157 -1.17024,-27.08656 -2.75611,-54.12166 -4.69532,-81.09375 -11.01134,-3.26165 -22.78311,-5.0039 -34.96093,-5.0039 z M 315,865 a 15,15 0 0 1 15,15 15,15 0 0 1 -15,15 15,15 0 0 1 -15,-15 15,15 0 0 1 15,-15 z m -50,45 a 15,15 0 0 1 15,15 15,15 0 0 1 -15,15 15,15 0 0 1 -15,-15 15,15 0 0 1 15,-15 z m 100,0 a 15,15 0 0 1 15,15 15,15 0 0 1 -15,15 15,15 0 0 1 -15,-15 15,15 0 0 1 15,-15 z M 285.24246,803.19971 a 30.652709,27.5 0 0 1 -0.01,-0.69971 30.652709,27.5 0 0 1 30.65271,-27.5 30.652709,27.5 0 0 1 30.65271,27.5 v 0 a 30.652709,27.5 0 0 1 -0.0111,0.74119 M 303.33594,777.96363 C 300.16664,763.71638 289.40005,725.93333 265,730 c -23.93685,3.98948 -41.63933,59.0169 -20,70 16.94523,8.6006 16.08956,-46.8725 35,-45 9.35264,0.92609 13.58085,21.49426 14.69108,28.02722 m 31.24728,-6.47304 C 327.44566,750.40572 331.61384,724.78477 340,700 l -25,-30 -25,30 c 8.44914,24.97093 12.61672,50.79065 14.09516,77.14347 m 31.46937,4.44633 C 336.98856,773.91148 341.25333,755.86608 350,755 c 18.91044,-1.8725 18.05477,53.6006 35,45 21.63933,-10.9831 3.93685,-66.01052 -20,-70 -24.00176,-4.00029 -34.81152,32.49405 -38.17465,47.24743 M 692.05452,965.9376 C 709.00441,925.84824 680.22101,905.82567 650,905.23818 c -30.22101,0.58749 -59.00441,20.61006 -42.05452,60.69942 -45,-34.54713 -65.3769,2.23401 -65.63599,34.0624 0.25909,31.8284 20.63599,68.6096 65.63599,34.0624 -16.94989,40.0894 11.83351,60.112 42.05452,60.6994 30.22101,-0.5874 59.00441,-20.61 42.05452,-60.6994 45,34.5472 65.3769,-2.234 65.63599,-34.0624 -0.25909,-31.82839 -20.63599,-68.60953 -65.63599,-34.0624 z m -66.72249,-55.40049 c -1.29049,-7.8721 -2.59974,-15.69928 -3.92773,-23.48438 1.33034,7.78774 2.64812,15.6037 3.9414,23.47852 z m 124.39189,49.79159 56.49483,-0.44198 c 0.75351,-109.52858 18.21681,-216.80549 78.23828,-318.92774 L 720.64258,719.63477 566.14062,650.1582 c -9.74759,-29.54044 -20.63739,-57.82428 -32.99218,-84.67773 l -34.47461,-2.59766 c 41.3207,84.04286 67.26483,185.87175 87.85351,299.41797 C 556.31568,778.59382 509.83478,715.50153 450.5332,671.75195 393.43805,629.63016 325.64881,605.78465 251.81641,595.35938 c -16.48204,7.73731 -33.21405,16.43457 -49.74219,25.70898 182.00145,10.66405 321.30864,95.8619 372.76321,308.34003 C 635,890 711.03775,893.67129 749.72392,960.3287 Z M 609.7793,823.21289 c 0.12821,0.65669 0.25896,1.31132 0.38672,1.96875 -0.1277,-0.65764 -0.25858,-1.31186 -0.38672,-1.96875 z m 3.33398,17.41016 c 0.18997,1.01288 0.37739,2.0323 0.56641,3.04687 -0.18888,-1.01479 -0.37657,-2.03378 -0.56641,-3.04687 z m 2.69336,14.62109 c 0.35073,1.92997 0.70122,3.861 1.04883,5.79688 -0.34737,-1.93668 -0.69832,-3.86612 -1.04883,-5.79688 z m 1.72266,9.59961 c 1.22767,6.88986 2.4365,13.81701 3.6289,20.7793 -1.19118,-6.96496 -2.40216,-13.88689 -3.6289,-20.7793 z m 597.3892,190.09545 A 25,25 0 0 1 1225,1075 v 0 a 25,25 0 0 1 -25,25 25,25 0 0 1 -25,-25 25,25 0 0 1 14.2808,-22.5853 M 1260,1035 a 47.5,20 0 0 1 -47.5,20 47.5,20 0 0 1 -47.5,-20 47.5,20 0 0 1 47.5,-20 47.5,20 0 0 1 47.5,20 z M 1105,860 c 0,-20 40,-32.7067 40,0 0,7.45288 -10,7.53267 -10,0 0,-5 -9.929,-5.12392 -10,5 -0.2467,34.99913 65,-10 75,-20 10,10 75.2467,54.99913 75,20 -0.071,-10.12392 -10,-10 -10,-5 0,7.53267 -10,7.45288 -10,0 0,-32.7067 40,-20 40,0 0,50 -85,27.59954 -95,15 -10,12.59954 -95,35 -95,-15 z M 961.50795,538.87077 924.37106,538.30385 719.57227,636.91016 552.73103,561.52961 C 548.52182,563.03869 542.70237,564.01471 535,565 l 9.17732,25.87979 L 720,670 938.70991,564.54889 c 7.3233,-8.74993 14.8699,-17.2385 22.79804,-25.67812 z M 314.67496,-24.081076 c 55.01105,81.034293 88.64756,134.919396 113.4009,184.046316 187.30743,-23.75202 340.51468,-19.2146 490.88488,1.27178 C 937.12561,121.89414 965.73669,74.186359 1021.666,-2.8892116 M 806.26169,959.99997 748.00976,960 l 6.2176,15 h 51.21992 z m -254.29879,7e-5 -59.3684,-2e-5 L 492.49921,975 h 52.34563 z"
             id="path1066" /></symbol><symbol
           id="CK2"
           preserveAspectRatio="none"
           viewBox="0 0 1300 2000"><path
             fill="#ff0000"
             d="m 330,835 a 15,15 0 0 1 -15,15 15,15 0 0 1 -15,-15 15,15 0 0 1 15,-15 15,15 0 0 1 15,15 z m 0,90 a 15,15 0 0 1 -15,15 15,15 0 0 1 -15,-15 15,15 0 0 1 15,-15 15,15 0 0 1 15,15 z m -95,10 a 15,15 0 0 1 -15,15 15,15 0 0 1 -15,-15 15,15 0 0 1 15,-15 15,15 0 0 1 15,15 z m 190,-5 a 15,15 0 0 1 -15,15 15,15 0 0 1 -15,-15 15,15 0 0 1 15,-15 15,15 0 0 1 15,15 z m -285.1798,15.3063 c 7.62015,3.71791 15.83895,8.65802 23.19034,14.92176 l 33.17633,-0.0484 c -3.45336,-11.24539 -5.30162,-23.35952 -5.30162,-35.90534 10e-6,-58.338 39.964,-107.34192 94.00842,-121.12817 l 0.34879,0.0536 c -0.007,-0.23319 -0.01,-0.46645 -0.01,-0.69971 0,-7.81675 3.63523,-14.87177 9.46517,-19.67569 C 293.58085,776.49426 289.35264,755.92609 280,755 c -18.91044,-1.8725 -18.05477,53.6006 -35,45 -21.63933,-10.9831 -3.93685,-66.01052 20,-70 24.40005,-4.06667 35.16664,33.71638 38.33594,47.96363 l 0.75922,-0.82016 C 302.61672,750.79065 298.44914,724.97093 290,700 l 25,-30 25,30 c -8.38616,24.78477 -12.55434,50.40572 -14.06164,76.55418 l 0.88699,0.69325 C 330.18848,762.49405 340.99824,725.99971 365,730 c 23.93685,3.98948 41.63933,59.0169 20,70 -16.94523,8.6006 -16.08956,-46.8725 -35,-45 -8.74667,0.86608 -13.01144,18.91148 -14.70846,26.30184 6.74878,4.7514 11.24634,12.50357 11.24634,21.19816 0,0 -0.004,0.49418 0.33492,0.73756 54.21696,13.90174 94.01244,62.82189 94.01245,121.03677 0,12.29592 -1.77536,24.17718 -5.17786,35.56354 l 24.58818,0.16215 -0.0343,-241.33174 c -67.0994,-62.05809 -155.9304,-91.58965 -258.10002,-97.65004 -21.18998,11.90995 -42.06261,24.81864 -62.29505,38.42072 L 140,940 Z M 600.07385,1000 a 20,20 0 0 1 -20,20 20,20 0 0 1 -20,-20 20,20 0 0 1 20,-20 20,20 0 0 1 20,20 z M 670,944.17072 a 20,20 0 0 1 -20,20 20,20 0 0 1 -20,-20 20,20 0 0 1 20,-20 20,20 0 0 1 20,20 z m -177.72098,30.28663 c 0.90253,16.64091 1.10396,34.16165 1.14853,50.80285 l 53.45104,-0.3407 c -3.02618,-7.7454 -4.50058,-16.5055 -4.56907,-24.9195 0.0701,-8.61487 1.61409,-17.59258 4.74508,-25.42892 M 949.49508,955.5966 c -40.88979,11.85003 -72.97618,43.67917 -85.45215,84.2691 l -38.42409,0.1269 c -9.31373,-175.27439 7.1034,-342.08989 153.56044,-494.674 l 95.93872,35.13393 C 968.12464,698.47509 943.88877,822.19003 949.49508,955.5966 Z m -80.30605,-419.75832 55.18203,2.46557 -204.79879,98.60631 -167.21242,-75.25707 c 4.80253,-1.48989 8.36422,-3.58464 12.05461,-6.75962 C 585,580 615,560 615,535 c 10,30 15,40 39.61549,43.9696 28.31722,-1.16847 56.27099,-2.88702 77.74194,-14.4169 16.0177,6.95633 33.70441,5.11835 42.24684,-4.03452 29.6077,4.69565 64.64681,-11.96779 69.8605,-23.70323 8.36407,1.27737 17.08891,1.04323 24.72426,-0.97667 z M 385.06779,83.802165 c 10.92415,7.534905 23.02557,14.089038 36.41373,17.192565 3.26685,10.61217 6.90989,23.05462 14.4281,36.76454 3.7266,6.7957 8.65875,13.43872 14.08269,19.65146 56.0686,-6.63114 109.76671,-10.6617 161.31459,-12.31264 10.98281,-14.43465 19.10858,-32.14149 23.04479,-52.674917 9.53387,-4.368773 17.87708,-10.464195 24.62784,-17.581187 6.33421,7.50921 14.31629,14.093979 23.58526,19.026361 2.55022,19.151813 8.80607,36.110233 17.09179,50.457903 62.51999,0.99603 122.87103,5.50958 182.22907,12.89668 1.03656,-1.05016 2.17183,-2.2831 3.27881,-3.55974 13.50821,-15.57848 21.04333,-36.1939 22.97946,-60.172561 26.42133,-5.60885 46.23051,-13.178534 61.29818,-20.945568 C 932.02695,129.8664 915.3549,165.63627 902.96906,200.4476 762.45854,182.12363 619.8953,178.13191 445.94708,198.20679 430.24211,162.07551 411.84929,127.38199 385.06779,83.802165 Z"
             id="path1069" /></symbol><symbol
           id="CK3"
           preserveAspectRatio="none"
           viewBox="0 0 1300 2000"><path
             fill="#4444ff"
             d="m 1200,135 c -0.037,15.31531 1.7168,33.76758 1.7168,48.76758 0,15 -15,62.05273 -15,77.05273 0,15 10.4844,45.41211 10.4844,65.41211 0,20 -16.3067,64.10352 -16.3067,84.10352 0,20 15.5586,56.30664 15.5586,76.30664 0,20 -10.5586,45 -10.5586,65 0,20 13.8418,48.62109 13.8418,73.62109 0,25 -18.8418,55.89453 -18.8418,75.89453 0,20 9.8125,29.17774 9.8125,54.17774 0,23.25677 -10.1746,80.86379 -10.748,104.86328 l 20.4492,-14.57617 c 1.9077,-27.81216 7.8315,-71.45448 7.3008,-90.89453 -0.6821,-24.9907 -10.7395,-33.89808 -11.2852,-53.89063 -0.5457,-19.99256 17.4478,-51.39017 16.7657,-76.38086 -0.6821,-24.9907 -15.302,-53.22425 -15.8477,-73.2168 -0.5457,-19.99256 9.3269,-45.27111 8.7812,-65.26367 -0.5457,-19.99255 -17.089,-55.85901 -17.6347,-75.85156 -0.5457,-19.99255 14.5515,-64.52698 14.0058,-84.51953 -0.5457,-19.99255 -11.8563,-50.10519 -12.2656,-65.09961 -0.4093,-14.99442 13.3019,-62.43917 12.8926,-77.43359 C 1202.7119,168.07786 1200.4465,149.67911 1200,135 Z M 652.25977,294.0293 a 10,17.5 0 0 0 -10,17.5 10,17.5 0 0 0 10,17.5 10,17.5 0 0 0 10,-17.5 10,17.5 0 0 0 -10,-17.5 z m -150.04493,5.17382 a 10,17.5 0 0 0 -10,17.5 10,17.5 0 0 0 10,17.5 10,17.5 0 0 0 10,-17.5 10,17.5 0 0 0 -10,-17.5 z M 550,420 c -30,10 -25,25 -45,30 l -0.53516,0.98633 C 519.06812,450.96364 535,432.09863 550,430 Z m 50,0 v 10 c 32.31731,0 45.72059,21.48455 67.29688,20.98633 L 666.50586,450 C 636.9481,445 652.09763,425 600,420 Z m 526,179.06055 c -110.1846,112.44436 -133.55784,223.16409 -127.12109,352.5625 49.77099,5.73878 90.76149,41.01386 104.74609,88.15235 l 33.4336,0.1543 C 1119.7764,1025.4885 1105,1003.4214 1105,970 c 0,-65 45,-75 55,-75 10.7141,0 19.7357,7.64572 25.8809,18.13281 3.5566,-5.19816 14.4176,-10.99059 32.4902,-14.86328 66.7067,-14.29428 60.6228,22.50551 20.5293,29.04883 36.9733,-3.50654 38.8547,15.32295 19.5215,26.08008 21.3207,5.56259 13.3776,23.55473 -10.7285,29.42773 31.2392,4.09549 17.1266,31.04093 -17.0625,32.98243 17.3527,3.7677 29.3691,10.8888 29.3691,19.1914 0,1.8342 -0.5859,3.61 -1.627,5.1484 L 1300,1040.0293 V 662.66797 l -55,-20.16406 -0.1035,230.91211 c 16.0508,6.82562 30.2187,7.92842 30.1035,-8.41602 -0.071,-10.12392 -10,-10 -10,-5 0,7.53267 -10,7.45288 -10,0 0,-32.7067 40,-20 40,0 0,50 -85,27.59954 -95,15 -4.2058,5.29909 -21.68,12.3255 -40.5156,14.97656 -0.2694,0.0379 -0.5387,0.0752 -0.8086,0.11133 -1.1328,0.15153 -2.2694,0.29216 -3.4082,0.41016 C 1130.5403,893.05986 1105,887.40738 1105,860 c 0,-20 40,-32.7067 40,0 0,7.45288 -10,7.53267 -10,0 0,-5 -9.929,-5.12392 -10,5 -0.1137,16.12849 13.6801,15.26849 29.7832,8.55078 L 1155,609.20898 Z m 112.9004,328.25781 c -1.9692,0.18676 -4.0112,0.4201 -6.1816,0.73828 2.1404,-0.16576 4.2022,-0.41523 6.1816,-0.73828 z M 460.17383,718.58789 459.89648,960 550.65039,960.07227 575.32227,929.25 C 552.67896,836.10259 513.07278,767.38224 460.17383,718.58789 Z m 362.20703,5.32813 a 10,10 0 0 0 -10,10 10,10 0 0 0 10,10 10,10 0 0 0 10,-10 10,10 0 0 0 -10,-10 z M 620,735 a 10,10 0 0 0 -10,10 10,10 0 0 0 10,10 10,10 0 0 0 10,-10 10,10 0 0 0 -10,-10 z m 48.0293,3.2832 a 10,10 0 0 0 -10,10 10,10 0 0 0 10,10 10,10 0 0 0 10,-10 10,10 0 0 0 -10,-10 z m 109.60547,1.23242 a 10,10 0 0 0 -10,10 10,10 0 0 0 10,10 10,10 0 0 0 10,-10 10,10 0 0 0 -10,-10 z m -76.76368,15.18946 a 10,10 0 0 0 -10,10 10,10 0 0 0 10,10 10,10 0 0 0 10,-10 10,10 0 0 0 -10,-10 z m 45.1543,2.05273 a 10,10 0 0 0 -10,10 10,10 0 0 0 10,10 10,10 0 0 0 10,-10 10,10 0 0 0 -10,-10 z M 52.5,772.5 a 7.5,7.5 0 0 0 -7.5,7.5 7.5,7.5 0 0 0 7.5,7.5 7.5,7.5 0 0 0 7.5,-7.5 7.5,7.5 0 0 0 -7.5,-7.5 z m 430,10 c 6.90356,0 12.5,5.59644 12.5,12.5 0,6.90356 -5.59644,12.5 -12.5,12.5 -6.90356,0 -12.5,-5.59644 -12.5,-12.5 0,-6.90356 5.59644,-12.5 12.5,-12.5 z m 144.88867,3.40234 a 10,10 0 0 0 -10,10 10,10 0 0 0 10,10 10,10 0 0 0 10,-10 10,10 0 0 0 -10,-10 z m 154.76172,2.875 a 10,10 0 0 0 -10,10 10,10 0 0 0 10,10 10,10 0 0 0 10,-10 10,10 0 0 0 -10,-10 z m -111.6582,0.82032 a 10,10 0 0 0 -10,10 10,10 0 0 0 10,10 10,10 0 0 0 10,-10 10,10 0 0 0 -10,-10 z M 37.5,790 a 7.5,7.5 0 0 0 -7.5,7.5 7.5,7.5 0 0 0 7.5,7.5 7.5,7.5 0 0 0 7.5,-7.5 7.5,7.5 0 0 0 -7.5,-7.5 z m 35,2.5 A 7.5,7.5 0 0 0 65,800 7.5,7.5 0 0 0 72.5,807.5 7.5,7.5 0 0 0 80,800 7.5,7.5 0 0 0 72.5,792.5 Z M 55,805 l -25,75 15,-15 10,30 5,-30 10,15 z m 648.33398,1.01758 a 10,10 0 0 0 -10,10 10,10 0 0 0 10,10 10,10 0 0 0 10,-10 10,10 0 0 0 -10,-10 z m 47.20704,0 a 10,10 0 0 0 -10,10 10,10 0 0 0 10,10 10,10 0 0 0 10,-10 10,10 0 0 0 -10,-10 z m -373.89454,9.0039 c 0.99694,15.698 1.91025,31.45403 2.72461,47.21875 15.94722,1.63434 32.20958,4.04575 48.73243,7.03516 -11.30761,-23.03035 -29.27275,-41.87876 -51.45704,-54.25391 z M 254.5293,815.4375 c -24.40212,13.71317 -43.63391,35.3507 -54.45899,61.7793 17.5701,-4.56577 35.72703,-8.56921 54.34375,-11.53907 -0.0358,-16.67402 0.0135,-33.40021 0.11524,-50.24023 z M 522.5,827.5 c 6.90356,0 12.5,5.59644 12.5,12.5 0,6.90356 -5.59644,12.5 -12.5,12.5 -6.90356,0 -12.5,-5.59644 -12.5,-12.5 0,-6.90356 5.59644,-12.5 12.5,-12.5 z m 110.22656,13 a 10,10 0 0 0 -10,10 10,10 0 0 0 10,10 10,10 0 0 0 10,-10 10,10 0 0 0 -10,-10 z m 43.10352,3.28516 a 10,10 0 0 0 -10,10 10,10 0 0 0 10,10 10,10 0 0 0 10,-10 10,10 0 0 0 -10,-10 z m 108.7832,2.46289 a 10,10 0 0 0 -10,10 10,10 0 0 0 10,10 10,10 0 0 0 10,-10 10,10 0 0 0 -10,-10 z m -75.94336,13.95703 a 10,10 0 0 0 -10,10 10,10 0 0 0 10,10 10,10 0 0 0 10,-10 10,10 0 0 0 -10,-10 z m 44.33594,3.28515 a 10,10 0 0 0 -10,10 10,10 0 0 0 10,10 10,10 0 0 0 10,-10 10,10 0 0 0 -10,-10 z M 315,865 a 15,15 0 0 0 -15,15 15,15 0 0 0 15,15 15,15 0 0 0 15,-15 15,15 0 0 0 -15,-15 z m 167.5,2.5 c 6.90356,0 12.5,5.59644 12.5,12.5 0,6.90356 -5.59644,12.5 -12.5,12.5 -6.90356,0 -12.5,-5.59644 -12.5,-12.5 0,-6.90356 5.59644,-12.5 12.5,-12.5 z m -170.45898,2.44141 a 6.0259113,6.0741649 0 0 1 6.02734,6.07421 6.0259113,6.0741649 0 0 1 -6.02734,6.07422 6.0259113,6.0741649 0 0 1 -6.0254,-6.07422 6.0259113,6.0741649 0 0 1 6.0254,-6.07421 z m 477.91015,22.69336 a 10,10 0 0 0 -10,10 10,10 0 0 0 10,10 10,10 0 0 0 10,-10 10,10 0 0 0 -10,-10 z m -111.6582,6.56835 a 10,10 0 0 0 -9.10547,5.86719 l 19.08398,4.78321 a 10,10 0 0 0 0.0215,-0.6504 10,10 0 0 0 -10,-10 z M 537.5,905 c 6.90356,0 12.5,5.59644 12.5,12.5 0,6.90356 -5.59644,12.5 -12.5,12.5 -6.90356,0 -12.5,-5.59644 -12.5,-12.5 0,-6.90356 5.59644,-12.5 12.5,-12.5 z m 220.8418,4.87695 a 10,10 0 0 0 -10,10 10,10 0 0 0 10,10 10,10 0 0 0 10,-10 10,10 0 0 0 -10,-10 z M 265,910 a 15,15 0 0 0 -15,15 15,15 0 0 0 15,15 15,15 0 0 0 15,-15 15,15 0 0 0 -15,-15 z m 100,0 a 15,15 0 0 0 -15,15 15,15 0 0 0 15,15 15,15 0 0 0 15,-15 15,15 0 0 0 -15,-15 z m -3.39258,4.94141 a 6.0259113,6.0741649 0 0 1 6.02539,6.07421 6.0259113,6.0741649 0 0 1 -6.02539,6.07422 6.0259113,6.0741649 0 0 1 -6.02734,-6.07422 6.0259113,6.0741649 0 0 1 6.02734,-6.07421 z M 261.02539,915 a 6.0259113,6.0741649 0 0 1 6.02734,6.07422 6.0259113,6.0741649 0 0 1 -6.02734,6.07422 A 6.0259113,6.0741649 0 0 1 255,921.07422 6.0259113,6.0741649 0 0 1 261.02539,915 Z m 450.10742,0.62305 a 10,10 0 0 0 -5.62304,1.73242 l 15.46484,10.04297 a 10,10 0 0 0 0.1582,-1.77539 10,10 0 0 0 -10,-10 z m -385.54492,69.74804 c -33.88107,0.24625 -68.06815,5.05332 -108.61523,14.90431 22.59865,29.8389 58.51755,48.998 98.91211,48.998 42.74974,0 80.48797,-21.4593 102.83398,-54.23434 -33.57872,-6.55244 -63.2358,-9.88524 -93.13086,-9.66797 z"
             id="path1072" /></symbol><symbol
           id="CK4"
           preserveAspectRatio="none"
           viewBox="0 0 1300 2000"><path
             fill="#000000"
             d="m 672.93164,185.05078 c -70.69497,-0.11093 -145.24163,4.2451 -226.59961,14.0957 l 10.71875,26.28516 c 165.82048,-19.48743 302.23404,-15.74409 436.89063,2.14453 l 8.82031,-26.43164 C 828.22531,191.03949 753.05261,185.1765 672.93164,185.05078 Z M 401.37109,542.79492 c -51.87137,11.76555 -101.64808,29.66945 -149.64257,52.60547 73.92017,10.38352 141.70953,34.22977 198.80468,76.35156 59.30158,43.74958 105.78248,106.84187 135.99414,190.54883 C 565.93866,748.75456 539.99453,646.92567 498.67383,562.88281 L 425,555 Z M 938.56836,564.76367 720,670 544.17773,590.87891 l 21.85157,59.18164 154.61328,69.57422 163.99023,-78.95899 z m 161.95314,24.98828 C 992.68524,704.048 968.49088,820.68054 974.32031,951.08594 l 24.76563,0.59375 C 992.44268,822.22328 1015.8151,711.50425 1126.1387,599.14648 Z M 1245,642.29883 v 187.72656 l 55,-18.35742 V 662.61328 Z M 139.91406,659.40625 c -13.63827,9.14276 -39.990232,28.34766 -39.990232,28.34766 L 100,900 c 13.80712,0 25,11.19288 25,25 0,4.93906 -1.43146,9.54288 -4.18359,13.05664 5.06445,1.28077 12.00602,3.79597 19.5,7.49219 L 140,940 Z M 1050,787 c -4.057,-0.0574 -4.057,6.05738 0,6 h 75 c 4.057,0.0574 4.057,-6.05738 0,-6 z m -27.457,25 -1.1407,6 H 1140 v -6 z m -4.1739,23.5 -1.2421,9 h 77.2675 l 7.2364,-9 z m -2.9961,25 -0.8144,9 h 76.5098 l -1.0352,-9 z m -1.7265,25.5 -0.4922,18 h 98.6309 l -13.7188,-18 z m -0.6016,31 0.1328,6 h 86.4024 l 3.0664,-6 z m 0.4473,20 14.8027,6 h 64.6211 l 1.3945,-6 z m 44.5586,20 8.8652,6 h 23.3828 l 0.3574,-6 z m 25.1699,20 5.5195,6 h 2.0352 l -0.543,-6 z m -725.14843,6.64844 a 3.0003,3.0003 0 0 0 -1.60352,0.52929 c -11.4571,7.66252 -25.35724,12.09571 -40.58398,12.09571 -13.72709,0 -26.37503,-3.60462 -37.12891,-9.92774 a 3.0003,3.0003 0 1 0 -3.04102,5.17188 c 11.66888,6.86112 25.39068,10.75582 40.16993,10.75582 16.39385,0 31.48545,-4.79315 43.91992,-13.10934 a 3.0003,3.0003 0 0 0 -1.73242,-5.51562 z m 33.11914,3.67187 a 3.0003,3.0003 0 0 0 -2.29688,1.05469 c -17.73099,20.2083 -43.76195,32.8984 -73.00976,32.8984 -27.38853,0 -51.95164,-11.1275 -69.52735,-29.13668 a 3.0003,3.0003 0 1 0 -4.29492,4.18945 c 18.66645,19.12683 44.80635,30.94723 73.82227,30.94723 30.98568,0 58.68786,-13.4786 77.51953,-34.94137 a 3.0003,3.0003 0 0 0 -2.21289,-5.01172 z"
             id="path1075" /></symbol><symbol
           id="CK5"
           preserveAspectRatio="none"
           viewBox="0 0 1300 2000"><path
             stroke="#4444ff"
             stroke-linecap="round"
             stroke-linejoin="round"
             stroke-width="6"
             fill="none"
             d="m 522.89946,3.4796319 c 9.29661,67.9067991 63.93445,63.4315221 67.75323,108.8434281 3.44105,40.92056 -51.6455,45.49043 -54.87181,4.5513 -2.18056,-27.669238 29.20442,-29.893498 31.35531,-2.60075 1.07544,13.64639 -18.52163,15.27184 -19.59707,1.62547 M 522.89946,3.4796319 C 524.35724,72.036617 469.72827,76.62439 473.07023,122.07584 c 3.01145,40.9562 58.09813,36.38784 54.87181,-4.55129 -2.18055,-27.669237 -33.50619,-24.692022 -31.35532,2.60074 1.07543,13.64637 20.67252,12.02091 19.59708,-1.62547 M 803.52042,0.0083487 c -1.61728,68.4319893 60.02097,74.3751393 56.20018,119.7511913 -3.44559,40.92033 -65.70092,35.0118 -62.01247,-5.88624 2.49288,-27.641447 37.89466,-23.901792 35.43571,3.36356 -1.22949,13.6327 -23.37681,11.53047 -22.14733,-2.10222 M 803.49877,0.01017719 C 792.84838,67.580864 731.19583,61.822082 726.83671,107.14617 c -3.93115,40.87425 58.32404,46.78427 62.01249,5.88624 2.49288,-27.641449 -32.97674,-30.628921 -35.43572,-3.36356 -1.22947,13.63267 20.91785,15.7349 22.14733,2.10222 m 106.19939,45.59258 c 1.16201,-1.19056 2.29728,-2.4235 3.40426,-3.70014 13.50821,-15.57848 21.04333,-36.1939 22.97946,-60.172561 C 934.56525,87.881779 954.37443,80.312095 970,71.80741 M 840.76436,152.60864 C 868.5811,141.05431 884.66913,116.44423 881.61643,70.52775 970.03834,57.492744 977.85613,28.050164 1016.1156,4.8041951 M 384.63751,83.185925 c 11.35443,8.151145 23.45585,14.705278 36.84401,17.808805 3.26685,10.61217 6.90989,23.05462 14.4281,36.76454 3.7266,6.7957 8.65875,13.43872 14.82126,19.61206 m 39.92618,-4.32715 C 452.77056,135.41043 453.48263,104.49672 440.89477,75.57957 408.94197,77.33746 370.4588,37.367252 336.36001,-0.19981025 M 611.36441,145.17903 c 10.9253,-14.51559 19.05107,-32.22243 22.98728,-52.755857 9.53387,-4.368773 17.87708,-10.464195 24.62784,-17.581187 6.33421,7.50921 14.31629,14.093979 23.58526,19.026361 2.55022,19.151813 8.80607,36.110233 17.69034,50.522733 M 661.11102,-4.759348e-7 C 654.88793,34.595953 646.01547,66.138383 610.12103,71.520915 608.0095,108.17316 593.55433,131.47767 571.81131,146.87836 m 162.65854,-1.50599 C 718.0019,129.07875 707.96296,106.5856 707.9437,74.453123 672.41682,66.929756 665.35458,34.909688 661.11102,-4.759348e-7 c 0,0 0,0 0,0 M 1019.4178,0.21358779 C 930.31249,123.36835 911.81756,170.70059 893.87725,227.73813 M 331.33098,0.60259911 C 399.55705,102.39104 431.37918,159.18448 457.19072,225.5247 m -10.8591,-26.37816 c 173.56368,-21.01463 316.12692,-17.02291 456.43075,1.99835 m -445.71125,24.28755 c 165.82048,-19.48743 302.23384,-15.74459 436.89043,2.14403 M 428.12856,160.03465 c 187.25473,-23.82143 340.46198,-19.28401 490.61123,1.8767 M -0.06507991,771.26195 C 113.12784,665.90749 248.10586,577.55962 401.37082,542.79581 m 753.62938,66.83842 -195.60523,-71.5629 m 340.60523,124.61168 -55.0003,-20.12206 M 924.37106,538.30385 719.57227,636.91016 552.27312,561.62571 m -8.0958,29.25408 L 720,670 938.56825,564.76344 M 566.02954,650.06 l 154.61304,69.57477 163.99053,-78.9584 m -306.73675,47.6208 143.17395,64.42744 140.14268,-67.4764 m -214.15858,72.15859 78.74832,48.38666 76.56099,-47.88938 m -153.29902,50.76162 81.47046,50.1966 74.0099,-47.51872 m -153.051,59.25997 83.77352,41.3276 71.53084,-45.38307 m -6.20914,-152.11056 7.728,189.33596 M 625.96505,709.92812 589.11088,730.03043 m 57.94431,27.37684 -45.62004,26.06041 m 47.63019,25.19843 -37.57722,23.9974 m 40.00614,37.94015 -30.53279,14.27244 m 181.40197,-126.97185 28.80644,8.17222 m -24.37199,100.47194 4.64687,2.21643 m -6.90011,-57.421 14.6443,6.01042 M 605.78319,959.99999 599.2832,960 m 101.43359,0 -6.5,-10e-6 m -234.21678,3e-5 L 460,718.46094 m -19.11475,205.81335 a 125,125 0 0 1 -125,125.00001 125,125 0 0 1 -125,-125.00001 125,125 0 0 1 125,-125 125,125 0 0 1 125,125 v 0 M 961.50795,538.87077 C 815.96941,693.79869 799.00376,865.21991 808.18772,1039.9956 m 17.5163,-0.01 C 816.30511,864.71821 832.72224,697.90271 979.42759,545.41855 M 949.77485,955.53057 C 943.88877,822.19003 968.12464,698.47509 1075.0971,580.48837 M 999.08576,951.68038 C 992.4425,822.22397 1015.8156,711.50454 1126.1392,599.14677 M 974.32013,951.08637 C 968.4907,820.68097 992.68488,704.04727 1100.5211,589.75122 M 677.5,1000 A 27.5,27.5 0 0 1 650,1027.5 27.5,27.5 0 0 1 622.5,1000 27.5,27.5 0 0 1 650,972.5 27.5,27.5 0 0 1 677.5,1000 v 0 m 14.55452,-34.0624 C 709.00441,925.84824 680.22101,905.82567 650,905.23818 c -30.22101,0.58749 -59.00441,20.61006 -42.05452,60.69942 -45,-34.54713 -65.3769,2.23401 -65.63599,34.0624 0.25909,31.8284 20.63599,68.6096 65.63599,34.0624 -16.94989,40.0894 11.83351,60.112 42.05452,60.6994 30.22101,-0.5874 59.00441,-20.61 42.05452,-60.6994 45,34.5472 65.3769,-2.234 65.63599,-34.0624 -0.25909,-31.82839 -20.63599,-68.60953 -65.63599,-34.0624 v 0 M 498.67402,562.88239 c 41.3207,84.04286 67.26464,185.87217 87.85332,299.41839 C 556.31568,778.59382 509.83478,715.50153 450.5332,671.75195 393.43805,629.63016 325.64841,605.78414 251.28022,595.71366 M 196.20115,960 H 162.65429 M 140,659.36329 V 940 M 100,687.7793 V 900 m 1114.9185,154.9392 A 25,25 0 0 1 1225,1075 v 0 a 25,25 0 0 1 -25,25 25,25 0 0 1 -25,-25 25,25 0 0 1 14.2808,-22.5853 m -10.2067,9.7707 C 1156.1229,1055.0451 1105,1032.1634 1105,970 c 0,-65 45,-75 55,-75 20,0 34.1051,26.64204 34.1051,46.64204 0,40 -39.1051,33.77177 -39.1051,3.35796 0,-20 10,-30 10,-30 l -30,20 m 125,100 a 47.5,20 0 0 1 -47.5,20 47.5,20 0 0 1 -47.5,-20 47.5,20 0 0 1 47.5,-20 47.5,20 0 0 1 47.5,20 v 0 m -66.1509,-95.55831 C 1199.4522,935.88404 1208.1848,932.53182 1220,930 v 0 c 70,-15 59.8446,26.26295 15,30 -21.6833,1.80694 -36.0386,-0.24194 -43.2229,-4.0902 m 66.3883,-2.4205 c 25.2944,6.41437 10.0226,30.03268 -24.0408,31.15309 -50.4324,1.65883 -60.4614,-15.41331 -33.3334,-25.69858 m 46.7435,23.89089 c 31.3983,4.08687 17.2862,31.0324 -17.1468,32.231 -56.6766,1.9729 -59.3511,-22.54884 -13.184,-30.63726 m -31.2457,-70.98302 c 3.48,-5.51081 14.3403,-11.30299 32.4129,-15.17568 v 0 c 70,-15 59.8446,26.26295 15,30 -20.9545,1.74621 -35.0653,-0.10857 -42.4742,-3.70835 m -33.7996,32.7608 C 1162.0973,977.32219 1145,1025 1145,1025 m 10,-151.57224 V 180 l 45,-45 45,45 V 873.42775 M 1105,860 c 0,-20 40,-32.7067 40,0 0,7.45288 -10,7.53267 -10,0 0,-5 -9.929,-5.12392 -10,5 -0.2467,34.99913 65,-10 75,-20 10,10 75.2467,54.99913 75,20 -0.071,-10.12392 -10,-10 -10,-5 0,7.53267 -10,7.45288 -10,0 0,-32.7067 40,-20 40,0 0,50 -85,27.59954 -95,15 -10,12.59954 -95,35 -95,-15 v 0 m 95.4076,-14.37632 c 1.9077,-27.81216 7.833,-71.45499 7.3023,-90.89504 -0.6821,-24.9907 -10.7401,-33.89856 -11.2858,-53.89111 -0.5457,-19.99256 17.4467,-51.39008 16.7646,-76.38077 -0.6821,-24.9907 -15.3003,-53.22304 -15.846,-73.21559 -0.5457,-19.99256 9.3265,-45.27133 8.7808,-65.26389 -0.5457,-19.99255 -17.0888,-55.85995 -17.6345,-75.8525 -0.5457,-19.99255 14.5502,-64.52612 14.0045,-84.51867 -0.5457,-19.99255 -11.8559,-50.10567 -12.2652,-65.10009 -0.4093,-14.99442 13.3013,-62.43872 12.892,-77.43314 C 1202.7111,168.07847 1200.4465,149.67911 1200,135 c -0.037,15.31531 1.7159,33.76847 1.7159,48.76847 0,15 -15,62.05255 -15,77.05255 0,15 10.4844,45.41051 10.4844,65.41051 0,20 -16.3054,64.10509 -16.3054,84.10509 0,20 15.5583,56.30542 15.5583,76.30542 0,20 -10.5583,45 -10.5583,65 0,20 13.8424,48.62069 13.8424,73.62069 0,25 -18.8424,55.89491 -18.8424,75.89491 0,20 9.8112,29.17898 9.8112,54.17898 0,23.25677 -10.1739,80.86223 -10.7473,104.86172 M 203.40468,977.83395 c 85.59108,-21.58175 147.29353,-22.23267 227.62043,-5.81758 M 279.80507,804.71486 c -0.5071,27.73989 -0.59057,55.30305 -0.35663,82.68813 -30.26406,3.32862 -59.22478,9.70945 -87.13962,18.52893 M 350.72792,804.2916 c 2.05678,26.95785 3.64214,53.9925 4.81238,81.07906 26.31559,1.50782 53.67624,5.31289 82.16046,11.71839 M 217.22532,1000.1643 c 76.07132,-18.43261 129.85852,-19.10372 201.29917,-5.1651 M 254.64372,815.46829 c -0.21617,16.80985 -0.26541,33.53542 -0.22966,50.20944 -18.61672,2.96986 -36.77403,6.9726 -54.47676,11.92212 m 228.23575,-8.05723 c -16.59171,-3.25658 -32.85474,-5.66805 -48.80196,-7.30239 -0.81436,-15.76472 -1.72691,-31.52041 -2.81265,-47.25629 M 330,880 a 15,15 0 0 1 -15,15 15,15 0 0 1 -15,-15 15,15 0 0 1 15,-15 15,15 0 0 1 15,15 v 0 m 0,-45 a 15,15 0 0 1 -15,15 15,15 0 0 1 -15,-15 15,15 0 0 1 15,-15 15,15 0 0 1 15,15 v 0 m 0,90 a 15,15 0 0 1 -15,15 15,15 0 0 1 -15,-15 15,15 0 0 1 15,-15 15,15 0 0 1 15,15 v 0 m -50,0 a 15,15 0 0 1 -15,15 15,15 0 0 1 -15,-15 15,15 0 0 1 15,-15 15,15 0 0 1 15,15 v 0 m -45,10 a 15,15 0 0 1 -15,15 15,15 0 0 1 -15,-15 15,15 0 0 1 15,-15 15,15 0 0 1 15,15 v 0 m 145,-10 a 15,15 0 0 1 -15,15 15,15 0 0 1 -15,-15 15,15 0 0 1 15,-15 15,15 0 0 1 15,15 v 0 m 45,5 a 15,15 0 0 1 -15,15 15,15 0 0 1 -15,-15 15,15 0 0 1 15,-15 15,15 0 0 1 15,15 v 0 M 285.24246,803.19971 a 30.652709,27.5 0 0 1 -0.01,-0.69971 30.652709,27.5 0 0 1 30.65271,-27.5 30.652709,27.5 0 0 1 30.65271,27.5 v 0 a 30.652709,27.5 0 0 1 -0.0111,0.74119 M 303.33594,777.96363 C 300.16664,763.71638 289.40005,725.93333 265,730 c -23.93685,3.98948 -41.63933,59.0169 -20,70 16.94523,8.6006 16.08956,-46.8725 35,-45 9.35264,0.92609 13.58085,21.49426 14.69108,28.02722 m 9.40408,-5.88375 c 4.4e-4,0.008 8.8e-4,0.0157 10e-4,0.0236 m 21.8422,-0.61289 C 327.44566,750.40572 331.61384,724.78477 340,700 l -25,-30 -25,30 c 8.44914,24.97093 12.61672,50.79065 14.09516,77.14347 m 21.84229,-0.57353 c 3e-4,-0.005 6.1e-4,-0.0105 9.1e-4,-0.0158 m 9.62617,5.03566 C 336.98856,773.91148 341.25333,755.86608 350,755 c 18.91044,-1.8725 18.05477,53.6006 35,45 21.63933,-10.9831 3.93685,-66.01052 -20,-70 -24.00176,-4.00029 -34.81152,32.49405 -38.17465,47.24743 M 177.59568,945 l -38.54101,10e-6 m 37.12111,-15.00002 -36.17578,2e-5 m 36.20703,-15 L 140,914.99999 M 178.03906,900.00001 140,900.00002 m 41.58201,-15.00004 -41.58203,10e-6 m 47.125,-15.00002 -47.12499,3e-5 m 54.60742,-15.00001 -54.60742,-2e-5 M 204.60937,840 140,840.00003 m 77.78129,-15.00002 -77.78126,2e-5 m 93.26363,-15.00001 -93.26367,-3e-5 M 222.86525,795.00001 140,794.99998 m 80.21681,-14.99996 -80.2168,2e-5 m 81.7617,-15.00006 -81.76171,3e-5 m 86.44727,-15.00002 H 140 m 319.99999,194.99999 h -5.82617 M 460,930 h -4.40625 M 460,915 h -4.43555 m 4.43554,-15.00001 h -6.27148 m 6.27148,-15 h -9.8125 M 460,870.00001 H 444.66211 M 460,854.99999 h -22.81055 m 22.81054,-15 h -32.8125 m 32.81252,-14.99998 -46.00586,10e-6 M 460,810 l -63.17383,-10e-6 M 460,795.00001 H 407.11524 M 460,780 H 409.7832 M 460,765 H 408.23828 M 460,749.99999 H 403.55273 M 1300,1040 h -41.5703 M 1245,830 1300.0002,811.6666 M 865.53857,536.83251 c 25.59043,3.75924 49.27112,-7.0426 49.10581,-33.28388 -0.15063,-23.91156 -23.26763,-33.14341 -37.8994,-27.02609 m 9.14835,61.48859 c 25.59043,3.75924 49.27112,-7.0426 49.10581,-33.28388 -0.14584,-23.15041 -21.81918,-32.5408 -36.47735,-27.56363 m 7.37154,60.84751 c 25.59043,3.75924 49.27112,-7.0426 49.10581,-33.28388 -0.15063,-23.91156 -23.26763,-33.14341 -37.8994,-27.02609 m 3.79359,60.30997 c 25.59043,3.75924 49.27112,-7.0426 49.10581,-33.28388 -0.14389,-22.84129 -21.24423,-32.28757 -35.88649,-27.75532 m 6.78068,61.0392 c 25.59043,3.75924 49.27112,-7.0426 49.10581,-33.28388 -0.15063,-23.91156 -23.26763,-33.14341 -37.8994,-27.02609 m 8.79359,60.30997 c 25.59043,3.75924 49.27107,-7.0426 49.10577,-33.28388 -0.1506,-23.91156 -23.26759,-33.14341 -37.89936,-27.02609 m 8.79363,60.30999 c 25.59043,3.75924 49.27103,-7.0426 49.10573,-33.28388 -0.1506,-23.91156 -23.2676,-33.14341 -37.89932,-27.02609 M 754.93884,214.82768 c 58.34598,120.26296 27.10929,213.5326 28.09459,252.46562 C 785,545 895,560 894.64438,503.54863 894.4239,468.54933 845,465 845,495 c -0.58884,16.60389 31.33307,20.56835 25,0 M 772.97952,215.89263 c 58.23362,119.78121 37.19917,213.16303 38.18157,251.98122 0.81966,32.38769 23.43213,43.3432 49.50304,41.01851 M 791.0011,216.95348 c 57.74588,119.2716 39.18049,212.21686 40.15999,250.92037 0.41416,16.36491 6.39223,27.25797 15.56903,33.73083 M 811.03389,218.61719 c 47.4415,81.93703 34.36333,176.1067 41.47193,260.64511 M 830.07499,220.3536 C 877.7565,299.70708 867.69409,390.71711 880.00466,475 M 848.35018,222.12381 c 45.91566,80.08836 39.24698,178.27929 59.15331,252.77829 M 867.12958,224.32371 c 44.88881,80.25279 39.31817,181.40196 67.87275,251.10903 M 886.0729,226.53891 c 44.62204,81.12034 39.36932,189.0492 76.42826,250.11804 M 897.635,216.50054 C 949.20935,300.1396 951.802,432.02725 990,475 M 774.52433,561.15249 C 804.21197,565.21383 839.25108,548.55039 845,537.05255 M 755,215 C 846.36834,433.50932 720.99414,442.80052 724.06221,515.88799 724.90768,536.02872 735,545 748.28541,549.57549 m 31.67026,-1.19406 c 21.55339,5.2519 48.55985,-2.60008 66.06711,-11.30103 M 790.4446,381.67337 c -9.30199,47.9588 -51.77834,73.17291 -48.8776,123.23963 0.65368,11.28245 7.62039,16.12057 11.39398,23.11384 m 36.73587,-131.54545 c -10.50178,31.11022 -33.46367,50.38317 -31.00179,92.87516 3.09931,53.494 45.33224,53.9396 77.63334,45.16281 M 788.24973,411.56204 c -8.79545,19.55292 -20.03258,35.14107 -18.1033,68.4404 2.59497,44.78898 31.60605,55.44215 59.93823,52.57176 M 700,505 c -4.57903,71.22644 80,80 80,40 0,-30 -50,-20 -30,5 m -67,-39 c 0,30 24.83261,77.83522 51.12918,54.58055 M 666,517 c 0,35 22.57543,70.89552 49.35562,55.67781 M 649,523 c 0,30 16,62 46.42097,53.22644 M 632,529 c 5,30 13,56 45.45288,49.03343 M 615,535 c 10,30 15,40 39.61549,43.9696 M 575,535 c -10,23.79694 -15.38451,26.85119 -40,30 m 23,-34.75939 C 553,554.03755 542.45288,565.52611 510,560 m 31,-34.51878 C 541,549.27816 510.42097,566.95947 480,560 m 27,-44.03756 c 0,23.79694 -28.11668,58.86778 -54.41325,40.42145 M 490,511.20305 C 500,566.72925 395,570 393.91626,525.21282 392.94313,484.99717 450,490 450,520 c 0,23.64294 -40.81764,30.22444 -40,5 0.2664,-8.21842 10,-15 20,-10 m 135,40 c 20,25 50,5 50,-20 m -91,-14.27817 c 0,20.17139 -20.53415,37.88267 -45.31856,38.57265 M 463.46556,224.87042 C 451.46332,265.44226 470,272.05028 470,325 c 0,55 -65,45 -65,5 0,-30 40,-25 40,0 0,18.40484 -30,20 -30,5 0,-15 15,-10 15,-10 m 26.51336,-100.17164 c -14.60221,44.60824 -6.85552,72.64285 -11.6423,107.21465 m -15.18746,78.64924 c 0,0 -15,-5 -15,10 0,15 30,13.40484 30,-5 0,-25 -44.10509,-30.41051 -44.10509,-0.41051 0,40 64.42149,44.71826 65,-5 C 465.87713,384.61802 460,380 466.73615,342.63806 450,370 466.90016,406.04789 444.10509,420.41051 M 465,405 c 18.91733,89.45692 2.8301,125.09854 -30,135 m 30,-265 c 0,0 20,-20 40,-20 20,0 27.54291,6.06121 32.53695,6.30542 C 543.0607,261.57553 550,255 555,250 v 10 c 0,0 -12.05255,4.66338 -17.05255,4.66338 -5,0 -26.04445,-5.80813 -34.17898,-6.30542 C 499.79535,258.11507 471.5435,266.39488 465,275 m 275,10 c 0,0 -32.9064,-33.28407 -52.9064,-33.28407 -20,0 -49.29989,8.52426 -54.29393,8.76847 C 627.27592,260.75451 615,260 610,250 v 10 c 0,0 17.38917,3.84236 22.38917,3.84236 5,0 50.16607,-9.23425 55.93596,-8.76847 C 704.21011,256.35623 733.4565,276.39488 740,285 M 555,260 c 0,0 15,15 15,20 0,20 -11.71593,30.41051 -11.71593,50.41051 0,20 -13.28407,59.58949 -12.87356,68.28407 C 545.64632,403.68902 560,410 565,410 c 5,0 5,20 5,20 m 35,-55 c 25,5 28.97367,36.32456 10,30 -45,-15 -45,10 -12.53695,-2.46305 M 530,460 v 10 l 5,-5 -5,-5 v 0 m 115,0 v 10 l -5,-5 5,-5 v 0 m -110,5 c 10,0 15,-10 25,-10 10,0 15,5 20,5 5,0 16.56814,-7.12644 21.56814,-7.12644 C 606.56814,452.87356 625,465 640,465 m -75,20 c 5.86123,12.36016 30,15 35,0 M 470,310 c 10,-5 20,-10 35.74713,-9.17898 C 521.53707,301.64427 535,325 550,325 c -25,0 -30,10 -45,10 -15,0 -25,-5 -35,-10 m 150,-10 c 0,0 20,-20 35,-20 15,0 50,20 60,20 -22.34673,-0.0507 -44.76433,15 -60,15 -20,0 -35,-15 -35,-15 M 495,430 c 5.81906,1.43908 15,-12.65844 0,-12.44589 -22.65292,0.321 -14.29708,33.46885 9.46432,33.43195 C 519.0676,450.96337 535,432.09863 550,430 v -10 c -30,10 -25,25 -45,30 m 185,-15 c -12.38091,-5 -19.67266,-21.47102 2.42784,-23.21688 C 715,410 710,450 667.29664,450.98606 645.72037,451.48428 632.31731,430 600,430 v -10 c 52.09763,5 36.9472,25 66.50496,30 m 91.34216,550 A 107.84712,96.547858 0 0 1 650,1096.5478 107.84712,96.547858 0 0 1 542.15288,1000 107.84712,96.547858 0 0 1 650,903.45216 107.84712,96.547858 0 0 1 757.84712,1000 v 0 M 533.14918,565.48022 c 44.80084,97.37577 70.461,213.43828 91.43118,340.76095 M 721.07031,752.72461 738.1827,944.621 m -92.64401,-225.88465 7.24869,184.84176 M 551.9629,960.00004 435.61326,960 m 370.64843,-3e-5 -58.25193,3e-5 m -0.002,-0.005 59.20999,-37.00622 M 201.98585,621.1053 c 182.60583,10.65772 322.19078,96.3116 373.56283,309.0787 M 754.22736,975 h 51.21992 m -312.94807,0 h 52.34563"
             id="path1078" /></symbol><symbol
           id="CK6"
           preserveAspectRatio="none"
           viewBox="0 0 1300 2000"><path
             stroke="#4444ff"
             stroke-linecap="round"
             stroke-linejoin="round"
             stroke-width="3"
             fill="none"
             d="m 1205,585.2246 v -84.22071 m 0,163.06055 V 585.2246 m 0,150.84375 v -72.00391 m 0,-187.33593 V 140 m 30,728.53708 V 170 m -10,692.94531 V 160 m -10,696.56639 V 150 m -10,699.23239 v -52.50778 m -10,-566.68945 v -11.12303 m 0,66.79882 v -55.67579 m 0,140.15041 10e-5,-27.11328 M 1195,440.06642 v -69.88085 m 5.5583,533.91952 c 3.8869,4.86144 4.6037,9.57234 2.4856,23.82416 M 1205,935 c 3.8869,4.86144 6.7076,14.03225 2.537,24.38423 m -4.127,-1.19844 c 3.8869,4.86144 4.6551,15.26378 0.8949,23.76847 m -4.4581,7.87357 c 3.8869,4.86144 3.6288,14.44277 0.074,22.53697 M 1240,907.2578 c 1.2762,3.84382 1.458,7.24986 0,10 m 0.6155,21.96069 c 1.2762,3.84382 1.458,7.24986 0,10 m -2.463,18.28407 c 1.2762,3.84382 1.458,7.24986 0,10 m -1.5105,16.67642 c 1.2762,3.84382 1.458,7.24992 0,10.00002 m -42.7929,-64.73731 C 1177.1346,940 1180,970 1180,970 M 480,305 c 5,-10 19.18861,-20 35,-20 15,0 30,20 30,20 m 85,2.10925 c 0,0 15.59102,-23.50547 32.587,-23.70125 16.86922,-0.19431 30.73329,9.62285 34.403,15.199 M 620,315 c 5,15 14.81085,31.86678 40,30 M 470,325 c -3.26385,17.63806 35,25 35,25 m 13.89909,-44.17502 c 0.71086,2.40791 1.10092,5.02743 1.10092,7.76715 0,11.82324 -7.26432,21.40787 -16.22532,21.40787 -8.961,0 -16.22533,-9.58463 -16.22533,-21.40787 0,-4.15742 0.8982,-8.03805 2.45252,-11.32251 M 668.2595,297.6412 c 1.51174,3.25287 2.38331,7.07961 2.38331,11.17494 0,11.82324 -7.26432,21.40787 -16.22532,21.40787 -8.961,0 -16.22533,-9.58463 -16.22533,-21.40787 0,-3.67918 0.70344,-7.14158 1.94254,-10.16585 M 560,515 c 15,-10 35,-5 40,0"
             id="path1081" /><use
             xlink:href="#C"
             height="90"
             width="90"
             transform="matrix(0.9961947,0.08471538,-0.08715574,0.96830125,852.09325,811.61425)"
             id="use1083"
             x="0"
             y="0" /><use
             xlink:href="#C"
             height="90"
             width="90"
             transform="matrix(0.96592583,0.25157211,-0.25881905,0.9388799,895.18019,667.42966)"
             id="use1085"
             x="0"
             y="0" /><use
             xlink:href="#C"
             height="90"
             width="90"
             transform="matrix(0.90630779,0.41078495,-0.42261826,0.88093117,970.23397,542.87277)"
             id="use1087"
             x="0"
             y="0" /></symbol><rect
           width="239"
           height="335"
           x="-119.5"
           y="-167.5"
           rx="12"
           ry="12"
           fill="#ffffff"
           stroke="#000000"
           id="rect1090" /><use
           width="164.8"
           height="260.79999"
           x="-82.400002"
           y="-130.39999"
           xlink:href="#CK1"
           id="use1092" /><use
           transform="scale(-1)"
           width="164.8"
           height="260.79999"
           x="-82.400002"
           y="-130.39999"
           xlink:href="#CK1"
           id="use1094" /><use
           width="164.8"
           height="260.79999"
           x="-82.400002"
           y="-130.39999"
           xlink:href="#CK2"
           id="use1096" /><use
           transform="scale(-1)"
           width="164.8"
           height="260.79999"
           x="-82.400002"
           y="-130.39999"
           xlink:href="#CK2"
           id="use1098" /><use
           width="164.8"
           height="260.79999"
           x="-82.400002"
           y="-130.39999"
           xlink:href="#CK3"
           id="use1100" /><use
           transform="scale(-1)"
           width="164.8"
           height="260.79999"
           x="-82.400002"
           y="-130.39999"
           xlink:href="#CK3"
           id="use1102" /><use
           width="164.8"
           height="260.79999"
           x="-82.400002"
           y="-130.39999"
           xlink:href="#CK4"
           id="use1104" /><use
           transform="scale(-1)"
           width="164.8"
           height="260.79999"
           x="-82.400002"
           y="-130.39999"
           xlink:href="#CK4"
           id="use1106" /><use
           width="164.8"
           height="260.79999"
           x="-82.400002"
           y="-130.39999"
           xlink:href="#CK5"
           id="use1108" /><use
           transform="scale(-1)"
           width="164.8"
           height="260.79999"
           x="-82.400002"
           y="-130.39999"
           xlink:href="#CK5"
           id="use1110" /><use
           width="164.8"
           height="260.79999"
           x="-82.400002"
           y="-130.39999"
           xlink:href="#CK6"
           id="use1112" /><use
           transform="scale(-1)"
           width="164.8"
           height="260.79999"
           x="-82.400002"
           y="-130.39999"
           xlink:href="#CK6"
           id="use1114" /><use
           xlink:href="#CK"
           height="32"
           width="32"
           x="-114.4"
           y="-156"
           id="use1116" /><use
           xlink:href="#C"
           height="26.768999"
           width="26.768999"
           x="-111.784"
           y="-119"
           id="use1118" /><use
           xlink:href="#C"
           height="55.68"
           width="55.68"
           x="-86.595001"
           y="-132.16"
           id="use1120" /><g
           transform="scale(-1)"
           id="g1128"><use
             xlink:href="#CK"
             height="32"
             width="32"
             x="-114.4"
             y="-156"
             id="use1122" /><use
             xlink:href="#C"
             height="26.768999"
             width="26.768999"
             x="-111.784"
             y="-119"
             id="use1124" /><use
             xlink:href="#C"
             height="55.68"
             width="55.68"
             x="-86.595001"
             y="-132.16"
             id="use1126" /></g><use
           xlink:href="#CKX"
           stroke="#4444ff"
           fill="none"
           id="use1130"
           x="0"
           y="0"
           width="100%"
           height="100%" /></g></g><g
       id="g1349"
       transform="rotate(24.103344,343.06867,157.13947)"
       style="display:inline"><g
         id="g1260"
         transform="matrix(0.26458333,0,0,0.26458333,122.54536,150.95328)"
         clip-path="url(#clipPath1557)"><symbol
           id="HA"
           viewBox="-500 -500 1000 1000"
           preserveAspectRatio="xMinYMid"><path
             d="m -270,460 h 160 M -200,450 0,-460 200,450 m -90,10 H 270 M -120,130 h 240"
             stroke="#ff0000"
             stroke-width="80"
             stroke-linecap="square"
             stroke-miterlimit="1.5"
             fill="none"
             id="path1221" /></symbol><symbol
           id="H"
           viewBox="-600 -600 1200 1200"
           preserveAspectRatio="xMinYMid"><path
             d="m 0,-300 c 0,-100 100,-200 200,-200 100,0 200,100 200,250 C 400,0 0,400 0,500 0,400 -400,0 -400,-250 c 0,-150 100,-250 200,-250 100,0 200,100 200,200 z"
             fill="#ff0000"
             id="path1224" /></symbol><g
           id="g1537"><rect
             width="239"
             height="335"
             x="-119.5"
             y="-167.5"
             rx="12"
             ry="12"
             fill="#ffffff"
             stroke="#000000"
             id="rect1227" /></g><use
           xlink:href="#H"
           height="70"
           width="70"
           x="-35"
           y="-35"
           id="use1229" /><use
           xlink:href="#HA"
           height="32"
           width="32"
           x="-114.4"
           y="-156"
           id="use1231" /><use
           xlink:href="#H"
           height="26.768999"
           width="26.768999"
           x="-111.784"
           y="-119"
           id="use1233" /><g
           transform="scale(-1)"
           id="g1239"><use
             xlink:href="#HA"
             height="32"
             width="32"
             x="-114.4"
             y="-156"
             id="use1235" /><use
             xlink:href="#H"
             height="26.768999"
             width="26.768999"
             x="-111.784"
             y="-119"
             id="use1237" /></g></g></g></g><g
     inkscape:groupmode="layer"
     id="layer2"
     inkscape:label="backdropForTitle"><path
       id="rect1374"
       style="opacity:0.998;fill:#005c00;fill-opacity:1;fill-rule:evenodd;stroke:#b8ffb8;stroke-width:2.24044;stroke-linecap:butt;stroke-linejoin:miter;stroke-miterlimit:4;stroke-dasharray:none;stroke-opacity:1;paint-order:stroke markers fill;filter:url(#filter101)"
       d="m 18.122048,58.674761 c 47.115729,-12.55894 97.156192,-12.597529 144.301682,-0.05603 2.12885,0.566309 3.42566,2.502427 2.91576,4.306465 l -14.0424,49.681968 c -0.5099,1.80403 -2.2614,2.87279 -3.93531,2.42377 -37.07033,-9.94397 -77.062326,-9.90675 -114.156254,0.0519 -1.67497,0.44968 -3.427818,-0.61857 -3.938268,-2.42246 L 15.209777,62.982261 c -0.510452,-1.803899 0.784769,-3.740403 2.912271,-4.3075 z"
       inkscape:path-effect="#path-effect1544"
       inkscape:original-d="M 25.842617,58.595498 H 154.90917 c 1.94266,0 3.50661,1.509253 3.50661,3.383976 v 51.628566 c 0,1.87472 -1.56395,3.38397 -3.50661,3.38397 H 25.842617 c -1.942659,0 -3.506605,-1.50925 -3.506605,-3.38397 V 61.979474 c 0,-1.874723 1.563946,-3.383976 3.506605,-3.383976 z"
       class="UnoptimicedTransforms"
       transform="matrix(1.1896673,0,0,0.99697074,-7.5004262,-6.9436423)" /><g
       id="layer4"
       inkscape:label="topGrey"
       transform="translate(62.679901,105.41285)"><ellipse
         style="fill:url(#linearGradient8);fill-opacity:1;fill-rule:evenodd;stroke:#000000;stroke-width:0.649088;stroke-miterlimit:4;stroke-dasharray:none;stroke-opacity:1"
         id="path975"
         cx="35.995258"
         cy="29.892904"
         rx="36.38718"
         ry="19.162954"
         transform="matrix(0.99998788,-0.00492352,0.02407087,0.99971025,0,0)" /></g><g
       id="layer2-4"
       inkscape:label="bottomRed"
       transform="translate(62.679901,105.41285)"
       style="fill:#db0000;fill-opacity:1"><ellipse
         style="fill:#db0000;fill-opacity:1;fill-rule:evenodd;stroke:#000000;stroke-width:0.659048;stroke-miterlimit:4;stroke-dasharray:none;stroke-opacity:1"
         id="path833-1"
         ry="13.590925"
         rx="28.148294"
         cy="26.932362"
         cx="36.78743"
         transform="rotate(-0.64002041)" /></g><g
       id="layer3-7"
       inkscape:label="middleRed"
       transform="translate(62.679901,105.41285)"
       style="fill:#e50000;fill-opacity:1"><rect
         style="fill:#db0000;fill-opacity:1;fill-rule:evenodd;stroke:none;stroke-width:0.396046;stroke-linecap:round;stroke-linejoin:round;stroke-miterlimit:4;stroke-dasharray:none;stroke-opacity:1;paint-order:normal"
         id="rect964"
         width="56.358162"
         height="15.18919"
         x="8.5725098"
         y="13.124323"
         ry="3.0588806"
         transform="rotate(-0.64002041)" /></g><g
       inkscape:label="topRed"
       id="layer1-9"
       transform="translate(62.679901,105.41285)"><ellipse
         style="fill:#ff0000;fill-rule:evenodd;stroke:#000000;stroke-width:1;stroke-linecap:round;stroke-linejoin:round;stroke-miterlimit:4;stroke-dasharray:none;stroke-opacity:1;paint-order:stroke fill markers"
         id="path833-11"
         cx="36.751579"
         cy="13.124323"
         rx="28.179081"
         ry="12.209587"
         transform="rotate(-0.64002041)" /><path
         style="fill:none;stroke:#000000;stroke-width:0.60533;stroke-linecap:round;stroke-linejoin:bevel;stroke-miterlimit:4;stroke-dasharray:none;stroke-opacity:1;paint-order:normal"
         d="m 8.4479528,13.480249 0.423207,13.075228"
         id="path948" /><path
         style="fill:none;stroke:#000000;stroke-width:0.522;stroke-linecap:round;stroke-linejoin:bevel;stroke-miterlimit:4;stroke-dasharray:none;stroke-opacity:1;paint-order:stroke fill markers"
         d="m 65.230912,13.628973 -0.039,13.304833"
         id="path950" /><g
         id="g1028"
         transform="matrix(0.06881154,0,0,0.06881154,17.888553,-4.7680205)"><path
           style="fill:#fff3de"
           d="m 440.807,190.135 c 4.389,-2.282 8.511,-5.259 12.195,-8.943 0.474,-0.474 0.937,-0.955 1.387,-1.444 27.886,-30.192 -15.993,-74.071 -46.185,-46.185 -0.488,0.451 -0.969,0.913 -1.444,1.387 -10.827,10.827 -15.595,25.414 -14.315,39.558 17.551,1.34 34.028,6.852 48.362,15.627 z"
           id="path980" /><path
           style="fill:#fae2c0"
           d="m 412.862,129.893 c 19.087,7.669 31.349,33.083 13.264,52.734 5.096,2.137 10.004,4.645 14.681,7.508 4.389,-2.282 8.511,-5.259 12.195,-8.943 0.474,-0.474 0.937,-0.955 1.387,-1.444 26.482,-28.672 -11.751,-69.676 -41.527,-49.855 z"
           id="path982" /><path
           style="fill:none;stroke:#000000;stroke-width:15;stroke-linecap:round;stroke-linejoin:round;stroke-miterlimit:10"
           d="m 441.801,189.605 c 4.018,-2.207 7.797,-5.008 11.202,-8.413 0.474,-0.474 0.937,-0.955 1.387,-1.444 27.886,-30.192 -15.993,-74.071 -46.185,-46.185 -0.488,0.451 -0.969,0.913 -1.444,1.387 -10.566,10.566 -15.358,24.712 -14.394,38.532 18.05,1.354 34.88,7.078 49.434,16.123 z"
           id="path984" /><path
           style="fill:#fae2c0"
           d="m 491.908,263.415 c -9.113,-51.297 -53.929,-90.248 -107.843,-90.248 -4.433,0 -8.801,0.273 -13.095,0.785 -0.21,-0.347 -0.426,-0.69 -0.639,-1.036 0.796,-13.64 -3.991,-27.544 -14.412,-37.966 -0.604,-0.604 -1.22,-1.19 -1.847,-1.756 -10.161,-9.178 -21.594,-10.583 -31.382,-7.259 -21.029,-12.569 -45.618,-19.798 -71.898,-19.798 v 0 c -67.11,0 -126.615,43.141 -147.482,106.924 l -22.784,69.642 h 194.004 116.621 84.403 c 10.235,0 18.145,-9.208 16.354,-19.288 z"
           id="path986" /><g
           id="g990"><path
             style="fill:#fed2a4"
             d="m 491.908,263.415 c -9.113,-51.297 -53.929,-90.248 -107.843,-90.248 -3.338,0 -6.639,0.156 -9.9,0.451 46.023,7.669 82.433,43.75 90.579,89.61 1.808,10.178 -6.178,19.476 -16.515,19.476 h 27.323 c 10.237,-0.001 18.147,-9.209 16.356,-19.289 z"
             id="path988" /></g><path
           style="fill:none;stroke:#000000;stroke-width:15;stroke-linecap:round;stroke-linejoin:round;stroke-miterlimit:10"
           d="m 417,282.703 h 53.736 c -7.493,0 -13.624,-6.131 -13.624,-13.624 0,-7.493 6.131,-13.624 13.624,-13.624 h 19.442 c -12.113,-47.312 -55.026,-82.288 -106.114,-82.288 -4.433,0 -8.801,0.273 -13.095,0.785 -0.21,-0.347 -0.426,-0.69 -0.639,-1.036 0.796,-13.64 -3.991,-27.544 -14.412,-37.966 -0.604,-0.604 -1.22,-1.19 -1.847,-1.756 -10.161,-9.177 -21.594,-10.583 -31.382,-7.259 -21.029,-12.569 -45.618,-19.799 -71.898,-19.799 v 0 c -36.371,0 -70.504,12.676 -97.467,34.437"
           id="path992" /><path
           style="fill:none;stroke:#000000;stroke-width:15;stroke-linecap:round;stroke-linejoin:round;stroke-miterlimit:10"
           d="m 128.736,165.485 c -10.978,13.977 -19.674,29.99 -25.428,47.576 L 80.524,282.703 H 382"
           id="path994" /><path
           style="fill:none;stroke:#000000;stroke-width:15;stroke-linecap:round;stroke-linejoin:round;stroke-miterlimit:10"
           d="m 354.071,133.194 c -31.117,-28.106 -74.183,16.654 -45.308,47.059 0.3,0.316 0.604,0.628 0.914,0.938 4.253,4.254 9.088,7.572 14.247,9.956 -4.747,3.124 -9.236,6.608 -13.43,10.412"
           id="path996" /><path
           style="fill:none;stroke:#000000;stroke-width:15;stroke-linecap:round;stroke-linejoin:round;stroke-miterlimit:10"
           d="M 292,282.703 H 43.467 C 23.603,282.703 7.5,298.806 7.5,318.67 v 0 c 0,19.864 16.103,35.967 35.967,35.967 H 91"
           id="path998" /><path
           style="fill:none;stroke:#000000;stroke-width:15;stroke-linecap:round;stroke-linejoin:round;stroke-miterlimit:10"
           d="m 126,354.637 h 103.297 c 14.146,0 25.613,11.467 25.613,25.613 v 0 c 0,14.146 -11.467,25.613 -25.613,25.613 h -27.793"
           id="path1000" /><path
           style="fill:#fae2c0"
           d="m 147.009,245.646 h 50.136 c 20.466,0 37.057,16.591 37.057,37.057 v 0 h -87.193"
           id="path1002" /><path
           style="fill:#fed2a4"
           d="m 197.145,245.646 h -31.009 c 20.466,0 37.057,16.591 37.057,37.057 h 31.009 c 0,-20.466 -16.591,-37.057 -37.057,-37.057 z"
           id="path1004" /><path
           style="fill:#fae2c0"
           d="m 287,245.646 h 35.136 c 20.466,0 37.057,16.591 37.057,37.057 v 0 H 287"
           id="path1006" /><path
           style="fill:#fed2a4"
           d="m 322.136,245.646 h -31.193 c 20.466,0 37.057,16.591 37.057,37.057 h 31.193 c 0,-20.466 -16.591,-37.057 -37.057,-37.057 z"
           id="path1008" /><path
           style="fill:none;stroke:#000000;stroke-width:15;stroke-linecap:round;stroke-linejoin:round;stroke-miterlimit:10"
           d="m 147.009,245.646 h 50.136 c 20.466,0 37.057,16.591 37.057,37.057 v 0 h -87.193"
           id="path1010" /><path
           style="fill:none;stroke:#000000;stroke-width:15;stroke-linecap:round;stroke-linejoin:round;stroke-miterlimit:10"
           d="m 287,245.646 h 35.136 c 20.466,0 37.057,16.591 37.057,37.057 v 0 H 287"
           id="path1012" /><path
           style="fill:#fdb4ba"
           d="m 324.161,145.552 c -5.261,-4.859 -10.937,-7.534 -16.578,-8.487 -9.668,11.366 -12.367,28.529 0.706,42.683 0.451,0.488 0.914,0.969 1.388,1.444 8.044,8.044 18.164,12.745 28.635,14.106 4.62,-16.661 0.391,-35.26 -12.707,-48.358 -0.474,-0.475 -0.955,-0.937 -1.444,-1.388 z"
           id="path1014" /><path
           style="fill:none;stroke:#000000;stroke-width:15;stroke-linecap:round;stroke-linejoin:round;stroke-miterlimit:10"
           d="m 324.161,145.552 c -5.261,-4.859 -10.937,-7.534 -16.578,-8.487 -9.668,11.366 -12.367,28.529 0.706,42.683 0.451,0.488 0.914,0.969 1.388,1.444 8.044,8.044 18.164,12.745 28.635,14.106 4.62,-16.661 0.391,-35.26 -12.707,-48.358 -0.474,-0.475 -0.955,-0.937 -1.444,-1.388 z"
           id="path1016" /><line
           style="fill:none;stroke:#000000;stroke-width:15;stroke-linecap:round;stroke-linejoin:round;stroke-miterlimit:10"
           x1="410.76801"
           y1="228.207"
           x2="410.76801"
           y2="236.927"
           id="line1018" /><line
           style="fill:none;stroke:#000000;stroke-width:15;stroke-linecap:round;stroke-linejoin:round;stroke-miterlimit:10"
           x1="446.73499"
           y1="228.207"
           x2="446.73499"
           y2="236.927"
           id="line1020" /><path
           style="fill:#918291"
           d="m 490.876,282.703 h -20.14 c -7.493,0 -13.624,-6.131 -13.624,-13.624 v 0 c 0,-7.493 6.131,-13.624 13.624,-13.624 h 20.14 c 7.493,0 13.624,6.131 13.624,13.624 v 0 c 0,7.493 -6.131,13.624 -13.624,13.624 z"
           id="path1022" /><path
           style="fill:#7a6d79"
           d="m 490.876,255.455 h -20.14 c -0.061,0 -0.12,0.008 -0.18,0.009 7.41,0.098 13.444,6.182 13.444,13.615 0,7.433 -6.034,13.516 -13.444,13.615 0.061,10e-4 0.119,0.009 0.18,0.009 h 20.14 c 7.493,0 13.624,-6.131 13.624,-13.624 0,-7.493 -6.131,-13.624 -13.624,-13.624 z"
           id="path1024" /><path
           style="fill:none;stroke:#000000;stroke-width:15;stroke-linecap:round;stroke-linejoin:round;stroke-miterlimit:10"
           d="m 490.876,282.703 h -20.14 c -7.493,0 -13.624,-6.131 -13.624,-13.624 v 0 c 0,-7.493 6.131,-13.624 13.624,-13.624 h 20.14 c 7.493,0 13.624,6.131 13.624,13.624 v 0 c 0,7.493 -6.131,13.624 -13.624,13.624 z"
           id="path1026" /></g></g></g><g
     inkscape:groupmode="layer"
     id="layer3"
     inkscape:label="title"><path
       id="path6343"
       style="font-size:31.7499px;line-height:1.25;font-family:Montserrat;-inkscape-font-specification:Montserrat;fill:#b8ffb8;stroke:#005c00;stroke-width:2.27901;stroke-linecap:butt;stroke-linejoin:round;paint-order:stroke fill markers"
       d="m -49.033182,-214.26511 c -1.731773,11.13937 -3.814853,22.2038 -6.24924,33.19327 0.758031,0.18054 1.514393,0.36548 2.269019,0.55483 0.512864,-2.2218 1.011855,-4.44669 1.496973,-6.67467 1.720874,-1.37243 3.469856,-2.7461 5.221096,-4.09751 1.46417,4.569 2.72942,9.11993 3.872296,13.75779 0.902854,0.28344 1.80262,0.57357 2.699172,0.8704 -1.254532,-5.4823 -2.658805,-10.83629 -4.341686,-16.23491 3.206242,-2.52514 6.524634,-5.05207 9.865045,-7.4622 -0.991202,-0.30415 -1.98629,-0.59863 -2.985047,-0.88381 -4.55853,3.21639 -9.151293,6.68207 -13.481376,10.07812 1.573546,-7.49312 2.990687,-15.02107 4.251424,-22.58383 -0.871293,-0.17833 -1.743898,-0.35073 -2.617676,-0.51748 z m -108.853758,2.91619 c -2.15805,0.49257 -3.84586,1.34761 -5.04324,2.5317 -1.20348,1.15349 -1.98138,2.5075 -2.33941,4.04061 -0.34147,1.49623 -0.31837,3.04005 0.0515,4.62552 0.3981,1.70639 0.99134,3.01439 1.759,3.92232 0.784,0.87205 1.67402,1.50069 2.6698,1.89182 1.01848,0.38482 2.08344,0.6313 3.19794,0.74345 1.10825,0.0819 2.21067,0.15693 3.31124,0.22496 1.09989,0.068 2.12321,0.22792 3.06641,0.4741 0.93746,0.21609 1.7382,0.64339 2.40149,1.27589 0.68642,0.62798 1.14791,1.5581 1.39774,2.79023 0.20712,1.02153 0.1787,2.00345 -0.0786,2.95001 -0.23554,0.94136 -0.74902,1.77994 -1.53704,2.52403 -0.77369,0.70887 -1.86047,1.25293 -3.26476,1.64721 -1.46793,0.41216 -2.95221,0.4635 -4.46961,0.14686 -1.50389,-0.35325 -2.79024,-0.94022 -3.86086,-1.7755 -0.0813,0.9604 -0.15698,1.92084 -0.22745,2.88182 1.14364,0.93607 2.5587,1.55346 4.24801,1.87154 1.70227,0.28143 3.36415,0.18433 5.0042,-0.28418 1.89247,-0.54062 3.35323,-1.34377 4.39417,-2.43399 1.05517,-1.12526 1.75635,-2.39434 2.09988,-3.8245 0.33735,-1.46008 0.36681,-2.95111 0.0731,-4.48058 -0.31689,-1.6503 -0.83085,-2.92636 -1.56328,-3.8319 -0.70886,-0.90921 -1.56225,-1.56921 -2.56166,-1.97285 -0.98237,-0.43893 -2.03654,-0.73277 -3.15937,-0.87629 -1.10007,-0.14894 -2.20708,-0.25792 -3.31959,-0.32497 -1.11266,-0.0671 -2.15542,-0.19159 -3.13128,-0.37708 -0.95289,-0.19157 -1.78659,-0.58745 -2.5018,-1.19425 -0.69167,-0.61248 -1.18228,-1.54282 -1.45861,-2.79234 -0.24273,-1.09754 -0.23623,-2.13601 0.0261,-3.1128 0.27907,-1.01339 0.85088,-1.90941 1.7196,-2.67856 0.86842,-0.76889 2.06002,-1.33732 3.56785,-1.68884 1.12489,-0.26224 2.32662,-0.30881 3.59696,-0.13989 1.29418,0.16377 2.55333,0.59722 3.77129,1.29227 0.15933,-0.95373 0.32493,-1.90653 0.49683,-2.85871 -1.14527,-0.68633 -2.46253,-1.13489 -3.94826,-1.33231 -1.49054,-0.2279 -2.95736,-0.1814 -4.38825,0.1452 z m 22.90351,4.08013 c -1.80886,0.24566 -3.37752,0.99299 -4.67846,2.23922 -1.28118,1.21272 -2.18506,2.81215 -2.70333,4.78707 -0.52294,1.94551 -0.5745,4.10667 -0.17122,6.47405 0.40805,2.39538 1.17075,4.4142 2.24531,6.05006 1.07564,1.63751 2.35131,2.82975 3.81591,3.5895 1.48803,0.75636 3.03692,0.98427 4.67074,0.70147 0.10302,-0.0178 0.20495,-0.0376 0.3058,-0.0593 1.37019,-0.29433 2.5408,-0.94688 3.53146,-1.96382 0.92106,-0.95772 1.63495,-2.16987 2.14726,-3.63945 0.51471,4.33592 1.08277,8.66512 1.70417,12.9876 0.74416,-0.11095 1.48901,-0.21701 2.23448,-0.31814 -1.38306,-10.55118 -2.46832,-21.13718 -3.25578,-31.75797 -0.8241,0.0785 -1.64761,0.16112 -2.4705,0.24777 0.12577,1.52577 0.25807,3.05072 0.39691,4.57484 -0.86246,-1.39079 -1.91244,-2.42612 -3.15434,-3.09818 -1.29211,-0.71402 -2.72269,-1.00358 -4.27827,-0.85426 -0.11274,0.0109 -0.22612,0.0241 -0.34014,0.0395 z m 49.149351,-1.89535 c -1.779332,-0.0972 -3.413879,0.34366 -4.882314,1.3111 -1.44403,0.93978 -2.595396,2.27867 -3.45493,4.00653 -0.836351,1.73019 -1.267406,3.72928 -1.317944,6.00297 -0.0505,2.272 0.313229,4.30603 1.059927,6.10483 0.747726,1.77008 1.792225,3.19017 3.128043,4.27329 1.338231,1.05482 2.898856,1.64003 4.7119,1.77113 1.392687,0.1007 2.686201,-0.11246 3.897327,-0.64953 1.232483,-0.53467 2.303847,-1.37089 3.213349,-2.51786 -0.379797,-0.71981 -0.764969,-1.4377 -1.155488,-2.15389 -0.77451,0.95857 -1.653541,1.64341 -2.637936,2.0592 -0.962444,0.41793 -1.976838,0.58688 -3.052701,0.51069 -1.367434,-0.0968 -2.565865,-0.53395 -3.612172,-1.31866 -1.021679,-0.81224 -1.818577,-1.88285 -2.387907,-3.21742 -0.457189,-1.14269 -0.707451,-2.42019 -0.743536,-3.83355 5.150496,0.16878 10.281104,0.51554 15.380894,1.03901 0.01562,-0.16121 0.03118,-0.32244 0.04669,-0.48366 0.04004,-0.17349 0.06747,-0.33357 0.08149,-0.48012 0.221602,-2.31656 0.02124,-4.39196 -0.618895,-6.22405 -0.637295,-1.86021 -1.628841,-3.33045 -2.968942,-4.40126 -1.313408,-1.09785 -2.88319,-1.70019 -4.686855,-1.79875 z m 20.686058,1.96893 c -1.492669,-0.20458 -2.948631,-0.10468 -4.355576,0.29353 -1.404191,0.36882 -2.635105,1.00595 -3.688824,1.9021 0.307989,0.82133 0.611098,1.64387 0.909251,2.46783 0.844488,-0.7359 1.843226,-1.28908 2.995492,-1.65286 1.152074,-0.36373 2.340689,-0.46349 3.556353,-0.29394 0.41808,0.0583 0.807473,0.14417 1.167859,0.25728 0,0 0,0 0,0 1.161466,0.36514 2.02039,1.01151 2.572384,1.93184 0.747709,1.21098 0.963658,2.81307 0.656431,4.79909 -0.07338,0.47433 -0.147407,0.94854 -0.222093,1.42264 -1.333178,-0.23104 -2.670823,-0.45047 -4.012515,-0.65875 -0.589248,-0.091 -1.179015,-0.17967 -1.769283,-0.26599 -1.735821,-0.25384 -3.170139,-0.1277 -4.284065,0.35603 -1.088739,0.45792 -1.917332,1.16248 -2.489752,2.10522 -0.546487,0.91675 -0.884447,1.97554 -1.0237,3.1784 -0.152779,1.31969 -0.03185,2.52408 0.352035,3.61595 0.387653,1.06287 1.013487,1.95192 1.876262,2.67354 0.889143,0.69567 1.971461,1.14363 3.257943,1.3517 0.733121,0.11858 1.422699,0.14061 2.07182,0.0639 0.799561,-0.0939 1.537365,-0.33766 2.215814,-0.73448 0.913243,-0.52193 1.68593,-1.23867 2.314938,-2.15243 -0.215556,1.21735 -0.435464,2.43393 -0.659722,3.64974 0.736933,0.14203 1.472564,0.28806 2.206832,0.43811 0.936091,-4.81187 1.803065,-9.63669 2.600923,-14.47447 0.504466,-3.05881 0.204901,-5.4502 -0.912747,-7.15664 -0.945174,-1.50266 -2.418757,-2.49137 -4.40221,-2.94771 0,0 0,0 0,0 -0.299768,-0.0688 -0.61109,-0.12539 -0.93385,-0.16963 z m -52.958849,-1.55492 c 0.22862,4.47957 0.4993,8.95521 0.81203,13.4269 0.1537,2.19779 0.60373,4.00682 1.31977,5.41979 0.73945,1.41278 1.69127,2.44086 2.85017,3.09279 1.16018,0.65266 2.47417,0.93438 3.95939,0.85951 1.55211,-0.0782 2.88598,-0.594 4.02736,-1.55938 0.93265,-0.798 1.67184,-1.81865 2.21501,-3.06739 0.0155,1.39947 0.0321,2.79891 0.0499,4.19829 0.75682,-0.0123 1.51395,-0.0199 2.27134,-0.0229 -0.005,-7.64768 0.006,-15.2955 0.0323,-22.94346 -0.86886,0.001 -1.73748,0.006 -2.60583,0.0156 0.0175,4.00827 0.0443,8.01618 0.0803,12.02371 0.0157,1.74819 -0.22608,3.25412 -0.7133,4.51629 -0.46445,1.26224 -1.15344,2.23989 -2.06369,2.93846 -0.88897,0.66918 -1.94557,1.02872 -3.18249,1.08743 -1.68557,0.08 -3.03059,-0.44861 -4.05535,-1.61439 -1.00093,-1.19302 -1.59569,-3.02131 -1.74079,-5.47915 -0.25672,-4.34826 -0.47804,-8.69955 -0.66396,-13.05388 -0.86456,0.0496 -1.72865,0.10353 -2.5922,0.16178 z m 32.139346,2.25938 c 1.328739,0.0747 2.4802,0.51612 3.441967,1.31912 0.962098,0.80327 1.678472,1.89019 2.146917,3.25532 0.40141,1.08619 0.589097,2.28224 0.569221,3.58707 -4.372691,-0.39322 -8.766091,-0.66057 -13.173614,-0.8022 0.132282,-1.28325 0.439751,-2.43999 0.931276,-3.4702 0.616497,-1.29214 1.45744,-2.28355 2.523571,-2.96863 1.065542,-0.68469 2.256071,-0.99386 3.560662,-0.92048 z m -48.531556,1.96939 c 0.0526,-0.007 0.10503,-0.014 0.15733,-0.0201 0,0 0,0 0,0 1.27655,-0.14662 2.46142,0.0929 3.54392,0.70805 1.15091,0.63756 2.08674,1.60535 2.81133,2.8964 0.74886,1.28942 1.20639,2.83281 1.39519,4.63493 0.18867,1.80095 0.0645,3.43166 -0.36107,4.8959 -0.40644,1.43202 -1.05812,2.60328 -1.95661,3.51962 -0.84591,0.84911 -1.8489,1.38385 -3.02283,1.60799 0,0 0,0 0,0 -0.0481,0.009 -0.0965,0.0179 -0.14517,0.0261 -1.21521,0.20392 -2.36417,0.0282 -3.45991,-0.53668 -1.09969,-0.59408 -2.05821,-1.51859 -2.86952,-2.77935 -0.81581,-1.28973 -1.38228,-2.84789 -1.67425,-4.67053 -0.29215,-1.82377 -0.23968,-3.47928 0.16624,-4.96124 0.40577,-1.48151 1.08181,-2.69497 2.02412,-3.63517 0.94217,-0.94006 2.07775,-1.50285 3.39123,-1.68594 z m 66.910024,9.8835 c 0.561516,0.084 1.122564,0.17013 1.683127,0.25844 1.328533,0.21036 2.652972,0.43192 3.97292,0.66507 -0.206456,1.27255 -0.417639,2.54426 -0.63355,3.81514 -0.70862,1.455 -1.623339,2.50582 -2.733209,3.15896 -0.591507,0.34282 -1.216987,0.55864 -1.878335,0.64915 -0.550036,0.0758 -1.124657,0.0648 -1.725938,-0.0316 -1.389305,-0.22277 -2.413612,-0.77918 -3.084213,-1.68308 -0.670012,-0.90309 -0.927781,-2.0125 -0.761078,-3.334 0.148215,-1.17494 0.597414,-2.11572 1.361196,-2.82146 0.784767,-0.70095 2.056801,-0.93721 3.79908,-0.67663 z"
       class="UnoptimicedTransforms"
       transform="translate(200.05516,269.08344)"
       inkscape:path-effect="#path-effect7098"
       inkscape:original-d="m -57.664181,-202.09361 v 23.55825 h 2.254126 v -4.75784 l 3.934644,-3.63596 6.733439,8.3938 h 2.762622 l -7.81606,-9.85986 7.117395,-6.80889 h -2.762105 l -9.969935,9.08575 v -15.97525 z m -92.741109,1.14257 c -1.88382,0 -3.42939,0.28581 -4.63589,0.85731 -1.20649,0.55033 -2.10588,1.29126 -2.69855,2.2226 -0.5715,0.91017 -0.85731,1.91568 -0.85731,3.01636 0,1.18534 0.24336,2.14839 0.73019,2.88923 0.508,0.71966 1.16403,1.30164 1.96836,1.74614 0.82549,0.44451 1.72539,0.80436 2.69906,1.07952 0.97365,0.254 1.94708,0.49736 2.92075,0.73019 0.97366,0.23283 1.86269,0.50829 2.66702,0.82579 0.80433,0.29633 1.45,0.709 1.93683,1.23817 0.508,0.52916 0.76223,1.22765 0.76223,2.09548 0,0.71967 -0.21177,1.37569 -0.63511,1.96835 -0.40216,0.59267 -1.04784,1.06902 -1.93683,1.42886 -0.86783,0.33867 -2.00021,0.50798 -3.39721,0.50798 -1.46049,0 -2.85746,-0.25371 -4.19096,-0.76171 -1.31232,-0.52917 -2.36031,-1.17484 -3.14347,-1.93684 l -0.92036,1.80971 c 0.8255,0.84667 1.98947,1.54515 3.49229,2.09548 1.524,0.52917 3.11151,0.79375 4.7625,0.79375 1.905,0 3.46093,-0.27545 4.66742,-0.82579 1.22766,-0.5715 2.1374,-1.31191 2.73006,-2.22209 0.59266,-0.93133 0.88936,-1.93684 0.88936,-3.01635 0,-1.16416 -0.25424,-2.106 -0.76223,-2.82567 -0.48683,-0.71967 -1.14286,-1.29129 -1.96836,-1.71462 -0.80432,-0.4445 -1.69335,-0.80435 -2.66702,-1.07952 -0.9525,-0.27517 -1.91557,-0.5294 -2.88923,-0.76223 -0.97366,-0.23283 -1.87305,-0.49742 -2.69854,-0.79375 -0.80433,-0.29633 -1.46087,-0.709 -1.96887,-1.23817 -0.48683,-0.52917 -0.73019,-1.22764 -0.73019,-2.09547 0,-0.76201 0.20142,-1.43926 0.60358,-2.03192 0.42333,-0.61383 1.06848,-1.10055 1.93632,-1.46038 0.86782,-0.35983 1.96862,-0.54002 3.30212,-0.54002 0.99483,0 2.02158,0.14809 3.07992,0.44442 1.07949,0.29633 2.09537,0.76233 3.04787,1.39733 l 0.79375,-1.87327 c -0.889,-0.61383 -1.94734,-1.09019 -3.175,-1.42885 -1.22766,-0.35984 -2.46567,-0.54002 -3.7145,-0.54002 z m 19.08152,5.58829 c -1.58749,0 -3.01657,0.35985 -4.28656,1.07952 -1.24882,0.6985 -2.23261,1.69314 -2.95227,2.98431 -0.71966,1.27001 -1.07952,2.741 -1.07952,4.41317 0,1.69334 0.35986,3.17521 1.07952,4.44521 0.71966,1.27 1.70345,2.26464 2.95227,2.98431 1.26999,0.71967 2.69907,1.07952 4.28656,1.07952 1.46049,0 2.76219,-0.32775 3.90519,-0.98392 0.99184,-0.57707 1.80634,-1.36246 2.44481,-2.35438 v 9.33949 h 2.25413 v -22.82859 h -2.15904 v 3.27216 c -0.64754,-1.05323 -1.48362,-1.86877 -2.50838,-2.44637 -1.143,-0.65616 -2.45505,-0.98443 -3.93671,-0.98443 z m 42.703339,0 c -1.545158,0 -2.942126,0.37021 -4.190958,1.11104 -1.227658,0.71967 -2.201086,1.71483 -2.920752,2.98483 -0.698493,1.27001 -1.047998,2.73012 -1.047998,4.38113 0,1.651 0.370734,3.12251 1.11156,4.41368 0.740832,1.27 1.767074,2.275 3.079398,3.01584 1.312333,0.71967 2.836673,1.07952 4.572331,1.07952 1.333492,0 2.550275,-0.23247 3.65094,-0.69815 1.121826,-0.46566 2.053312,-1.14291 2.794145,-2.03191 l -1.26969,-1.4609 c -0.634993,0.74083 -1.397166,1.29123 -2.286165,1.65106 -0.867833,0.35984 -1.809675,0.54002 -2.825668,0.54002 -1.291165,0 -2.444778,-0.26457 -3.46077,-0.79375 -0.994833,-0.55033 -1.778236,-1.30214 -2.349728,-2.25464 -0.461477,-0.81647 -0.728543,-1.73728 -0.803052,-2.7621 h 14.011032 v -0.34934 c 0.02113,-0.127 0.03204,-0.2435 0.03204,-0.34933 0,-1.67217 -0.349499,-3.14316 -1.047998,-4.41317 -0.698499,-1.29117 -1.661571,-2.28581 -2.889229,-2.98431 -1.206499,-0.71967 -2.593111,-1.07952 -4.159437,-1.07952 z m 18.066081,0 c -1.312325,0 -2.561209,0.2009 -3.746541,0.60306 -1.185326,0.381 -2.201728,0.93139 -3.048393,1.65106 l 1.016476,1.68311 c 0.677332,-0.59267 1.502675,-1.06903 2.476334,-1.42886 0.973666,-0.35984 2.000423,-0.54002 3.079916,-0.54002 1.566325,0 2.74065,0.38108 3.523815,1.14309 0.804333,0.76199 1.206645,1.85191 1.206645,3.27008 v 1.01648 H -71.3481 c -1.587492,0 -2.857604,0.22212 -3.810103,0.66662 -0.931326,0.42334 -1.608585,0.99496 -2.031917,1.71463 -0.402167,0.6985 -0.603581,1.48137 -0.603581,2.34921 0,0.9525 0.243872,1.79906 0.730705,2.53989 0.486832,0.71968 1.18532,1.29129 2.095479,1.71463 0.931332,0.40217 2.021259,0.60306 3.270085,0.60306 1.587498,0 2.899551,-0.32775 3.93671,-0.98392 0.772627,-0.47903 1.375515,-1.07724 1.809709,-1.79317 v 2.61844 h 2.159041 v -10.35027 c 0,-2.18017 -0.592337,-3.79976 -1.777669,-4.8581 -1.164159,-1.0795 -2.825718,-1.61902 -4.984709,-1.61902 z m -46.0375,0.15864 v 9.68365 c 0,1.58751 0.28582,2.91042 0.85731,3.96875 0.59267,1.05834 1.418,1.85208 2.47634,2.38125 1.05832,0.52917 2.29685,0.79375 3.71502,0.79375 1.48165,0 2.77249,-0.33862 3.87314,-1.01596 0.90002,-0.56039 1.60897,-1.29113 2.12752,-2.19211 v 3.04942 h 2.15904 v -16.66875 h -2.25464 v 8.73125 c 0,1.27 -0.23248,2.36043 -0.69815,3.27061 -0.4445,0.91016 -1.10104,1.60864 -1.96887,2.09548 -0.84666,0.46567 -1.85167,0.69814 -3.01584,0.69814 -1.58749,0 -2.82602,-0.44424 -3.71501,-1.33325 -0.86784,-0.91016 -1.30173,-2.25431 -1.30173,-4.03231 v -9.42992 z m 27.971419,1.77819 c 1.164166,0 2.190923,0.26458 3.079916,0.79375 0.888999,0.52917 1.587486,1.2701 2.095479,2.2226 0.429546,0.75601 0.684462,1.60258 0.765328,2.5399 h -11.877311 c 0.08218,-0.93396 0.324785,-1.78073 0.729671,-2.5399 0.507992,-0.9525 1.217353,-1.69343 2.127519,-2.2226 0.910166,-0.52917 1.936406,-0.79375 3.079398,-0.79375 z m -42.544689,0.0315 c 1.18533,0 2.24367,0.27545 3.175,0.82579 0.9525,0.55034 1.69344,1.31199 2.2226,2.28565 0.55034,0.97367 0.82528,2.10604 0.82528,3.39721 0,1.29117 -0.27494,2.43441 -0.82528,3.42925 -0.52916,0.97366 -1.2701,1.73583 -2.2226,2.28616 -0.93133,0.52918 -1.98967,0.79375 -3.175,0.79375 -1.16416,0 -2.21215,-0.26457 -3.14348,-0.79375 -0.93132,-0.55033 -1.67176,-1.3125 -2.22208,-2.28616 -0.55034,-0.99484 -0.82579,-2.13808 -0.82579,-3.42925 0,-1.29117 0.27545,-2.42354 0.82579,-3.39721 0.55032,-0.97366 1.29076,-1.73531 2.22208,-2.28565 0.93133,-0.55034 1.97932,-0.82579 3.14348,-0.82579 z m 59.880582,7.11223 h 5.23844 v 2.73058 c -0.423333,1.10067 -1.100585,1.94723 -2.031917,2.5399 -0.910159,0.57151 -2.000086,0.85731 -3.270085,0.85731 -1.333492,0 -2.370605,-0.2858 -3.111438,-0.85731 -0.740826,-0.5715 -1.11156,-1.33367 -1.11156,-2.28617 0,-0.84667 0.307048,-1.5555 0.920874,-2.127 0.635,-0.5715 1.757028,-0.85731 3.365686,-0.85731 z" /></g></svg>
