<?xml version="1.0" encoding="UTF-8" standalone="no"?>
<svg
   width="199.3mm"
   height="160mm"
   viewBox="0 0 199.29999 160.00001"
   version="1.1"
   id="svg8"
   inkscape:version="1.4.2 (f4327f4, 2025-05-13)"
   sodipodi:docname="squeakLogoo.svg"
   xml:space="preserve"
   xmlns:inkscape="http://www.inkscape.org/namespaces/inkscape"
   xmlns:sodipodi="http://sodipodi.sourceforge.net/DTD/sodipodi-0.dtd"
   xmlns:xlink="http://www.w3.org/1999/xlink"
   xmlns="http://www.w3.org/2000/svg"
   xmlns:svg="http://www.w3.org/2000/svg"
   xmlns:rdf="http://www.w3.org/1999/02/22-rdf-syntax-ns#"
   xmlns:cc="http://creativecommons.org/ns#"
   xmlns:dc="http://purl.org/dc/elements/1.1/"><defs
     id="defs2"><linearGradient
       id="linearGradient7"
       inkscape:collect="always"><stop
         style="stop-color:#999999;stop-opacity:1;"
         offset="0"
         id="stop7" /><stop
         style="stop-color:#7f7f7f;stop-opacity:1;"
         offset="1"
         id="stop8" /></linearGradient><inkscape:path-effect
       effect="envelope"
       id="path-effect7098"
       is_visible="true"
       lpeversion="1"
       yy="true"
       xx="false"
       bendpath1="m -168.41825,-210.67079 c 39.73784,-11.55176 99.068768,-11.08853 137.297371,0.45626"
       bendpath2="m -41.97935,-202.09361 v 29.71809"
       bendpath3="m -157.53292,-168.09921 c 38.07909,-13.27194 75.58196,-13.58142 115.2863,-0.26727"
       bendpath4="m -159.13654,-202.09361 v 29.71809"
       bendpath1-nodetypes="cc"
       bendpath3-nodetypes="cc" /><inkscape:path-effect
       effect="bend_path"
       id="path-effect1544"
       is_visible="true"
       lpeversion="1"
       bendpath="m 22.336012,87.793749 c 45.718716,-12.91667 91.073768,-12.740959 136.079768,0"
       prop_scale="1"
       scale_y_rel="false"
       vertical="false"
       hide_knot="false"
       bendpath-nodetypes="cc" /><rect
       id="CKX"
       width="164.8"
       height="260.79999"
       x="-82.400002"
       y="-130.39999" /><pattern
       patternUnits="userSpaceOnUse"
       width="337.34936"
       height="392.47447"
       patternTransform="translate(6.1876468e-7,31.898221)"
       id="pattern499"><g
         id="g1292"
         transform="matrix(3.7795276,0,0,3.7795276,-64.812877,-82.574712)"><g
           id="g893"
           transform="matrix(0.26458333,0,0,0.26458333,50.100532,66.72959)"><symbol
             id="D8"
             viewBox="-500 -500 1000 1000"
             preserveAspectRatio="xMinYMid"><path
               d="m -1,-50 a 205,205 0 1 1 2,0 h -2 a 255,255 0 1 0 2,0 z"
               stroke="#ff0000"
               stroke-width="80"
               stroke-linecap="square"
               stroke-miterlimit="1.5"
               fill="none"
               id="path833" /></symbol><symbol
             id="D"
             viewBox="-600 -600 1200 1200"
             preserveAspectRatio="xMinYMid"><path
               d="M -400,0 C -350,0 0,-450 0,-500 0,-450 350,0 400,0 350,0 0,450 0,500 0,450 -350,0 -400,0 Z"
               fill="#ff0000"
               id="path836" /></symbol><rect
             width="239"
             height="335"
             x="-87.865799"
             y="-126.82198"
             rx="12"
             ry="12"
             fill="#ffffff"
             stroke="#000000"
             id="rect839"
             transform="rotate(-21.044013)" /><use
             xlink:href="#D"
             height="70"
             width="70"
             x="-87.500999"
             y="-35"
             id="use841"
             transform="rotate(-21.044013,93.687651,-105.49789)" /><use
             xlink:href="#D"
             height="70"
             width="70"
             x="17.500999"
             y="-35"
             id="use843"
             transform="rotate(-21.044013,93.687651,-105.49789)" /><use
             xlink:href="#D8"
             height="32"
             width="32"
             x="-114.4"
             y="-156"
             id="use845"
             transform="rotate(-21.044013,93.687651,-105.49789)" /><use
             xlink:href="#D"
             height="26.768999"
             width="26.768999"
             x="-111.784"
             y="-119"
             id="use847"
             transform="rotate(-21.044013,93.687651,-105.49789)" /><use
             xlink:href="#D"
             height="70"
             width="70"
             x="-87.500999"
             y="-135.50101"
             id="use849"
             transform="rotate(-21.044013,93.687651,-105.49789)" /><use
             xlink:href="#D"
             height="70"
             width="70"
             x="17.500999"
             y="-135.50101"
             id="use851"
             transform="rotate(-21.044013,93.687651,-105.49789)" /><use
             xlink:href="#D"
             height="70"
             width="70"
             x="-35"
             y="-85.25"
             id="use853"
             transform="rotate(-21.044013,93.687651,-105.49789)" /><g
             transform="rotate(158.95599,19.594794,17.401202)"
             id="g865"><use
               xlink:href="#D8"
               height="32"
               width="32"
               x="-114.4"
               y="-156"
               id="use855" /><use
               xlink:href="#D"
               height="26.768999"
               width="26.768999"
               x="-111.784"
               y="-119"
               id="use857" /><use
               xlink:href="#D"
               height="70"
               width="70"
               x="-87.500999"
               y="-135.50101"
               id="use859" /><use
               xlink:href="#D"
               height="70"
               width="70"
               x="17.500999"
               y="-135.50101"
               id="use861" /><use
               xlink:href="#D"
               height="70"
               width="70"
               x="-35"
               y="-85.25"
               id="use863" /></g></g></g></pattern><clipPath
       clipPathUnits="userSpaceOnUse"
       id="clipPath1557"><rect
         style="fill:#000000;stroke-width:3.77953;stroke-linejoin:round;paint-order:stroke fill markers"
         id="rect1559"
         width="283.85287"
         height="368.70566"
         x="-106.70437"
         y="-243.52045"
         rx="12"
         ry="12"
         transform="rotate(-24.103344)" /></clipPath><linearGradient
       inkscape:collect="always"
       xlink:href="#linearGradient7"
       id="linearGradient8"
       x1="36.886902"
       y1="11.096462"
       x2="35.860302"
       y2="50.564503"
       gradientUnits="userSpaceOnUse" /><clipPath
       clipPathUnits="userSpaceOnUse"
       id="clipPath14"><rect
         style="fill:#000000;stroke:#000000;stroke-width:3.77953;stroke-linejoin:round;paint-order:stroke fill markers"
         id="rect15"
         width="253.54831"
         height="193.9493"
         x="-168.32146"
         y="-198.21651"
         rx="12"
         ry="12"
         transform="rotate(20.774872)" /></clipPath><filter
       style="color-interpolation-filters:sRGB"
       inkscape:label="Drop Shadow"
       id="filter101"
       x="-0.055345986"
       y="-0.12616182"
       width="1.110692"
       height="1.252306"><feFlood
         result="flood"
         in="SourceGraphic"
         flood-opacity="0.498039"
         flood-color="rgb(0,0,0)"
         id="feFlood100" /><feGaussianBlur
         result="blur"
         in="SourceGraphic"
         stdDeviation="3.000000"
         id="feGaussianBlur100" /><feOffset
         result="offset"
         in="blur"
         dx="0.000000"
         dy="0.000000"
         id="feOffset100" /><feComposite
         result="comp1"
         operator="in"
         in="flood"
         in2="offset"
         id="feComposite100" /><feComposite
         result="comp2"
         operator="over"
         in="SourceGraphic"
         in2="comp1"
         id="feComposite101" /></filter></defs><sodipodi:namedview
     id="base"
     pagecolor="#ffffff"
     bordercolor="#666666"
     borderopacity="1.0"
     inkscape:pageopacity="0.0"
     inkscape:pageshadow="2"
     inkscape:zoom="0.7"
     inkscape:cx="399.28571"
     inkscape:cy="412.14286"
     inkscape:document-units="mm"
     inkscape:current-layer="layer1"
     inkscape:document-rotation="0"
     showgrid="false"
     inkscape:object-nodes="false"
     inkscape:snap-nodes="false"
     showguides="true"
     inkscape:guide-bbox="true"
     fit-margin-top="0"
     fit-margin-left="0"
     fit-margin-right="0"
     fit-margin-bottom="0"
     inkscape:window-width="1920"
     inkscape:window-height="1009"
     inkscape:window-x="-8"
     inkscape:window-y="-1"
     inkscape:window-maximized="1"
     inkscape:showpageshadow="2"
     inkscape:pagecheckerboard="0"
     inkscape:deskcolor="#d1d1d1" /><metadata
     id="metadata5"><rdf:RDF><cc:Work
         rdf:about=""><dc:format>image/svg+xml</dc:format><dc:type
           rdf:resource="http://purl.org/dc/dcmitype/StillImage" /></cc:Work></rdf:RDF></metadata><g
     inkscape:label="Layer 1"
     inkscape:groupmode="layer"
     id="layer1" /><g
     inkscape:groupmode="layer"
     id="layer2"
     inkscape:label="backdropForTitle"><path
       id="rect1374"
       style="opacity:0.998;fill:#005c00;fill-opacity:1;fill-rule:evenodd;stroke:#b8ffb8;stroke-width:2.24044;stroke-linecap:butt;stroke-linejoin:miter;stroke-miterlimit:4;stroke-dasharray:none;stroke-opacity:1;paint-order:stroke markers fill;filter:url(#filter101)"
       d="m 18.122048,58.674761 c 47.115729,-12.55894 97.156192,-12.597529 144.301682,-0.05603 2.12885,0.566309 3.42566,2.502427 2.91576,4.306465 l -14.0424,49.681968 c -0.5099,1.80403 -2.2614,2.87279 -3.93531,2.42377 -37.07033,-9.94397 -77.062326,-9.90675 -114.156254,0.0519 -1.67497,0.44968 -3.427818,-0.61857 -3.938268,-2.42246 L 15.209777,62.982261 c -0.510452,-1.803899 0.784769,-3.740403 2.912271,-4.3075 z"
       inkscape:path-effect="#path-effect1544"
       inkscape:original-d="M 25.842617,58.595498 H 154.90917 c 1.94266,0 3.50661,1.509253 3.50661,3.383976 v 51.628566 c 0,1.87472 -1.56395,3.38397 -3.50661,3.38397 H 25.842617 c -1.942659,0 -3.506605,-1.50925 -3.506605,-3.38397 V 61.979474 c 0,-1.874723 1.563946,-3.383976 3.506605,-3.383976 z"
       class="UnoptimicedTransforms"
       transform="matrix(1.1896673,0,0,0.99697074,-7.5004262,-6.9436423)" /><g
       id="layer4"
       inkscape:label="topGrey"
       transform="translate(62.679901,109.513)"><ellipse
         style="fill:url(#linearGradient8);fill-opacity:1;fill-rule:evenodd;stroke:#000000;stroke-width:0.649088;stroke-miterlimit:4;stroke-dasharray:none;stroke-opacity:1"
         id="path975"
         cx="35.995258"
         cy="29.892904"
         rx="36.38718"
         ry="19.162954"
         transform="matrix(0.99998788,-0.00492352,0.02407087,0.99971025,0,0)" /></g><g
       id="layer2-4"
       inkscape:label="bottomRed"
       transform="translate(62.679901,109.513)"
       style="fill:#db0000;fill-opacity:1"><ellipse
         style="fill:#db0000;fill-opacity:1;fill-rule:evenodd;stroke:#000000;stroke-width:0.659048;stroke-miterlimit:4;stroke-dasharray:none;stroke-opacity:1"
         id="path833-1"
         ry="13.590925"
         rx="28.148294"
         cy="26.932362"
         cx="36.78743"
         transform="rotate(-0.64002041)" /></g><g
       id="layer3-7"
       inkscape:label="middleRed"
       transform="translate(62.679901,109.513)"
       style="fill:#e50000;fill-opacity:1"><rect
         style="fill:#db0000;fill-opacity:1;fill-rule:evenodd;stroke:none;stroke-width:0.396046;stroke-linecap:round;stroke-linejoin:round;stroke-miterlimit:4;stroke-dasharray:none;stroke-opacity:1;paint-order:normal"
         id="rect964"
         width="56.358162"
         height="15.18919"
         x="8.5725098"
         y="13.124323"
         ry="3.0588806"
         transform="rotate(-0.64002041)" /></g><g
       inkscape:label="topRed"
       id="layer1-9"
       transform="translate(62.679901,109.513)"><ellipse
         style="fill:#ff0000;fill-rule:evenodd;stroke:#000000;stroke-width:1;stroke-linecap:round;stroke-linejoin:round;stroke-miterlimit:4;stroke-dasharray:none;stroke-opacity:1;paint-order:stroke fill markers"
         id="path833-11"
         cx="36.751579"
         cy="13.124323"
         rx="28.179081"
         ry="12.209587"
         transform="rotate(-0.64002041)" /><path
         style="fill:none;stroke:#000000;stroke-width:0.60533;stroke-linecap:round;stroke-linejoin:bevel;stroke-miterlimit:4;stroke-dasharray:none;stroke-opacity:1;paint-order:normal"
         d="m 8.4479528,13.480249 0.423207,13.075228"
         id="path948" /><path
         style="fill:none;stroke:#000000;stroke-width:0.522;stroke-linecap:round;stroke-linejoin:bevel;stroke-miterlimit:4;stroke-dasharray:none;stroke-opacity:1;paint-order:stroke fill markers"
         d="m 65.230912,13.628973 -0.039,13.304833"
         id="path950" /><g
         id="g1028"
         transform="matrix(0.06881154,0,0,0.06881154,17.888553,-4.7680205)"><path
           style="fill:#fff3de"
           d="m 440.807,190.135 c 4.389,-2.282 8.511,-5.259 12.195,-8.943 0.474,-0.474 0.937,-0.955 1.387,-1.444 27.886,-30.192 -15.993,-74.071 -46.185,-46.185 -0.488,0.451 -0.969,0.913 -1.444,1.387 -10.827,10.827 -15.595,25.414 -14.315,39.558 17.551,1.34 34.028,6.852 48.362,15.627 z"
           id="path980" /><path
           style="fill:#fae2c0"
           d="m 412.862,129.893 c 19.087,7.669 31.349,33.083 13.264,52.734 5.096,2.137 10.004,4.645 14.681,7.508 4.389,-2.282 8.511,-5.259 12.195,-8.943 0.474,-0.474 0.937,-0.955 1.387,-1.444 26.482,-28.672 -11.751,-69.676 -41.527,-49.855 z"
           id="path982" /><path
           style="fill:none;stroke:#000000;stroke-width:15;stroke-linecap:round;stroke-linejoin:round;stroke-miterlimit:10"
           d="m 441.801,189.605 c 4.018,-2.207 7.797,-5.008 11.202,-8.413 0.474,-0.474 0.937,-0.955 1.387,-1.444 27.886,-30.192 -15.993,-74.071 -46.185,-46.185 -0.488,0.451 -0.969,0.913 -1.444,1.387 -10.566,10.566 -15.358,24.712 -14.394,38.532 18.05,1.354 34.88,7.078 49.434,16.123 z"
           id="path984" /><path
           style="fill:#fae2c0"
           d="m 491.908,263.415 c -9.113,-51.297 -53.929,-90.248 -107.843,-90.248 -4.433,0 -8.801,0.273 -13.095,0.785 -0.21,-0.347 -0.426,-0.69 -0.639,-1.036 0.796,-13.64 -3.991,-27.544 -14.412,-37.966 -0.604,-0.604 -1.22,-1.19 -1.847,-1.756 -10.161,-9.178 -21.594,-10.583 -31.382,-7.259 -21.029,-12.569 -45.618,-19.798 -71.898,-19.798 v 0 c -67.11,0 -126.615,43.141 -147.482,106.924 l -22.784,69.642 h 194.004 116.621 84.403 c 10.235,0 18.145,-9.208 16.354,-19.288 z"
           id="path986" /><g
           id="g990"><path
             style="fill:#fed2a4"
             d="m 491.908,263.415 c -9.113,-51.297 -53.929,-90.248 -107.843,-90.248 -3.338,0 -6.639,0.156 -9.9,0.451 46.023,7.669 82.433,43.75 90.579,89.61 1.808,10.178 -6.178,19.476 -16.515,19.476 h 27.323 c 10.237,-0.001 18.147,-9.209 16.356,-19.289 z"
             id="path988" /></g><path
           style="fill:none;stroke:#000000;stroke-width:15;stroke-linecap:round;stroke-linejoin:round;stroke-miterlimit:10"
           d="m 417,282.703 h 53.736 c -7.493,0 -13.624,-6.131 -13.624,-13.624 0,-7.493 6.131,-13.624 13.624,-13.624 h 19.442 c -12.113,-47.312 -55.026,-82.288 -106.114,-82.288 -4.433,0 -8.801,0.273 -13.095,0.785 -0.21,-0.347 -0.426,-0.69 -0.639,-1.036 0.796,-13.64 -3.991,-27.544 -14.412,-37.966 -0.604,-0.604 -1.22,-1.19 -1.847,-1.756 -10.161,-9.177 -21.594,-10.583 -31.382,-7.259 -21.029,-12.569 -45.618,-19.799 -71.898,-19.799 v 0 c -36.371,0 -70.504,12.676 -97.467,34.437"
           id="path992" /><path
           style="fill:none;stroke:#000000;stroke-width:15;stroke-linecap:round;stroke-linejoin:round;stroke-miterlimit:10"
           d="m 128.736,165.485 c -10.978,13.977 -19.674,29.99 -25.428,47.576 L 80.524,282.703 H 382"
           id="path994" /><path
           style="fill:none;stroke:#000000;stroke-width:15;stroke-linecap:round;stroke-linejoin:round;stroke-miterlimit:10"
           d="m 354.071,133.194 c -31.117,-28.106 -74.183,16.654 -45.308,47.059 0.3,0.316 0.604,0.628 0.914,0.938 4.253,4.254 9.088,7.572 14.247,9.956 -4.747,3.124 -9.236,6.608 -13.43,10.412"
           id="path996" /><path
           style="fill:none;stroke:#000000;stroke-width:15;stroke-linecap:round;stroke-linejoin:round;stroke-miterlimit:10"
           d="M 292,282.703 H 43.467 C 23.603,282.703 7.5,298.806 7.5,318.67 v 0 c 0,19.864 16.103,35.967 35.967,35.967 H 91"
           id="path998" /><path
           style="fill:none;stroke:#000000;stroke-width:15;stroke-linecap:round;stroke-linejoin:round;stroke-miterlimit:10"
           d="m 126,354.637 h 103.297 c 14.146,0 25.613,11.467 25.613,25.613 v 0 c 0,14.146 -11.467,25.613 -25.613,25.613 h -27.793"
           id="path1000" /><path
           style="fill:#fae2c0"
           d="m 147.009,245.646 h 50.136 c 20.466,0 37.057,16.591 37.057,37.057 v 0 h -87.193"
           id="path1002" /><path
           style="fill:#fed2a4"
           d="m 197.145,245.646 h -31.009 c 20.466,0 37.057,16.591 37.057,37.057 h 31.009 c 0,-20.466 -16.591,-37.057 -37.057,-37.057 z"
           id="path1004" /><path
           style="fill:#fae2c0"
           d="m 287,245.646 h 35.136 c 20.466,0 37.057,16.591 37.057,37.057 v 0 H 287"
           id="path1006" /><path
           style="fill:#fed2a4"
           d="m 322.136,245.646 h -31.193 c 20.466,0 37.057,16.591 37.057,37.057 h 31.193 c 0,-20.466 -16.591,-37.057 -37.057,-37.057 z"
           id="path1008" /><path
           style="fill:none;stroke:#000000;stroke-width:15;stroke-linecap:round;stroke-linejoin:round;stroke-miterlimit:10"
           d="m 147.009,245.646 h 50.136 c 20.466,0 37.057,16.591 37.057,37.057 v 0 h -87.193"
           id="path1010" /><path
           style="fill:none;stroke:#000000;stroke-width:15;stroke-linecap:round;stroke-linejoin:round;stroke-miterlimit:10"
           d="m 287,245.646 h 35.136 c 20.466,0 37.057,16.591 37.057,37.057 v 0 H 287"
           id="path1012" /><path
           style="fill:#fdb4ba"
           d="m 324.161,145.552 c -5.261,-4.859 -10.937,-7.534 -16.578,-8.487 -9.668,11.366 -12.367,28.529 0.706,42.683 0.451,0.488 0.914,0.969 1.388,1.444 8.044,8.044 18.164,12.745 28.635,14.106 4.62,-16.661 0.391,-35.26 -12.707,-48.358 -0.474,-0.475 -0.955,-0.937 -1.444,-1.388 z"
           id="path1014" /><path
           style="fill:none;stroke:#000000;stroke-width:15;stroke-linecap:round;stroke-linejoin:round;stroke-miterlimit:10"
           d="m 324.161,145.552 c -5.261,-4.859 -10.937,-7.534 -16.578,-8.487 -9.668,11.366 -12.367,28.529 0.706,42.683 0.451,0.488 0.914,0.969 1.388,1.444 8.044,8.044 18.164,12.745 28.635,14.106 4.62,-16.661 0.391,-35.26 -12.707,-48.358 -0.474,-0.475 -0.955,-0.937 -1.444,-1.388 z"
           id="path1016" /><line
           style="fill:none;stroke:#000000;stroke-width:15;stroke-linecap:round;stroke-linejoin:round;stroke-miterlimit:10"
           x1="410.76801"
           y1="228.207"
           x2="410.76801"
           y2="236.927"
           id="line1018" /><line
           style="fill:none;stroke:#000000;stroke-width:15;stroke-linecap:round;stroke-linejoin:round;stroke-miterlimit:10"
           x1="446.73499"
           y1="228.207"
           x2="446.73499"
           y2="236.927"
           id="line1020" /><path
           style="fill:#918291"
           d="m 490.876,282.703 h -20.14 c -7.493,0 -13.624,-6.131 -13.624,-13.624 v 0 c 0,-7.493 6.131,-13.624 13.624,-13.624 h 20.14 c 7.493,0 13.624,6.131 13.624,13.624 v 0 c 0,7.493 -6.131,13.624 -13.624,13.624 z"
           id="path1022" /><path
           style="fill:#7a6d79"
           d="m 490.876,255.455 h -20.14 c -0.061,0 -0.12,0.008 -0.18,0.009 7.41,0.098 13.444,6.182 13.444,13.615 0,7.433 -6.034,13.516 -13.444,13.615 0.061,10e-4 0.119,0.009 0.18,0.009 h 20.14 c 7.493,0 13.624,-6.131 13.624,-13.624 0,-7.493 -6.131,-13.624 -13.624,-13.624 z"
           id="path1024" /><path
           style="fill:none;stroke:#000000;stroke-width:15;stroke-linecap:round;stroke-linejoin:round;stroke-miterlimit:10"
           d="m 490.876,282.703 h -20.14 c -7.493,0 -13.624,-6.131 -13.624,-13.624 v 0 c 0,-7.493 6.131,-13.624 13.624,-13.624 h 20.14 c 7.493,0 13.624,6.131 13.624,13.624 v 0 c 0,7.493 -6.131,13.624 -13.624,13.624 z"
           id="path1026" /></g></g></g><g
     inkscape:groupmode="layer"
     id="layer3"
     inkscape:label="title"><path
       id="path6343"
       style="font-size:31.7499px;line-height:1.25;font-family:Montserrat;-inkscape-font-specification:Montserrat;fill:#b8ffb8;stroke:#005c00;stroke-width:2.27901;stroke-linecap:butt;stroke-linejoin:round;paint-order:stroke fill markers"
       d="m -49.033182,-214.26511 c -1.731773,11.13937 -3.814853,22.2038 -6.24924,33.19327 0.758031,0.18054 1.514393,0.36548 2.269019,0.55483 0.512864,-2.2218 1.011855,-4.44669 1.496973,-6.67467 1.720874,-1.37243 3.469856,-2.7461 5.221096,-4.09751 1.46417,4.569 2.72942,9.11993 3.872296,13.75779 0.902854,0.28344 1.80262,0.57357 2.699172,0.8704 -1.254532,-5.4823 -2.658805,-10.83629 -4.341686,-16.23491 3.206242,-2.52514 6.524634,-5.05207 9.865045,-7.4622 -0.991202,-0.30415 -1.98629,-0.59863 -2.985047,-0.88381 -4.55853,3.21639 -9.151293,6.68207 -13.481376,10.07812 1.573546,-7.49312 2.990687,-15.02107 4.251424,-22.58383 -0.871293,-0.17833 -1.743898,-0.35073 -2.617676,-0.51748 z m -108.853758,2.91619 c -2.15805,0.49257 -3.84586,1.34761 -5.04324,2.5317 -1.20348,1.15349 -1.98138,2.5075 -2.33941,4.04061 -0.34147,1.49623 -0.31837,3.04005 0.0515,4.62552 0.3981,1.70639 0.99134,3.01439 1.759,3.92232 0.784,0.87205 1.67402,1.50069 2.6698,1.89182 1.01848,0.38482 2.08344,0.6313 3.19794,0.74345 1.10825,0.0819 2.21067,0.15693 3.31124,0.22496 1.09989,0.068 2.12321,0.22792 3.06641,0.4741 0.93746,0.21609 1.7382,0.64339 2.40149,1.27589 0.68642,0.62798 1.14791,1.5581 1.39774,2.79023 0.20712,1.02153 0.1787,2.00345 -0.0786,2.95001 -0.23554,0.94136 -0.74902,1.77994 -1.53704,2.52403 -0.77369,0.70887 -1.86047,1.25293 -3.26476,1.64721 -1.46793,0.41216 -2.95221,0.4635 -4.46961,0.14686 -1.50389,-0.35325 -2.79024,-0.94022 -3.86086,-1.7755 -0.0813,0.9604 -0.15698,1.92084 -0.22745,2.88182 1.14364,0.93607 2.5587,1.55346 4.24801,1.87154 1.70227,0.28143 3.36415,0.18433 5.0042,-0.28418 1.89247,-0.54062 3.35323,-1.34377 4.39417,-2.43399 1.05517,-1.12526 1.75635,-2.39434 2.09988,-3.8245 0.33735,-1.46008 0.36681,-2.95111 0.0731,-4.48058 -0.31689,-1.6503 -0.83085,-2.92636 -1.56328,-3.8319 -0.70886,-0.90921 -1.56225,-1.56921 -2.56166,-1.97285 -0.98237,-0.43893 -2.03654,-0.73277 -3.15937,-0.87629 -1.10007,-0.14894 -2.20708,-0.25792 -3.31959,-0.32497 -1.11266,-0.0671 -2.15542,-0.19159 -3.13128,-0.37708 -0.95289,-0.19157 -1.78659,-0.58745 -2.5018,-1.19425 -0.69167,-0.61248 -1.18228,-1.54282 -1.45861,-2.79234 -0.24273,-1.09754 -0.23623,-2.13601 0.0261,-3.1128 0.27907,-1.01339 0.85088,-1.90941 1.7196,-2.67856 0.86842,-0.76889 2.06002,-1.33732 3.56785,-1.68884 1.12489,-0.26224 2.32662,-0.30881 3.59696,-0.13989 1.29418,0.16377 2.55333,0.59722 3.77129,1.29227 0.15933,-0.95373 0.32493,-1.90653 0.49683,-2.85871 -1.14527,-0.68633 -2.46253,-1.13489 -3.94826,-1.33231 -1.49054,-0.2279 -2.95736,-0.1814 -4.38825,0.1452 z m 22.90351,4.08013 c -1.80886,0.24566 -3.37752,0.99299 -4.67846,2.23922 -1.28118,1.21272 -2.18506,2.81215 -2.70333,4.78707 -0.52294,1.94551 -0.5745,4.10667 -0.17122,6.47405 0.40805,2.39538 1.17075,4.4142 2.24531,6.05006 1.07564,1.63751 2.35131,2.82975 3.81591,3.5895 1.48803,0.75636 3.03692,0.98427 4.67074,0.70147 0.10302,-0.0178 0.20495,-0.0376 0.3058,-0.0593 1.37019,-0.29433 2.5408,-0.94688 3.53146,-1.96382 0.92106,-0.95772 1.63495,-2.16987 2.14726,-3.63945 0.51471,4.33592 1.08277,8.66512 1.70417,12.9876 0.74416,-0.11095 1.48901,-0.21701 2.23448,-0.31814 -1.38306,-10.55118 -2.46832,-21.13718 -3.25578,-31.75797 -0.8241,0.0785 -1.64761,0.16112 -2.4705,0.24777 0.12577,1.52577 0.25807,3.05072 0.39691,4.57484 -0.86246,-1.39079 -1.91244,-2.42612 -3.15434,-3.09818 -1.29211,-0.71402 -2.72269,-1.00358 -4.27827,-0.85426 -0.11274,0.0109 -0.22612,0.0241 -0.34014,0.0395 z m 49.149351,-1.89535 c -1.779332,-0.0972 -3.413879,0.34366 -4.882314,1.3111 -1.44403,0.93978 -2.595396,2.27867 -3.45493,4.00653 -0.836351,1.73019 -1.267406,3.72928 -1.317944,6.00297 -0.0505,2.272 0.313229,4.30603 1.059927,6.10483 0.747726,1.77008 1.792225,3.19017 3.128043,4.27329 1.338231,1.05482 2.898856,1.64003 4.7119,1.77113 1.392687,0.1007 2.686201,-0.11246 3.897327,-0.64953 1.232483,-0.53467 2.303847,-1.37089 3.213349,-2.51786 -0.379797,-0.71981 -0.764969,-1.4377 -1.155488,-2.15389 -0.77451,0.95857 -1.653541,1.64341 -2.637936,2.0592 -0.962444,0.41793 -1.976838,0.58688 -3.052701,0.51069 -1.367434,-0.0968 -2.565865,-0.53395 -3.612172,-1.31866 -1.021679,-0.81224 -1.818577,-1.88285 -2.387907,-3.21742 -0.457189,-1.14269 -0.707451,-2.42019 -0.743536,-3.83355 5.150496,0.16878 10.281104,0.51554 15.380894,1.03901 0.01562,-0.16121 0.03118,-0.32244 0.04669,-0.48366 0.04004,-0.17349 0.06747,-0.33357 0.08149,-0.48012 0.221602,-2.31656 0.02124,-4.39196 -0.618895,-6.22405 -0.637295,-1.86021 -1.628841,-3.33045 -2.968942,-4.40126 -1.313408,-1.09785 -2.88319,-1.70019 -4.686855,-1.79875 z m 20.686058,1.96893 c -1.492669,-0.20458 -2.948631,-0.10468 -4.355576,0.29353 -1.404191,0.36882 -2.635105,1.00595 -3.688824,1.9021 0.307989,0.82133 0.611098,1.64387 0.909251,2.46783 0.844488,-0.7359 1.843226,-1.28908 2.995492,-1.65286 1.152074,-0.36373 2.340689,-0.46349 3.556353,-0.29394 0.41808,0.0583 0.807473,0.14417 1.167859,0.25728 0,0 0,0 0,0 1.161466,0.36514 2.02039,1.01151 2.572384,1.93184 0.747709,1.21098 0.963658,2.81307 0.656431,4.79909 -0.07338,0.47433 -0.147407,0.94854 -0.222093,1.42264 -1.333178,-0.23104 -2.670823,-0.45047 -4.012515,-0.65875 -0.589248,-0.091 -1.179015,-0.17967 -1.769283,-0.26599 -1.735821,-0.25384 -3.170139,-0.1277 -4.284065,0.35603 -1.088739,0.45792 -1.917332,1.16248 -2.489752,2.10522 -0.546487,0.91675 -0.884447,1.97554 -1.0237,3.1784 -0.152779,1.31969 -0.03185,2.52408 0.352035,3.61595 0.387653,1.06287 1.013487,1.95192 1.876262,2.67354 0.889143,0.69567 1.971461,1.14363 3.257943,1.3517 0.733121,0.11858 1.422699,0.14061 2.07182,0.0639 0.799561,-0.0939 1.537365,-0.33766 2.215814,-0.73448 0.913243,-0.52193 1.68593,-1.23867 2.314938,-2.15243 -0.215556,1.21735 -0.435464,2.43393 -0.659722,3.64974 0.736933,0.14203 1.472564,0.28806 2.206832,0.43811 0.936091,-4.81187 1.803065,-9.63669 2.600923,-14.47447 0.504466,-3.05881 0.204901,-5.4502 -0.912747,-7.15664 -0.945174,-1.50266 -2.418757,-2.49137 -4.40221,-2.94771 0,0 0,0 0,0 -0.299768,-0.0688 -0.61109,-0.12539 -0.93385,-0.16963 z m -52.958849,-1.55492 c 0.22862,4.47957 0.4993,8.95521 0.81203,13.4269 0.1537,2.19779 0.60373,4.00682 1.31977,5.41979 0.73945,1.41278 1.69127,2.44086 2.85017,3.09279 1.16018,0.65266 2.47417,0.93438 3.95939,0.85951 1.55211,-0.0782 2.88598,-0.594 4.02736,-1.55938 0.93265,-0.798 1.67184,-1.81865 2.21501,-3.06739 0.0155,1.39947 0.0321,2.79891 0.0499,4.19829 0.75682,-0.0123 1.51395,-0.0199 2.27134,-0.0229 -0.005,-7.64768 0.006,-15.2955 0.0323,-22.94346 -0.86886,0.001 -1.73748,0.006 -2.60583,0.0156 0.0175,4.00827 0.0443,8.01618 0.0803,12.02371 0.0157,1.74819 -0.22608,3.25412 -0.7133,4.51629 -0.46445,1.26224 -1.15344,2.23989 -2.06369,2.93846 -0.88897,0.66918 -1.94557,1.02872 -3.18249,1.08743 -1.68557,0.08 -3.03059,-0.44861 -4.05535,-1.61439 -1.00093,-1.19302 -1.59569,-3.02131 -1.74079,-5.47915 -0.25672,-4.34826 -0.47804,-8.69955 -0.66396,-13.05388 -0.86456,0.0496 -1.72865,0.10353 -2.5922,0.16178 z m 32.139346,2.25938 c 1.328739,0.0747 2.4802,0.51612 3.441967,1.31912 0.962098,0.80327 1.678472,1.89019 2.146917,3.25532 0.40141,1.08619 0.589097,2.28224 0.569221,3.58707 -4.372691,-0.39322 -8.766091,-0.66057 -13.173614,-0.8022 0.132282,-1.28325 0.439751,-2.43999 0.931276,-3.4702 0.616497,-1.29214 1.45744,-2.28355 2.523571,-2.96863 1.065542,-0.68469 2.256071,-0.99386 3.560662,-0.92048 z m -48.531556,1.96939 c 0.0526,-0.007 0.10503,-0.014 0.15733,-0.0201 0,0 0,0 0,0 1.27655,-0.14662 2.46142,0.0929 3.54392,0.70805 1.15091,0.63756 2.08674,1.60535 2.81133,2.8964 0.74886,1.28942 1.20639,2.83281 1.39519,4.63493 0.18867,1.80095 0.0645,3.43166 -0.36107,4.8959 -0.40644,1.43202 -1.05812,2.60328 -1.95661,3.51962 -0.84591,0.84911 -1.8489,1.38385 -3.02283,1.60799 0,0 0,0 0,0 -0.0481,0.009 -0.0965,0.0179 -0.14517,0.0261 -1.21521,0.20392 -2.36417,0.0282 -3.45991,-0.53668 -1.09969,-0.59408 -2.05821,-1.51859 -2.86952,-2.77935 -0.81581,-1.28973 -1.38228,-2.84789 -1.67425,-4.67053 -0.29215,-1.82377 -0.23968,-3.47928 0.16624,-4.96124 0.40577,-1.48151 1.08181,-2.69497 2.02412,-3.63517 0.94217,-0.94006 2.07775,-1.50285 3.39123,-1.68594 z m 66.910024,9.8835 c 0.561516,0.084 1.122564,0.17013 1.683127,0.25844 1.328533,0.21036 2.652972,0.43192 3.97292,0.66507 -0.206456,1.27255 -0.417639,2.54426 -0.63355,3.81514 -0.70862,1.455 -1.623339,2.50582 -2.733209,3.15896 -0.591507,0.34282 -1.216987,0.55864 -1.878335,0.64915 -0.550036,0.0758 -1.124657,0.0648 -1.725938,-0.0316 -1.389305,-0.22277 -2.413612,-0.77918 -3.084213,-1.68308 -0.670012,-0.90309 -0.927781,-2.0125 -0.761078,-3.334 0.148215,-1.17494 0.597414,-2.11572 1.361196,-2.82146 0.784767,-0.70095 2.056801,-0.93721 3.79908,-0.67663 z"
       class="UnoptimicedTransforms"
       transform="translate(200.05516,269.08344)"
       inkscape:path-effect="#path-effect7098"
       inkscape:original-d="m -57.664181,-202.09361 v 23.55825 h 2.254126 v -4.75784 l 3.934644,-3.63596 6.733439,8.3938 h 2.762622 l -7.81606,-9.85986 7.117395,-6.80889 h -2.762105 l -9.969935,9.08575 v -15.97525 z m -92.741109,1.14257 c -1.88382,0 -3.42939,0.28581 -4.63589,0.85731 -1.20649,0.55033 -2.10588,1.29126 -2.69855,2.2226 -0.5715,0.91017 -0.85731,1.91568 -0.85731,3.01636 0,1.18534 0.24336,2.14839 0.73019,2.88923 0.508,0.71966 1.16403,1.30164 1.96836,1.74614 0.82549,0.44451 1.72539,0.80436 2.69906,1.07952 0.97365,0.254 1.94708,0.49736 2.92075,0.73019 0.97366,0.23283 1.86269,0.50829 2.66702,0.82579 0.80433,0.29633 1.45,0.709 1.93683,1.23817 0.508,0.52916 0.76223,1.22765 0.76223,2.09548 0,0.71967 -0.21177,1.37569 -0.63511,1.96835 -0.40216,0.59267 -1.04784,1.06902 -1.93683,1.42886 -0.86783,0.33867 -2.00021,0.50798 -3.39721,0.50798 -1.46049,0 -2.85746,-0.25371 -4.19096,-0.76171 -1.31232,-0.52917 -2.36031,-1.17484 -3.14347,-1.93684 l -0.92036,1.80971 c 0.8255,0.84667 1.98947,1.54515 3.49229,2.09548 1.524,0.52917 3.11151,0.79375 4.7625,0.79375 1.905,0 3.46093,-0.27545 4.66742,-0.82579 1.22766,-0.5715 2.1374,-1.31191 2.73006,-2.22209 0.59266,-0.93133 0.88936,-1.93684 0.88936,-3.01635 0,-1.16416 -0.25424,-2.106 -0.76223,-2.82567 -0.48683,-0.71967 -1.14286,-1.29129 -1.96836,-1.71462 -0.80432,-0.4445 -1.69335,-0.80435 -2.66702,-1.07952 -0.9525,-0.27517 -1.91557,-0.5294 -2.88923,-0.76223 -0.97366,-0.23283 -1.87305,-0.49742 -2.69854,-0.79375 -0.80433,-0.29633 -1.46087,-0.709 -1.96887,-1.23817 -0.48683,-0.52917 -0.73019,-1.22764 -0.73019,-2.09547 0,-0.76201 0.20142,-1.43926 0.60358,-2.03192 0.42333,-0.61383 1.06848,-1.10055 1.93632,-1.46038 0.86782,-0.35983 1.96862,-0.54002 3.30212,-0.54002 0.99483,0 2.02158,0.14809 3.07992,0.44442 1.07949,0.29633 2.09537,0.76233 3.04787,1.39733 l 0.79375,-1.87327 c -0.889,-0.61383 -1.94734,-1.09019 -3.175,-1.42885 -1.22766,-0.35984 -2.46567,-0.54002 -3.7145,-0.54002 z m 19.08152,5.58829 c -1.58749,0 -3.01657,0.35985 -4.28656,1.07952 -1.24882,0.6985 -2.23261,1.69314 -2.95227,2.98431 -0.71966,1.27001 -1.07952,2.741 -1.07952,4.41317 0,1.69334 0.35986,3.17521 1.07952,4.44521 0.71966,1.27 1.70345,2.26464 2.95227,2.98431 1.26999,0.71967 2.69907,1.07952 4.28656,1.07952 1.46049,0 2.76219,-0.32775 3.90519,-0.98392 0.99184,-0.57707 1.80634,-1.36246 2.44481,-2.35438 v 9.33949 h 2.25413 v -22.82859 h -2.15904 v 3.27216 c -0.64754,-1.05323 -1.48362,-1.86877 -2.50838,-2.44637 -1.143,-0.65616 -2.45505,-0.98443 -3.93671,-0.98443 z m 42.703339,0 c -1.545158,0 -2.942126,0.37021 -4.190958,1.11104 -1.227658,0.71967 -2.201086,1.71483 -2.920752,2.98483 -0.698493,1.27001 -1.047998,2.73012 -1.047998,4.38113 0,1.651 0.370734,3.12251 1.11156,4.41368 0.740832,1.27 1.767074,2.275 3.079398,3.01584 1.312333,0.71967 2.836673,1.07952 4.572331,1.07952 1.333492,0 2.550275,-0.23247 3.65094,-0.69815 1.121826,-0.46566 2.053312,-1.14291 2.794145,-2.03191 l -1.26969,-1.4609 c -0.634993,0.74083 -1.397166,1.29123 -2.286165,1.65106 -0.867833,0.35984 -1.809675,0.54002 -2.825668,0.54002 -1.291165,0 -2.444778,-0.26457 -3.46077,-0.79375 -0.994833,-0.55033 -1.778236,-1.30214 -2.349728,-2.25464 -0.461477,-0.81647 -0.728543,-1.73728 -0.803052,-2.7621 h 14.011032 v -0.34934 c 0.02113,-0.127 0.03204,-0.2435 0.03204,-0.34933 0,-1.67217 -0.349499,-3.14316 -1.047998,-4.41317 -0.698499,-1.29117 -1.661571,-2.28581 -2.889229,-2.98431 -1.206499,-0.71967 -2.593111,-1.07952 -4.159437,-1.07952 z m 18.066081,0 c -1.312325,0 -2.561209,0.2009 -3.746541,0.60306 -1.185326,0.381 -2.201728,0.93139 -3.048393,1.65106 l 1.016476,1.68311 c 0.677332,-0.59267 1.502675,-1.06903 2.476334,-1.42886 0.973666,-0.35984 2.000423,-0.54002 3.079916,-0.54002 1.566325,0 2.74065,0.38108 3.523815,1.14309 0.804333,0.76199 1.206645,1.85191 1.206645,3.27008 v 1.01648 H -71.3481 c -1.587492,0 -2.857604,0.22212 -3.810103,0.66662 -0.931326,0.42334 -1.608585,0.99496 -2.031917,1.71463 -0.402167,0.6985 -0.603581,1.48137 -0.603581,2.34921 0,0.9525 0.243872,1.79906 0.730705,2.53989 0.486832,0.71968 1.18532,1.29129 2.095479,1.71463 0.931332,0.40217 2.021259,0.60306 3.270085,0.60306 1.587498,0 2.899551,-0.32775 3.93671,-0.98392 0.772627,-0.47903 1.375515,-1.07724 1.809709,-1.79317 v 2.61844 h 2.159041 v -10.35027 c 0,-2.18017 -0.592337,-3.79976 -1.777669,-4.8581 -1.164159,-1.0795 -2.825718,-1.61902 -4.984709,-1.61902 z m -46.0375,0.15864 v 9.68365 c 0,1.58751 0.28582,2.91042 0.85731,3.96875 0.59267,1.05834 1.418,1.85208 2.47634,2.38125 1.05832,0.52917 2.29685,0.79375 3.71502,0.79375 1.48165,0 2.77249,-0.33862 3.87314,-1.01596 0.90002,-0.56039 1.60897,-1.29113 2.12752,-2.19211 v 3.04942 h 2.15904 v -16.66875 h -2.25464 v 8.73125 c 0,1.27 -0.23248,2.36043 -0.69815,3.27061 -0.4445,0.91016 -1.10104,1.60864 -1.96887,2.09548 -0.84666,0.46567 -1.85167,0.69814 -3.01584,0.69814 -1.58749,0 -2.82602,-0.44424 -3.71501,-1.33325 -0.86784,-0.91016 -1.30173,-2.25431 -1.30173,-4.03231 v -9.42992 z m 27.971419,1.77819 c 1.164166,0 2.190923,0.26458 3.079916,0.79375 0.888999,0.52917 1.587486,1.2701 2.095479,2.2226 0.429546,0.75601 0.684462,1.60258 0.765328,2.5399 h -11.877311 c 0.08218,-0.93396 0.324785,-1.78073 0.729671,-2.5399 0.507992,-0.9525 1.217353,-1.69343 2.127519,-2.2226 0.910166,-0.52917 1.936406,-0.79375 3.079398,-0.79375 z m -42.544689,0.0315 c 1.18533,0 2.24367,0.27545 3.175,0.82579 0.9525,0.55034 1.69344,1.31199 2.2226,2.28565 0.55034,0.97367 0.82528,2.10604 0.82528,3.39721 0,1.29117 -0.27494,2.43441 -0.82528,3.42925 -0.52916,0.97366 -1.2701,1.73583 -2.2226,2.28616 -0.93133,0.52918 -1.98967,0.79375 -3.175,0.79375 -1.16416,0 -2.21215,-0.26457 -3.14348,-0.79375 -0.93132,-0.55033 -1.67176,-1.3125 -2.22208,-2.28616 -0.55034,-0.99484 -0.82579,-2.13808 -0.82579,-3.42925 0,-1.29117 0.27545,-2.42354 0.82579,-3.39721 0.55032,-0.97366 1.29076,-1.73531 2.22208,-2.28565 0.93133,-0.55034 1.97932,-0.82579 3.14348,-0.82579 z m 59.880582,7.11223 h 5.23844 v 2.73058 c -0.423333,1.10067 -1.100585,1.94723 -2.031917,2.5399 -0.910159,0.57151 -2.000086,0.85731 -3.270085,0.85731 -1.333492,0 -2.370605,-0.2858 -3.111438,-0.85731 -0.740826,-0.5715 -1.11156,-1.33367 -1.11156,-2.28617 0,-0.84667 0.307048,-1.5555 0.920874,-2.127 0.635,-0.5715 1.757028,-0.85731 3.365686,-0.85731 z" /></g></svg>
