<?xml version="1.0" encoding="UTF-8" standalone="no"?>
<svg
   xmlns:dc="http://purl.org/dc/elements/1.1/"
   xmlns:cc="http://creativecommons.org/ns#"
   xmlns:rdf="http://www.w3.org/1999/02/22-rdf-syntax-ns#"
   xmlns:svg="http://www.w3.org/2000/svg"
   xmlns="http://www.w3.org/2000/svg"
   xmlns:xlink="http://www.w3.org/1999/xlink"
   xmlns:sodipodi="http://sodipodi.sourceforge.net/DTD/sodipodi-0.dtd"
   xmlns:inkscape="http://www.inkscape.org/namespaces/inkscape"
   width="183.08488mm"
   height="166.33098mm"
   viewBox="0 0 183.08488 166.33098"
   version="1.1"
   id="svg8"
   inkscape:version="1.0.2 (e86c870879, 2021-01-15, custom)"
   sodipodi:docname="squeakLogo.svg">
  <defs
     id="defs2">
    <inkscape:path-effect
       effect="bend_path"
       id="path-effect1544"
       is_visible="true"
       lpeversion="1"
       bendpath="m 22.336012,87.793749 c 45.718716,-12.91667 91.073768,-12.740959 136.079768,0"
       prop_scale="1"
       scale_y_rel="false"
       vertical="false"
       hide_knot="false"
       bendpath-nodetypes="cc" />
    <inkscape:path-effect
       effect="bend_path"
       id="path-effect1539"
       is_visible="true"
       lpeversion="1"
       bendpath="m 61.454917,149.9405 c 34.210669,-12.92542 77.171823,-13.27719 104.968993,0.685"
       prop_scale="1.1146487"
       scale_y_rel="false"
       vertical="false"
       hide_knot="false"
       bendpath-nodetypes="cc" />
    <inkscape:path-effect
       effect="bend_path"
       id="path-effect1537"
       is_visible="true"
       lpeversion="1"
       bendpath="m 55.952941,136.24038 c 80.845219,3.96941 46.307189,17.22375 115.255299,16.61139"
       prop_scale="1"
       scale_y_rel="false"
       vertical="false"
       hide_knot="false"
       bendpath-nodetypes="cc" />
    <inkscape:path-effect
       effect="bend_path"
       id="path-effect1372"
       is_visible="true"
       lpeversion="1"
       bendpath="m 71.502004,144.2892 c 31.355816,-7.67695 58.777206,-7.88859 80.808136,2.74002"
       prop_scale="1.0270501"
       scale_y_rel="false"
       vertical="false"
       hide_knot="false"
       bendpath-nodetypes="cc" />
    <inkscape:path-effect
       effect="bend_path"
       id="path-effect1370"
       is_visible="true"
       lpeversion="1"
       bendpath="m 52.242278,190.28532 c 19.644195,0.2199 43.866354,3.84303 82.767772,5.87993"
       prop_scale="1.3833862"
       scale_y_rel="false"
       vertical="false"
       hide_knot="false"
       bendpath-nodetypes="cc" />
    <inkscape:path-effect
       effect="bend_path"
       id="path-effect1368"
       is_visible="true"
       lpeversion="1"
       bendpath="m 64.803946,148.05673 c 103.401784,4.00888 62.483884,0 93.725824,0"
       prop_scale="1"
       scale_y_rel="false"
       vertical="false"
       hide_knot="false"
       bendpath-nodetypes="cc" />
    <rect
       id="CKX"
       width="164.8"
       height="260.79999"
       x="-82.400002"
       y="-130.39999" />
  </defs>
  <sodipodi:namedview
     id="base"
     pagecolor="#ffffff"
     bordercolor="#666666"
     borderopacity="1.0"
     inkscape:pageopacity="0.0"
     inkscape:pageshadow="2"
     inkscape:zoom="0.7"
     inkscape:cx="391.61852"
     inkscape:cy="357.98615"
     inkscape:document-units="mm"
     inkscape:current-layer="layer2"
     inkscape:document-rotation="0"
     showgrid="false"
     inkscape:object-nodes="false"
     inkscape:snap-nodes="false"
     showguides="true"
     inkscape:guide-bbox="true"
     fit-margin-top="0"
     fit-margin-left="0"
     fit-margin-right="0"
     fit-margin-bottom="0"
     inkscape:window-width="1920"
     inkscape:window-height="1009"
     inkscape:window-x="1912"
     inkscape:window-y="44"
     inkscape:window-maximized="1" />
  <metadata
     id="metadata5">
    <rdf:RDF>
      <cc:Work
         rdf:about="">
        <dc:format>image/svg+xml</dc:format>
        <dc:type
           rdf:resource="http://purl.org/dc/dcmitype/StillImage" />
        <dc:title></dc:title>
      </cc:Work>
    </rdf:RDF>
  </metadata>
  <g
     inkscape:label="Layer 1"
     inkscape:groupmode="layer"
     id="layer1">
    <g
       id="g1292"
       transform="translate(-17.148407,-13.408155)">
      <g
         id="g893"
         transform="matrix(0.26458333,0,0,0.26458333,50.100532,66.72959)">
        <symbol
           id="D8"
           viewBox="-500 -500 1000 1000"
           preserveAspectRatio="xMinYMid">
          <path
             d="m -1,-50 a 205,205 0 1 1 2,0 h -2 a 255,255 0 1 0 2,0 z"
             stroke="#ff0000"
             stroke-width="80"
             stroke-linecap="square"
             stroke-miterlimit="1.5"
             fill="none"
             id="path833" />
        </symbol>
        <symbol
           id="D"
           viewBox="-600 -600 1200 1200"
           preserveAspectRatio="xMinYMid">
          <path
             d="M -400,0 C -350,0 0,-450 0,-500 0,-450 350,0 400,0 350,0 0,450 0,500 0,450 -350,0 -400,0 Z"
             fill="#ff0000"
             id="path836" />
        </symbol>
        <rect
           width="239"
           height="335"
           x="-87.865799"
           y="-126.82198"
           rx="12"
           ry="12"
           fill="#ffffff"
           stroke="#000000"
           id="rect839"
           transform="rotate(-21.044013)" />
        <use
           xlink:href="#D"
           height="70"
           width="70"
           x="-87.500999"
           y="-35"
           id="use841"
           transform="rotate(-21.044013,93.687651,-105.49789)" />
        <use
           xlink:href="#D"
           height="70"
           width="70"
           x="17.500999"
           y="-35"
           id="use843"
           transform="rotate(-21.044013,93.687651,-105.49789)" />
        <use
           xlink:href="#D8"
           height="32"
           width="32"
           x="-114.4"
           y="-156"
           id="use845"
           transform="rotate(-21.044013,93.687651,-105.49789)" />
        <use
           xlink:href="#D"
           height="26.768999"
           width="26.768999"
           x="-111.784"
           y="-119"
           id="use847"
           transform="rotate(-21.044013,93.687651,-105.49789)" />
        <use
           xlink:href="#D"
           height="70"
           width="70"
           x="-87.500999"
           y="-135.50101"
           id="use849"
           transform="rotate(-21.044013,93.687651,-105.49789)" />
        <use
           xlink:href="#D"
           height="70"
           width="70"
           x="17.500999"
           y="-135.50101"
           id="use851"
           transform="rotate(-21.044013,93.687651,-105.49789)" />
        <use
           xlink:href="#D"
           height="70"
           width="70"
           x="-35"
           y="-85.25"
           id="use853"
           transform="rotate(-21.044013,93.687651,-105.49789)" />
        <g
           transform="rotate(158.95599,19.594794,17.401202)"
           id="g865">
          <use
             xlink:href="#D8"
             height="32"
             width="32"
             x="-114.4"
             y="-156"
             id="use855" />
          <use
             xlink:href="#D"
             height="26.768999"
             width="26.768999"
             x="-111.784"
             y="-119"
             id="use857" />
          <use
             xlink:href="#D"
             height="70"
             width="70"
             x="-87.500999"
             y="-135.50101"
             id="use859" />
          <use
             xlink:href="#D"
             height="70"
             width="70"
             x="17.500999"
             y="-135.50101"
             id="use861" />
          <use
             xlink:href="#D"
             height="70"
             width="70"
             x="-35"
             y="-85.25"
             id="use863" />
        </g>
      </g>
    </g>
    <g
       id="g1335"
       transform="translate(-24.149099,-21.298305)">
      <g
         id="g1179"
         transform="matrix(0.26458333,0,0,0.26458333,115.19317,65.748304)">
        <symbol
           id="CK"
           viewBox="-500 -500 1000 1000"
           preserveAspectRatio="xMinYMid">
          <path
             d="m -285,-460 h 200 m -100,0 v 920 m -100,0 H -85 M 85,-460 h 200 m -100,20 -355,595 M 85,460 H 285 M 185,440 -10,-70"
             stroke="#000000"
             stroke-width="80"
             stroke-linecap="square"
             stroke-miterlimit="1.5"
             fill="none"
             id="path1060" />
        </symbol>
        <symbol
           id="C"
           viewBox="-600 -600 1200 1200"
           preserveAspectRatio="xMinYMid">
          <path
             d="m 30,150 c 5,235 55,250 100,350 H -130 C -85,400 -35,385 -30,150 a 10,10 0 0 0 -20,0 210,210 0 1 1 -74,-201 10,10 0 0 0 14,-14 230,230 0 1 1 220,0 10,10 0 0 0 14,14 210,210 0 1 1 -74,201 10,10 0 0 0 -20,0 z"
             fill="#000000"
             id="path1063" />
        </symbol>
        <symbol
           id="CK1"
           preserveAspectRatio="none"
           viewBox="0 0 1300 2000">
          <path
             fill="#ffcc44"
             d="m 315.88477,799.27344 c -12.56235,0 -24.6922,1.85347 -36.10547,5.37109 -0.48214,27.8097 -0.56402,55.37273 -0.33008,82.75781 -30.26406,3.32862 -59.22646,9.71055 -87.20508,18.66797 -0.91775,6.03679 -1.35937,12.06769 -1.35937,18.20313 0,19.37207 4.40727,37.71502 12.39648,53.82031 85.71456,-21.84226 147.4165,-22.49246 227.92578,-6.01172 6.30069,-14.67951 9.67774,-30.8501 9.67774,-47.80859 0,-9.41882 -1.04097,-18.59369 -3.09961,-27.30078 -28.56833,-6.28932 -55.92855,-10.09375 -82.24414,-11.60157 -1.17024,-27.08656 -2.75611,-54.12166 -4.69532,-81.09375 -11.01134,-3.26165 -22.78311,-5.0039 -34.96093,-5.0039 z M 315,865 a 15,15 0 0 1 15,15 15,15 0 0 1 -15,15 15,15 0 0 1 -15,-15 15,15 0 0 1 15,-15 z m -50,45 a 15,15 0 0 1 15,15 15,15 0 0 1 -15,15 15,15 0 0 1 -15,-15 15,15 0 0 1 15,-15 z m 100,0 a 15,15 0 0 1 15,15 15,15 0 0 1 -15,15 15,15 0 0 1 -15,-15 15,15 0 0 1 15,-15 z M 285.24246,803.19971 a 30.652709,27.5 0 0 1 -0.01,-0.69971 30.652709,27.5 0 0 1 30.65271,-27.5 30.652709,27.5 0 0 1 30.65271,27.5 v 0 a 30.652709,27.5 0 0 1 -0.0111,0.74119 M 303.33594,777.96363 C 300.16664,763.71638 289.40005,725.93333 265,730 c -23.93685,3.98948 -41.63933,59.0169 -20,70 16.94523,8.6006 16.08956,-46.8725 35,-45 9.35264,0.92609 13.58085,21.49426 14.69108,28.02722 m 31.24728,-6.47304 C 327.44566,750.40572 331.61384,724.78477 340,700 l -25,-30 -25,30 c 8.44914,24.97093 12.61672,50.79065 14.09516,77.14347 m 31.46937,4.44633 C 336.98856,773.91148 341.25333,755.86608 350,755 c 18.91044,-1.8725 18.05477,53.6006 35,45 21.63933,-10.9831 3.93685,-66.01052 -20,-70 -24.00176,-4.00029 -34.81152,32.49405 -38.17465,47.24743 M 692.05452,965.9376 C 709.00441,925.84824 680.22101,905.82567 650,905.23818 c -30.22101,0.58749 -59.00441,20.61006 -42.05452,60.69942 -45,-34.54713 -65.3769,2.23401 -65.63599,34.0624 0.25909,31.8284 20.63599,68.6096 65.63599,34.0624 -16.94989,40.0894 11.83351,60.112 42.05452,60.6994 30.22101,-0.5874 59.00441,-20.61 42.05452,-60.6994 45,34.5472 65.3769,-2.234 65.63599,-34.0624 -0.25909,-31.82839 -20.63599,-68.60953 -65.63599,-34.0624 z m -66.72249,-55.40049 c -1.29049,-7.8721 -2.59974,-15.69928 -3.92773,-23.48438 1.33034,7.78774 2.64812,15.6037 3.9414,23.47852 z m 124.39189,49.79159 56.49483,-0.44198 c 0.75351,-109.52858 18.21681,-216.80549 78.23828,-318.92774 L 720.64258,719.63477 566.14062,650.1582 c -9.74759,-29.54044 -20.63739,-57.82428 -32.99218,-84.67773 l -34.47461,-2.59766 c 41.3207,84.04286 67.26483,185.87175 87.85351,299.41797 C 556.31568,778.59382 509.83478,715.50153 450.5332,671.75195 393.43805,629.63016 325.64881,605.78465 251.81641,595.35938 c -16.48204,7.73731 -33.21405,16.43457 -49.74219,25.70898 182.00145,10.66405 321.30864,95.8619 372.76321,308.34003 C 635,890 711.03775,893.67129 749.72392,960.3287 Z M 609.7793,823.21289 c 0.12821,0.65669 0.25896,1.31132 0.38672,1.96875 -0.1277,-0.65764 -0.25858,-1.31186 -0.38672,-1.96875 z m 3.33398,17.41016 c 0.18997,1.01288 0.37739,2.0323 0.56641,3.04687 -0.18888,-1.01479 -0.37657,-2.03378 -0.56641,-3.04687 z m 2.69336,14.62109 c 0.35073,1.92997 0.70122,3.861 1.04883,5.79688 -0.34737,-1.93668 -0.69832,-3.86612 -1.04883,-5.79688 z m 1.72266,9.59961 c 1.22767,6.88986 2.4365,13.81701 3.6289,20.7793 -1.19118,-6.96496 -2.40216,-13.88689 -3.6289,-20.7793 z m 597.3892,190.09545 A 25,25 0 0 1 1225,1075 v 0 a 25,25 0 0 1 -25,25 25,25 0 0 1 -25,-25 25,25 0 0 1 14.2808,-22.5853 M 1260,1035 a 47.5,20 0 0 1 -47.5,20 47.5,20 0 0 1 -47.5,-20 47.5,20 0 0 1 47.5,-20 47.5,20 0 0 1 47.5,20 z M 1105,860 c 0,-20 40,-32.7067 40,0 0,7.45288 -10,7.53267 -10,0 0,-5 -9.929,-5.12392 -10,5 -0.2467,34.99913 65,-10 75,-20 10,10 75.2467,54.99913 75,20 -0.071,-10.12392 -10,-10 -10,-5 0,7.53267 -10,7.45288 -10,0 0,-32.7067 40,-20 40,0 0,50 -85,27.59954 -95,15 -10,12.59954 -95,35 -95,-15 z M 961.50795,538.87077 924.37106,538.30385 719.57227,636.91016 552.73103,561.52961 C 548.52182,563.03869 542.70237,564.01471 535,565 l 9.17732,25.87979 L 720,670 938.70991,564.54889 c 7.3233,-8.74993 14.8699,-17.2385 22.79804,-25.67812 z M 314.67496,-24.081076 c 55.01105,81.034293 88.64756,134.919396 113.4009,184.046316 187.30743,-23.75202 340.51468,-19.2146 490.88488,1.27178 C 937.12561,121.89414 965.73669,74.186359 1021.666,-2.8892116 M 806.26169,959.99997 748.00976,960 l 6.2176,15 h 51.21992 z m -254.29879,7e-5 -59.3684,-2e-5 L 492.49921,975 h 52.34563 z"
             id="path1066" />
        </symbol>
        <symbol
           id="CK2"
           preserveAspectRatio="none"
           viewBox="0 0 1300 2000">
          <path
             fill="#ff0000"
             d="m 330,835 a 15,15 0 0 1 -15,15 15,15 0 0 1 -15,-15 15,15 0 0 1 15,-15 15,15 0 0 1 15,15 z m 0,90 a 15,15 0 0 1 -15,15 15,15 0 0 1 -15,-15 15,15 0 0 1 15,-15 15,15 0 0 1 15,15 z m -95,10 a 15,15 0 0 1 -15,15 15,15 0 0 1 -15,-15 15,15 0 0 1 15,-15 15,15 0 0 1 15,15 z m 190,-5 a 15,15 0 0 1 -15,15 15,15 0 0 1 -15,-15 15,15 0 0 1 15,-15 15,15 0 0 1 15,15 z m -285.1798,15.3063 c 7.62015,3.71791 15.83895,8.65802 23.19034,14.92176 l 33.17633,-0.0484 c -3.45336,-11.24539 -5.30162,-23.35952 -5.30162,-35.90534 10e-6,-58.338 39.964,-107.34192 94.00842,-121.12817 l 0.34879,0.0536 c -0.007,-0.23319 -0.01,-0.46645 -0.01,-0.69971 0,-7.81675 3.63523,-14.87177 9.46517,-19.67569 C 293.58085,776.49426 289.35264,755.92609 280,755 c -18.91044,-1.8725 -18.05477,53.6006 -35,45 -21.63933,-10.9831 -3.93685,-66.01052 20,-70 24.40005,-4.06667 35.16664,33.71638 38.33594,47.96363 l 0.75922,-0.82016 C 302.61672,750.79065 298.44914,724.97093 290,700 l 25,-30 25,30 c -8.38616,24.78477 -12.55434,50.40572 -14.06164,76.55418 l 0.88699,0.69325 C 330.18848,762.49405 340.99824,725.99971 365,730 c 23.93685,3.98948 41.63933,59.0169 20,70 -16.94523,8.6006 -16.08956,-46.8725 -35,-45 -8.74667,0.86608 -13.01144,18.91148 -14.70846,26.30184 6.74878,4.7514 11.24634,12.50357 11.24634,21.19816 0,0 -0.004,0.49418 0.33492,0.73756 54.21696,13.90174 94.01244,62.82189 94.01245,121.03677 0,12.29592 -1.77536,24.17718 -5.17786,35.56354 l 24.58818,0.16215 -0.0343,-241.33174 c -67.0994,-62.05809 -155.9304,-91.58965 -258.10002,-97.65004 -21.18998,11.90995 -42.06261,24.81864 -62.29505,38.42072 L 140,940 Z M 600.07385,1000 a 20,20 0 0 1 -20,20 20,20 0 0 1 -20,-20 20,20 0 0 1 20,-20 20,20 0 0 1 20,20 z M 670,944.17072 a 20,20 0 0 1 -20,20 20,20 0 0 1 -20,-20 20,20 0 0 1 20,-20 20,20 0 0 1 20,20 z m -177.72098,30.28663 c 0.90253,16.64091 1.10396,34.16165 1.14853,50.80285 l 53.45104,-0.3407 c -3.02618,-7.7454 -4.50058,-16.5055 -4.56907,-24.9195 0.0701,-8.61487 1.61409,-17.59258 4.74508,-25.42892 M 949.49508,955.5966 c -40.88979,11.85003 -72.97618,43.67917 -85.45215,84.2691 l -38.42409,0.1269 c -9.31373,-175.27439 7.1034,-342.08989 153.56044,-494.674 l 95.93872,35.13393 C 968.12464,698.47509 943.88877,822.19003 949.49508,955.5966 Z m -80.30605,-419.75832 55.18203,2.46557 -204.79879,98.60631 -167.21242,-75.25707 c 4.80253,-1.48989 8.36422,-3.58464 12.05461,-6.75962 C 585,580 615,560 615,535 c 10,30 15,40 39.61549,43.9696 28.31722,-1.16847 56.27099,-2.88702 77.74194,-14.4169 16.0177,6.95633 33.70441,5.11835 42.24684,-4.03452 29.6077,4.69565 64.64681,-11.96779 69.8605,-23.70323 8.36407,1.27737 17.08891,1.04323 24.72426,-0.97667 z M 385.06779,83.802165 c 10.92415,7.534905 23.02557,14.089038 36.41373,17.192565 3.26685,10.61217 6.90989,23.05462 14.4281,36.76454 3.7266,6.7957 8.65875,13.43872 14.08269,19.65146 56.0686,-6.63114 109.76671,-10.6617 161.31459,-12.31264 10.98281,-14.43465 19.10858,-32.14149 23.04479,-52.674917 9.53387,-4.368773 17.87708,-10.464195 24.62784,-17.581187 6.33421,7.50921 14.31629,14.093979 23.58526,19.026361 2.55022,19.151813 8.80607,36.110233 17.09179,50.457903 62.51999,0.99603 122.87103,5.50958 182.22907,12.89668 1.03656,-1.05016 2.17183,-2.2831 3.27881,-3.55974 13.50821,-15.57848 21.04333,-36.1939 22.97946,-60.172561 26.42133,-5.60885 46.23051,-13.178534 61.29818,-20.945568 C 932.02695,129.8664 915.3549,165.63627 902.96906,200.4476 762.45854,182.12363 619.8953,178.13191 445.94708,198.20679 430.24211,162.07551 411.84929,127.38199 385.06779,83.802165 Z"
             id="path1069" />
        </symbol>
        <symbol
           id="CK3"
           preserveAspectRatio="none"
           viewBox="0 0 1300 2000">
          <path
             fill="#4444ff"
             d="m 1200,135 c -0.037,15.31531 1.7168,33.76758 1.7168,48.76758 0,15 -15,62.05273 -15,77.05273 0,15 10.4844,45.41211 10.4844,65.41211 0,20 -16.3067,64.10352 -16.3067,84.10352 0,20 15.5586,56.30664 15.5586,76.30664 0,20 -10.5586,45 -10.5586,65 0,20 13.8418,48.62109 13.8418,73.62109 0,25 -18.8418,55.89453 -18.8418,75.89453 0,20 9.8125,29.17774 9.8125,54.17774 0,23.25677 -10.1746,80.86379 -10.748,104.86328 l 20.4492,-14.57617 c 1.9077,-27.81216 7.8315,-71.45448 7.3008,-90.89453 -0.6821,-24.9907 -10.7395,-33.89808 -11.2852,-53.89063 -0.5457,-19.99256 17.4478,-51.39017 16.7657,-76.38086 -0.6821,-24.9907 -15.302,-53.22425 -15.8477,-73.2168 -0.5457,-19.99256 9.3269,-45.27111 8.7812,-65.26367 -0.5457,-19.99255 -17.089,-55.85901 -17.6347,-75.85156 -0.5457,-19.99255 14.5515,-64.52698 14.0058,-84.51953 -0.5457,-19.99255 -11.8563,-50.10519 -12.2656,-65.09961 -0.4093,-14.99442 13.3019,-62.43917 12.8926,-77.43359 C 1202.7119,168.07786 1200.4465,149.67911 1200,135 Z M 652.25977,294.0293 a 10,17.5 0 0 0 -10,17.5 10,17.5 0 0 0 10,17.5 10,17.5 0 0 0 10,-17.5 10,17.5 0 0 0 -10,-17.5 z m -150.04493,5.17382 a 10,17.5 0 0 0 -10,17.5 10,17.5 0 0 0 10,17.5 10,17.5 0 0 0 10,-17.5 10,17.5 0 0 0 -10,-17.5 z M 550,420 c -30,10 -25,25 -45,30 l -0.53516,0.98633 C 519.06812,450.96364 535,432.09863 550,430 Z m 50,0 v 10 c 32.31731,0 45.72059,21.48455 67.29688,20.98633 L 666.50586,450 C 636.9481,445 652.09763,425 600,420 Z m 526,179.06055 c -110.1846,112.44436 -133.55784,223.16409 -127.12109,352.5625 49.77099,5.73878 90.76149,41.01386 104.74609,88.15235 l 33.4336,0.1543 C 1119.7764,1025.4885 1105,1003.4214 1105,970 c 0,-65 45,-75 55,-75 10.7141,0 19.7357,7.64572 25.8809,18.13281 3.5566,-5.19816 14.4176,-10.99059 32.4902,-14.86328 66.7067,-14.29428 60.6228,22.50551 20.5293,29.04883 36.9733,-3.50654 38.8547,15.32295 19.5215,26.08008 21.3207,5.56259 13.3776,23.55473 -10.7285,29.42773 31.2392,4.09549 17.1266,31.04093 -17.0625,32.98243 17.3527,3.7677 29.3691,10.8888 29.3691,19.1914 0,1.8342 -0.5859,3.61 -1.627,5.1484 L 1300,1040.0293 V 662.66797 l -55,-20.16406 -0.1035,230.91211 c 16.0508,6.82562 30.2187,7.92842 30.1035,-8.41602 -0.071,-10.12392 -10,-10 -10,-5 0,7.53267 -10,7.45288 -10,0 0,-32.7067 40,-20 40,0 0,50 -85,27.59954 -95,15 -4.2058,5.29909 -21.68,12.3255 -40.5156,14.97656 -0.2694,0.0379 -0.5387,0.0752 -0.8086,0.11133 -1.1328,0.15153 -2.2694,0.29216 -3.4082,0.41016 C 1130.5403,893.05986 1105,887.40738 1105,860 c 0,-20 40,-32.7067 40,0 0,7.45288 -10,7.53267 -10,0 0,-5 -9.929,-5.12392 -10,5 -0.1137,16.12849 13.6801,15.26849 29.7832,8.55078 L 1155,609.20898 Z m 112.9004,328.25781 c -1.9692,0.18676 -4.0112,0.4201 -6.1816,0.73828 2.1404,-0.16576 4.2022,-0.41523 6.1816,-0.73828 z M 460.17383,718.58789 459.89648,960 550.65039,960.07227 575.32227,929.25 C 552.67896,836.10259 513.07278,767.38224 460.17383,718.58789 Z m 362.20703,5.32813 a 10,10 0 0 0 -10,10 10,10 0 0 0 10,10 10,10 0 0 0 10,-10 10,10 0 0 0 -10,-10 z M 620,735 a 10,10 0 0 0 -10,10 10,10 0 0 0 10,10 10,10 0 0 0 10,-10 10,10 0 0 0 -10,-10 z m 48.0293,3.2832 a 10,10 0 0 0 -10,10 10,10 0 0 0 10,10 10,10 0 0 0 10,-10 10,10 0 0 0 -10,-10 z m 109.60547,1.23242 a 10,10 0 0 0 -10,10 10,10 0 0 0 10,10 10,10 0 0 0 10,-10 10,10 0 0 0 -10,-10 z m -76.76368,15.18946 a 10,10 0 0 0 -10,10 10,10 0 0 0 10,10 10,10 0 0 0 10,-10 10,10 0 0 0 -10,-10 z m 45.1543,2.05273 a 10,10 0 0 0 -10,10 10,10 0 0 0 10,10 10,10 0 0 0 10,-10 10,10 0 0 0 -10,-10 z M 52.5,772.5 a 7.5,7.5 0 0 0 -7.5,7.5 7.5,7.5 0 0 0 7.5,7.5 7.5,7.5 0 0 0 7.5,-7.5 7.5,7.5 0 0 0 -7.5,-7.5 z m 430,10 c 6.90356,0 12.5,5.59644 12.5,12.5 0,6.90356 -5.59644,12.5 -12.5,12.5 -6.90356,0 -12.5,-5.59644 -12.5,-12.5 0,-6.90356 5.59644,-12.5 12.5,-12.5 z m 144.88867,3.40234 a 10,10 0 0 0 -10,10 10,10 0 0 0 10,10 10,10 0 0 0 10,-10 10,10 0 0 0 -10,-10 z m 154.76172,2.875 a 10,10 0 0 0 -10,10 10,10 0 0 0 10,10 10,10 0 0 0 10,-10 10,10 0 0 0 -10,-10 z m -111.6582,0.82032 a 10,10 0 0 0 -10,10 10,10 0 0 0 10,10 10,10 0 0 0 10,-10 10,10 0 0 0 -10,-10 z M 37.5,790 a 7.5,7.5 0 0 0 -7.5,7.5 7.5,7.5 0 0 0 7.5,7.5 7.5,7.5 0 0 0 7.5,-7.5 7.5,7.5 0 0 0 -7.5,-7.5 z m 35,2.5 A 7.5,7.5 0 0 0 65,800 7.5,7.5 0 0 0 72.5,807.5 7.5,7.5 0 0 0 80,800 7.5,7.5 0 0 0 72.5,792.5 Z M 55,805 l -25,75 15,-15 10,30 5,-30 10,15 z m 648.33398,1.01758 a 10,10 0 0 0 -10,10 10,10 0 0 0 10,10 10,10 0 0 0 10,-10 10,10 0 0 0 -10,-10 z m 47.20704,0 a 10,10 0 0 0 -10,10 10,10 0 0 0 10,10 10,10 0 0 0 10,-10 10,10 0 0 0 -10,-10 z m -373.89454,9.0039 c 0.99694,15.698 1.91025,31.45403 2.72461,47.21875 15.94722,1.63434 32.20958,4.04575 48.73243,7.03516 -11.30761,-23.03035 -29.27275,-41.87876 -51.45704,-54.25391 z M 254.5293,815.4375 c -24.40212,13.71317 -43.63391,35.3507 -54.45899,61.7793 17.5701,-4.56577 35.72703,-8.56921 54.34375,-11.53907 -0.0358,-16.67402 0.0135,-33.40021 0.11524,-50.24023 z M 522.5,827.5 c 6.90356,0 12.5,5.59644 12.5,12.5 0,6.90356 -5.59644,12.5 -12.5,12.5 -6.90356,0 -12.5,-5.59644 -12.5,-12.5 0,-6.90356 5.59644,-12.5 12.5,-12.5 z m 110.22656,13 a 10,10 0 0 0 -10,10 10,10 0 0 0 10,10 10,10 0 0 0 10,-10 10,10 0 0 0 -10,-10 z m 43.10352,3.28516 a 10,10 0 0 0 -10,10 10,10 0 0 0 10,10 10,10 0 0 0 10,-10 10,10 0 0 0 -10,-10 z m 108.7832,2.46289 a 10,10 0 0 0 -10,10 10,10 0 0 0 10,10 10,10 0 0 0 10,-10 10,10 0 0 0 -10,-10 z m -75.94336,13.95703 a 10,10 0 0 0 -10,10 10,10 0 0 0 10,10 10,10 0 0 0 10,-10 10,10 0 0 0 -10,-10 z m 44.33594,3.28515 a 10,10 0 0 0 -10,10 10,10 0 0 0 10,10 10,10 0 0 0 10,-10 10,10 0 0 0 -10,-10 z M 315,865 a 15,15 0 0 0 -15,15 15,15 0 0 0 15,15 15,15 0 0 0 15,-15 15,15 0 0 0 -15,-15 z m 167.5,2.5 c 6.90356,0 12.5,5.59644 12.5,12.5 0,6.90356 -5.59644,12.5 -12.5,12.5 -6.90356,0 -12.5,-5.59644 -12.5,-12.5 0,-6.90356 5.59644,-12.5 12.5,-12.5 z m -170.45898,2.44141 a 6.0259113,6.0741649 0 0 1 6.02734,6.07421 6.0259113,6.0741649 0 0 1 -6.02734,6.07422 6.0259113,6.0741649 0 0 1 -6.0254,-6.07422 6.0259113,6.0741649 0 0 1 6.0254,-6.07421 z m 477.91015,22.69336 a 10,10 0 0 0 -10,10 10,10 0 0 0 10,10 10,10 0 0 0 10,-10 10,10 0 0 0 -10,-10 z m -111.6582,6.56835 a 10,10 0 0 0 -9.10547,5.86719 l 19.08398,4.78321 a 10,10 0 0 0 0.0215,-0.6504 10,10 0 0 0 -10,-10 z M 537.5,905 c 6.90356,0 12.5,5.59644 12.5,12.5 0,6.90356 -5.59644,12.5 -12.5,12.5 -6.90356,0 -12.5,-5.59644 -12.5,-12.5 0,-6.90356 5.59644,-12.5 12.5,-12.5 z m 220.8418,4.87695 a 10,10 0 0 0 -10,10 10,10 0 0 0 10,10 10,10 0 0 0 10,-10 10,10 0 0 0 -10,-10 z M 265,910 a 15,15 0 0 0 -15,15 15,15 0 0 0 15,15 15,15 0 0 0 15,-15 15,15 0 0 0 -15,-15 z m 100,0 a 15,15 0 0 0 -15,15 15,15 0 0 0 15,15 15,15 0 0 0 15,-15 15,15 0 0 0 -15,-15 z m -3.39258,4.94141 a 6.0259113,6.0741649 0 0 1 6.02539,6.07421 6.0259113,6.0741649 0 0 1 -6.02539,6.07422 6.0259113,6.0741649 0 0 1 -6.02734,-6.07422 6.0259113,6.0741649 0 0 1 6.02734,-6.07421 z M 261.02539,915 a 6.0259113,6.0741649 0 0 1 6.02734,6.07422 6.0259113,6.0741649 0 0 1 -6.02734,6.07422 A 6.0259113,6.0741649 0 0 1 255,921.07422 6.0259113,6.0741649 0 0 1 261.02539,915 Z m 450.10742,0.62305 a 10,10 0 0 0 -5.62304,1.73242 l 15.46484,10.04297 a 10,10 0 0 0 0.1582,-1.77539 10,10 0 0 0 -10,-10 z m -385.54492,69.74804 c -33.88107,0.24625 -68.06815,5.05332 -108.61523,14.90431 22.59865,29.8389 58.51755,48.998 98.91211,48.998 42.74974,0 80.48797,-21.4593 102.83398,-54.23434 -33.57872,-6.55244 -63.2358,-9.88524 -93.13086,-9.66797 z"
             id="path1072" />
        </symbol>
        <symbol
           id="CK4"
           preserveAspectRatio="none"
           viewBox="0 0 1300 2000">
          <path
             fill="#000000"
             d="m 672.93164,185.05078 c -70.69497,-0.11093 -145.24163,4.2451 -226.59961,14.0957 l 10.71875,26.28516 c 165.82048,-19.48743 302.23404,-15.74409 436.89063,2.14453 l 8.82031,-26.43164 C 828.22531,191.03949 753.05261,185.1765 672.93164,185.05078 Z M 401.37109,542.79492 c -51.87137,11.76555 -101.64808,29.66945 -149.64257,52.60547 73.92017,10.38352 141.70953,34.22977 198.80468,76.35156 59.30158,43.74958 105.78248,106.84187 135.99414,190.54883 C 565.93866,748.75456 539.99453,646.92567 498.67383,562.88281 L 425,555 Z M 938.56836,564.76367 720,670 544.17773,590.87891 l 21.85157,59.18164 154.61328,69.57422 163.99023,-78.95899 z m 161.95314,24.98828 C 992.68524,704.048 968.49088,820.68054 974.32031,951.08594 l 24.76563,0.59375 C 992.44268,822.22328 1015.8151,711.50425 1126.1387,599.14648 Z M 1245,642.29883 v 187.72656 l 55,-18.35742 V 662.61328 Z M 139.91406,659.40625 c -13.63827,9.14276 -39.990232,28.34766 -39.990232,28.34766 L 100,900 c 13.80712,0 25,11.19288 25,25 0,4.93906 -1.43146,9.54288 -4.18359,13.05664 5.06445,1.28077 12.00602,3.79597 19.5,7.49219 L 140,940 Z M 1050,787 c -4.057,-0.0574 -4.057,6.05738 0,6 h 75 c 4.057,0.0574 4.057,-6.05738 0,-6 z m -27.457,25 -1.1407,6 H 1140 v -6 z m -4.1739,23.5 -1.2421,9 h 77.2675 l 7.2364,-9 z m -2.9961,25 -0.8144,9 h 76.5098 l -1.0352,-9 z m -1.7265,25.5 -0.4922,18 h 98.6309 l -13.7188,-18 z m -0.6016,31 0.1328,6 h 86.4024 l 3.0664,-6 z m 0.4473,20 14.8027,6 h 64.6211 l 1.3945,-6 z m 44.5586,20 8.8652,6 h 23.3828 l 0.3574,-6 z m 25.1699,20 5.5195,6 h 2.0352 l -0.543,-6 z m -725.14843,6.64844 a 3.0003,3.0003 0 0 0 -1.60352,0.52929 c -11.4571,7.66252 -25.35724,12.09571 -40.58398,12.09571 -13.72709,0 -26.37503,-3.60462 -37.12891,-9.92774 a 3.0003,3.0003 0 1 0 -3.04102,5.17188 c 11.66888,6.86112 25.39068,10.75582 40.16993,10.75582 16.39385,0 31.48545,-4.79315 43.91992,-13.10934 a 3.0003,3.0003 0 0 0 -1.73242,-5.51562 z m 33.11914,3.67187 a 3.0003,3.0003 0 0 0 -2.29688,1.05469 c -17.73099,20.2083 -43.76195,32.8984 -73.00976,32.8984 -27.38853,0 -51.95164,-11.1275 -69.52735,-29.13668 a 3.0003,3.0003 0 1 0 -4.29492,4.18945 c 18.66645,19.12683 44.80635,30.94723 73.82227,30.94723 30.98568,0 58.68786,-13.4786 77.51953,-34.94137 a 3.0003,3.0003 0 0 0 -2.21289,-5.01172 z"
             id="path1075" />
        </symbol>
        <symbol
           id="CK5"
           preserveAspectRatio="none"
           viewBox="0 0 1300 2000">
          <path
             stroke="#4444ff"
             stroke-linecap="round"
             stroke-linejoin="round"
             stroke-width="6"
             fill="none"
             d="m 522.89946,3.4796319 c 9.29661,67.9067991 63.93445,63.4315221 67.75323,108.8434281 3.44105,40.92056 -51.6455,45.49043 -54.87181,4.5513 -2.18056,-27.669238 29.20442,-29.893498 31.35531,-2.60075 1.07544,13.64639 -18.52163,15.27184 -19.59707,1.62547 M 522.89946,3.4796319 C 524.35724,72.036617 469.72827,76.62439 473.07023,122.07584 c 3.01145,40.9562 58.09813,36.38784 54.87181,-4.55129 -2.18055,-27.669237 -33.50619,-24.692022 -31.35532,2.60074 1.07543,13.64637 20.67252,12.02091 19.59708,-1.62547 M 803.52042,0.0083487 c -1.61728,68.4319893 60.02097,74.3751393 56.20018,119.7511913 -3.44559,40.92033 -65.70092,35.0118 -62.01247,-5.88624 2.49288,-27.641447 37.89466,-23.901792 35.43571,3.36356 -1.22949,13.6327 -23.37681,11.53047 -22.14733,-2.10222 M 803.49877,0.01017719 C 792.84838,67.580864 731.19583,61.822082 726.83671,107.14617 c -3.93115,40.87425 58.32404,46.78427 62.01249,5.88624 2.49288,-27.641449 -32.97674,-30.628921 -35.43572,-3.36356 -1.22947,13.63267 20.91785,15.7349 22.14733,2.10222 m 106.19939,45.59258 c 1.16201,-1.19056 2.29728,-2.4235 3.40426,-3.70014 13.50821,-15.57848 21.04333,-36.1939 22.97946,-60.172561 C 934.56525,87.881779 954.37443,80.312095 970,71.80741 M 840.76436,152.60864 C 868.5811,141.05431 884.66913,116.44423 881.61643,70.52775 970.03834,57.492744 977.85613,28.050164 1016.1156,4.8041951 M 384.63751,83.185925 c 11.35443,8.151145 23.45585,14.705278 36.84401,17.808805 3.26685,10.61217 6.90989,23.05462 14.4281,36.76454 3.7266,6.7957 8.65875,13.43872 14.82126,19.61206 m 39.92618,-4.32715 C 452.77056,135.41043 453.48263,104.49672 440.89477,75.57957 408.94197,77.33746 370.4588,37.367252 336.36001,-0.19981025 M 611.36441,145.17903 c 10.9253,-14.51559 19.05107,-32.22243 22.98728,-52.755857 9.53387,-4.368773 17.87708,-10.464195 24.62784,-17.581187 6.33421,7.50921 14.31629,14.093979 23.58526,19.026361 2.55022,19.151813 8.80607,36.110233 17.69034,50.522733 M 661.11102,-4.759348e-7 C 654.88793,34.595953 646.01547,66.138383 610.12103,71.520915 608.0095,108.17316 593.55433,131.47767 571.81131,146.87836 m 162.65854,-1.50599 C 718.0019,129.07875 707.96296,106.5856 707.9437,74.453123 672.41682,66.929756 665.35458,34.909688 661.11102,-4.759348e-7 c 0,0 0,0 0,0 M 1019.4178,0.21358779 C 930.31249,123.36835 911.81756,170.70059 893.87725,227.73813 M 331.33098,0.60259911 C 399.55705,102.39104 431.37918,159.18448 457.19072,225.5247 m -10.8591,-26.37816 c 173.56368,-21.01463 316.12692,-17.02291 456.43075,1.99835 m -445.71125,24.28755 c 165.82048,-19.48743 302.23384,-15.74459 436.89043,2.14403 M 428.12856,160.03465 c 187.25473,-23.82143 340.46198,-19.28401 490.61123,1.8767 M -0.06507991,771.26195 C 113.12784,665.90749 248.10586,577.55962 401.37082,542.79581 m 753.62938,66.83842 -195.60523,-71.5629 m 340.60523,124.61168 -55.0003,-20.12206 M 924.37106,538.30385 719.57227,636.91016 552.27312,561.62571 m -8.0958,29.25408 L 720,670 938.56825,564.76344 M 566.02954,650.06 l 154.61304,69.57477 163.99053,-78.9584 m -306.73675,47.6208 143.17395,64.42744 140.14268,-67.4764 m -214.15858,72.15859 78.74832,48.38666 76.56099,-47.88938 m -153.29902,50.76162 81.47046,50.1966 74.0099,-47.51872 m -153.051,59.25997 83.77352,41.3276 71.53084,-45.38307 m -6.20914,-152.11056 7.728,189.33596 M 625.96505,709.92812 589.11088,730.03043 m 57.94431,27.37684 -45.62004,26.06041 m 47.63019,25.19843 -37.57722,23.9974 m 40.00614,37.94015 -30.53279,14.27244 m 181.40197,-126.97185 28.80644,8.17222 m -24.37199,100.47194 4.64687,2.21643 m -6.90011,-57.421 14.6443,6.01042 M 605.78319,959.99999 599.2832,960 m 101.43359,0 -6.5,-10e-6 m -234.21678,3e-5 L 460,718.46094 m -19.11475,205.81335 a 125,125 0 0 1 -125,125.00001 125,125 0 0 1 -125,-125.00001 125,125 0 0 1 125,-125 125,125 0 0 1 125,125 v 0 M 961.50795,538.87077 C 815.96941,693.79869 799.00376,865.21991 808.18772,1039.9956 m 17.5163,-0.01 C 816.30511,864.71821 832.72224,697.90271 979.42759,545.41855 M 949.77485,955.53057 C 943.88877,822.19003 968.12464,698.47509 1075.0971,580.48837 M 999.08576,951.68038 C 992.4425,822.22397 1015.8156,711.50454 1126.1392,599.14677 M 974.32013,951.08637 C 968.4907,820.68097 992.68488,704.04727 1100.5211,589.75122 M 677.5,1000 A 27.5,27.5 0 0 1 650,1027.5 27.5,27.5 0 0 1 622.5,1000 27.5,27.5 0 0 1 650,972.5 27.5,27.5 0 0 1 677.5,1000 v 0 m 14.55452,-34.0624 C 709.00441,925.84824 680.22101,905.82567 650,905.23818 c -30.22101,0.58749 -59.00441,20.61006 -42.05452,60.69942 -45,-34.54713 -65.3769,2.23401 -65.63599,34.0624 0.25909,31.8284 20.63599,68.6096 65.63599,34.0624 -16.94989,40.0894 11.83351,60.112 42.05452,60.6994 30.22101,-0.5874 59.00441,-20.61 42.05452,-60.6994 45,34.5472 65.3769,-2.234 65.63599,-34.0624 -0.25909,-31.82839 -20.63599,-68.60953 -65.63599,-34.0624 v 0 M 498.67402,562.88239 c 41.3207,84.04286 67.26464,185.87217 87.85332,299.41839 C 556.31568,778.59382 509.83478,715.50153 450.5332,671.75195 393.43805,629.63016 325.64841,605.78414 251.28022,595.71366 M 196.20115,960 H 162.65429 M 140,659.36329 V 940 M 100,687.7793 V 900 m 1114.9185,154.9392 A 25,25 0 0 1 1225,1075 v 0 a 25,25 0 0 1 -25,25 25,25 0 0 1 -25,-25 25,25 0 0 1 14.2808,-22.5853 m -10.2067,9.7707 C 1156.1229,1055.0451 1105,1032.1634 1105,970 c 0,-65 45,-75 55,-75 20,0 34.1051,26.64204 34.1051,46.64204 0,40 -39.1051,33.77177 -39.1051,3.35796 0,-20 10,-30 10,-30 l -30,20 m 125,100 a 47.5,20 0 0 1 -47.5,20 47.5,20 0 0 1 -47.5,-20 47.5,20 0 0 1 47.5,-20 47.5,20 0 0 1 47.5,20 v 0 m -66.1509,-95.55831 C 1199.4522,935.88404 1208.1848,932.53182 1220,930 v 0 c 70,-15 59.8446,26.26295 15,30 -21.6833,1.80694 -36.0386,-0.24194 -43.2229,-4.0902 m 66.3883,-2.4205 c 25.2944,6.41437 10.0226,30.03268 -24.0408,31.15309 -50.4324,1.65883 -60.4614,-15.41331 -33.3334,-25.69858 m 46.7435,23.89089 c 31.3983,4.08687 17.2862,31.0324 -17.1468,32.231 -56.6766,1.9729 -59.3511,-22.54884 -13.184,-30.63726 m -31.2457,-70.98302 c 3.48,-5.51081 14.3403,-11.30299 32.4129,-15.17568 v 0 c 70,-15 59.8446,26.26295 15,30 -20.9545,1.74621 -35.0653,-0.10857 -42.4742,-3.70835 m -33.7996,32.7608 C 1162.0973,977.32219 1145,1025 1145,1025 m 10,-151.57224 V 180 l 45,-45 45,45 V 873.42775 M 1105,860 c 0,-20 40,-32.7067 40,0 0,7.45288 -10,7.53267 -10,0 0,-5 -9.929,-5.12392 -10,5 -0.2467,34.99913 65,-10 75,-20 10,10 75.2467,54.99913 75,20 -0.071,-10.12392 -10,-10 -10,-5 0,7.53267 -10,7.45288 -10,0 0,-32.7067 40,-20 40,0 0,50 -85,27.59954 -95,15 -10,12.59954 -95,35 -95,-15 v 0 m 95.4076,-14.37632 c 1.9077,-27.81216 7.833,-71.45499 7.3023,-90.89504 -0.6821,-24.9907 -10.7401,-33.89856 -11.2858,-53.89111 -0.5457,-19.99256 17.4467,-51.39008 16.7646,-76.38077 -0.6821,-24.9907 -15.3003,-53.22304 -15.846,-73.21559 -0.5457,-19.99256 9.3265,-45.27133 8.7808,-65.26389 -0.5457,-19.99255 -17.0888,-55.85995 -17.6345,-75.8525 -0.5457,-19.99255 14.5502,-64.52612 14.0045,-84.51867 -0.5457,-19.99255 -11.8559,-50.10567 -12.2652,-65.10009 -0.4093,-14.99442 13.3013,-62.43872 12.892,-77.43314 C 1202.7111,168.07847 1200.4465,149.67911 1200,135 c -0.037,15.31531 1.7159,33.76847 1.7159,48.76847 0,15 -15,62.05255 -15,77.05255 0,15 10.4844,45.41051 10.4844,65.41051 0,20 -16.3054,64.10509 -16.3054,84.10509 0,20 15.5583,56.30542 15.5583,76.30542 0,20 -10.5583,45 -10.5583,65 0,20 13.8424,48.62069 13.8424,73.62069 0,25 -18.8424,55.89491 -18.8424,75.89491 0,20 9.8112,29.17898 9.8112,54.17898 0,23.25677 -10.1739,80.86223 -10.7473,104.86172 M 203.40468,977.83395 c 85.59108,-21.58175 147.29353,-22.23267 227.62043,-5.81758 M 279.80507,804.71486 c -0.5071,27.73989 -0.59057,55.30305 -0.35663,82.68813 -30.26406,3.32862 -59.22478,9.70945 -87.13962,18.52893 M 350.72792,804.2916 c 2.05678,26.95785 3.64214,53.9925 4.81238,81.07906 26.31559,1.50782 53.67624,5.31289 82.16046,11.71839 M 217.22532,1000.1643 c 76.07132,-18.43261 129.85852,-19.10372 201.29917,-5.1651 M 254.64372,815.46829 c -0.21617,16.80985 -0.26541,33.53542 -0.22966,50.20944 -18.61672,2.96986 -36.77403,6.9726 -54.47676,11.92212 m 228.23575,-8.05723 c -16.59171,-3.25658 -32.85474,-5.66805 -48.80196,-7.30239 -0.81436,-15.76472 -1.72691,-31.52041 -2.81265,-47.25629 M 330,880 a 15,15 0 0 1 -15,15 15,15 0 0 1 -15,-15 15,15 0 0 1 15,-15 15,15 0 0 1 15,15 v 0 m 0,-45 a 15,15 0 0 1 -15,15 15,15 0 0 1 -15,-15 15,15 0 0 1 15,-15 15,15 0 0 1 15,15 v 0 m 0,90 a 15,15 0 0 1 -15,15 15,15 0 0 1 -15,-15 15,15 0 0 1 15,-15 15,15 0 0 1 15,15 v 0 m -50,0 a 15,15 0 0 1 -15,15 15,15 0 0 1 -15,-15 15,15 0 0 1 15,-15 15,15 0 0 1 15,15 v 0 m -45,10 a 15,15 0 0 1 -15,15 15,15 0 0 1 -15,-15 15,15 0 0 1 15,-15 15,15 0 0 1 15,15 v 0 m 145,-10 a 15,15 0 0 1 -15,15 15,15 0 0 1 -15,-15 15,15 0 0 1 15,-15 15,15 0 0 1 15,15 v 0 m 45,5 a 15,15 0 0 1 -15,15 15,15 0 0 1 -15,-15 15,15 0 0 1 15,-15 15,15 0 0 1 15,15 v 0 M 285.24246,803.19971 a 30.652709,27.5 0 0 1 -0.01,-0.69971 30.652709,27.5 0 0 1 30.65271,-27.5 30.652709,27.5 0 0 1 30.65271,27.5 v 0 a 30.652709,27.5 0 0 1 -0.0111,0.74119 M 303.33594,777.96363 C 300.16664,763.71638 289.40005,725.93333 265,730 c -23.93685,3.98948 -41.63933,59.0169 -20,70 16.94523,8.6006 16.08956,-46.8725 35,-45 9.35264,0.92609 13.58085,21.49426 14.69108,28.02722 m 9.40408,-5.88375 c 4.4e-4,0.008 8.8e-4,0.0157 10e-4,0.0236 m 21.8422,-0.61289 C 327.44566,750.40572 331.61384,724.78477 340,700 l -25,-30 -25,30 c 8.44914,24.97093 12.61672,50.79065 14.09516,77.14347 m 21.84229,-0.57353 c 3e-4,-0.005 6.1e-4,-0.0105 9.1e-4,-0.0158 m 9.62617,5.03566 C 336.98856,773.91148 341.25333,755.86608 350,755 c 18.91044,-1.8725 18.05477,53.6006 35,45 21.63933,-10.9831 3.93685,-66.01052 -20,-70 -24.00176,-4.00029 -34.81152,32.49405 -38.17465,47.24743 M 177.59568,945 l -38.54101,10e-6 m 37.12111,-15.00002 -36.17578,2e-5 m 36.20703,-15 L 140,914.99999 M 178.03906,900.00001 140,900.00002 m 41.58201,-15.00004 -41.58203,10e-6 m 47.125,-15.00002 -47.12499,3e-5 m 54.60742,-15.00001 -54.60742,-2e-5 M 204.60937,840 140,840.00003 m 77.78129,-15.00002 -77.78126,2e-5 m 93.26363,-15.00001 -93.26367,-3e-5 M 222.86525,795.00001 140,794.99998 m 80.21681,-14.99996 -80.2168,2e-5 m 81.7617,-15.00006 -81.76171,3e-5 m 86.44727,-15.00002 H 140 m 319.99999,194.99999 h -5.82617 M 460,930 h -4.40625 M 460,915 h -4.43555 m 4.43554,-15.00001 h -6.27148 m 6.27148,-15 h -9.8125 M 460,870.00001 H 444.66211 M 460,854.99999 h -22.81055 m 22.81054,-15 h -32.8125 m 32.81252,-14.99998 -46.00586,10e-6 M 460,810 l -63.17383,-10e-6 M 460,795.00001 H 407.11524 M 460,780 H 409.7832 M 460,765 H 408.23828 M 460,749.99999 H 403.55273 M 1300,1040 h -41.5703 M 1245,830 1300.0002,811.6666 M 865.53857,536.83251 c 25.59043,3.75924 49.27112,-7.0426 49.10581,-33.28388 -0.15063,-23.91156 -23.26763,-33.14341 -37.8994,-27.02609 m 9.14835,61.48859 c 25.59043,3.75924 49.27112,-7.0426 49.10581,-33.28388 -0.14584,-23.15041 -21.81918,-32.5408 -36.47735,-27.56363 m 7.37154,60.84751 c 25.59043,3.75924 49.27112,-7.0426 49.10581,-33.28388 -0.15063,-23.91156 -23.26763,-33.14341 -37.8994,-27.02609 m 3.79359,60.30997 c 25.59043,3.75924 49.27112,-7.0426 49.10581,-33.28388 -0.14389,-22.84129 -21.24423,-32.28757 -35.88649,-27.75532 m 6.78068,61.0392 c 25.59043,3.75924 49.27112,-7.0426 49.10581,-33.28388 -0.15063,-23.91156 -23.26763,-33.14341 -37.8994,-27.02609 m 8.79359,60.30997 c 25.59043,3.75924 49.27107,-7.0426 49.10577,-33.28388 -0.1506,-23.91156 -23.26759,-33.14341 -37.89936,-27.02609 m 8.79363,60.30999 c 25.59043,3.75924 49.27103,-7.0426 49.10573,-33.28388 -0.1506,-23.91156 -23.2676,-33.14341 -37.89932,-27.02609 M 754.93884,214.82768 c 58.34598,120.26296 27.10929,213.5326 28.09459,252.46562 C 785,545 895,560 894.64438,503.54863 894.4239,468.54933 845,465 845,495 c -0.58884,16.60389 31.33307,20.56835 25,0 M 772.97952,215.89263 c 58.23362,119.78121 37.19917,213.16303 38.18157,251.98122 0.81966,32.38769 23.43213,43.3432 49.50304,41.01851 M 791.0011,216.95348 c 57.74588,119.2716 39.18049,212.21686 40.15999,250.92037 0.41416,16.36491 6.39223,27.25797 15.56903,33.73083 M 811.03389,218.61719 c 47.4415,81.93703 34.36333,176.1067 41.47193,260.64511 M 830.07499,220.3536 C 877.7565,299.70708 867.69409,390.71711 880.00466,475 M 848.35018,222.12381 c 45.91566,80.08836 39.24698,178.27929 59.15331,252.77829 M 867.12958,224.32371 c 44.88881,80.25279 39.31817,181.40196 67.87275,251.10903 M 886.0729,226.53891 c 44.62204,81.12034 39.36932,189.0492 76.42826,250.11804 M 897.635,216.50054 C 949.20935,300.1396 951.802,432.02725 990,475 M 774.52433,561.15249 C 804.21197,565.21383 839.25108,548.55039 845,537.05255 M 755,215 C 846.36834,433.50932 720.99414,442.80052 724.06221,515.88799 724.90768,536.02872 735,545 748.28541,549.57549 m 31.67026,-1.19406 c 21.55339,5.2519 48.55985,-2.60008 66.06711,-11.30103 M 790.4446,381.67337 c -9.30199,47.9588 -51.77834,73.17291 -48.8776,123.23963 0.65368,11.28245 7.62039,16.12057 11.39398,23.11384 m 36.73587,-131.54545 c -10.50178,31.11022 -33.46367,50.38317 -31.00179,92.87516 3.09931,53.494 45.33224,53.9396 77.63334,45.16281 M 788.24973,411.56204 c -8.79545,19.55292 -20.03258,35.14107 -18.1033,68.4404 2.59497,44.78898 31.60605,55.44215 59.93823,52.57176 M 700,505 c -4.57903,71.22644 80,80 80,40 0,-30 -50,-20 -30,5 m -67,-39 c 0,30 24.83261,77.83522 51.12918,54.58055 M 666,517 c 0,35 22.57543,70.89552 49.35562,55.67781 M 649,523 c 0,30 16,62 46.42097,53.22644 M 632,529 c 5,30 13,56 45.45288,49.03343 M 615,535 c 10,30 15,40 39.61549,43.9696 M 575,535 c -10,23.79694 -15.38451,26.85119 -40,30 m 23,-34.75939 C 553,554.03755 542.45288,565.52611 510,560 m 31,-34.51878 C 541,549.27816 510.42097,566.95947 480,560 m 27,-44.03756 c 0,23.79694 -28.11668,58.86778 -54.41325,40.42145 M 490,511.20305 C 500,566.72925 395,570 393.91626,525.21282 392.94313,484.99717 450,490 450,520 c 0,23.64294 -40.81764,30.22444 -40,5 0.2664,-8.21842 10,-15 20,-10 m 135,40 c 20,25 50,5 50,-20 m -91,-14.27817 c 0,20.17139 -20.53415,37.88267 -45.31856,38.57265 M 463.46556,224.87042 C 451.46332,265.44226 470,272.05028 470,325 c 0,55 -65,45 -65,5 0,-30 40,-25 40,0 0,18.40484 -30,20 -30,5 0,-15 15,-10 15,-10 m 26.51336,-100.17164 c -14.60221,44.60824 -6.85552,72.64285 -11.6423,107.21465 m -15.18746,78.64924 c 0,0 -15,-5 -15,10 0,15 30,13.40484 30,-5 0,-25 -44.10509,-30.41051 -44.10509,-0.41051 0,40 64.42149,44.71826 65,-5 C 465.87713,384.61802 460,380 466.73615,342.63806 450,370 466.90016,406.04789 444.10509,420.41051 M 465,405 c 18.91733,89.45692 2.8301,125.09854 -30,135 m 30,-265 c 0,0 20,-20 40,-20 20,0 27.54291,6.06121 32.53695,6.30542 C 543.0607,261.57553 550,255 555,250 v 10 c 0,0 -12.05255,4.66338 -17.05255,4.66338 -5,0 -26.04445,-5.80813 -34.17898,-6.30542 C 499.79535,258.11507 471.5435,266.39488 465,275 m 275,10 c 0,0 -32.9064,-33.28407 -52.9064,-33.28407 -20,0 -49.29989,8.52426 -54.29393,8.76847 C 627.27592,260.75451 615,260 610,250 v 10 c 0,0 17.38917,3.84236 22.38917,3.84236 5,0 50.16607,-9.23425 55.93596,-8.76847 C 704.21011,256.35623 733.4565,276.39488 740,285 M 555,260 c 0,0 15,15 15,20 0,20 -11.71593,30.41051 -11.71593,50.41051 0,20 -13.28407,59.58949 -12.87356,68.28407 C 545.64632,403.68902 560,410 565,410 c 5,0 5,20 5,20 m 35,-55 c 25,5 28.97367,36.32456 10,30 -45,-15 -45,10 -12.53695,-2.46305 M 530,460 v 10 l 5,-5 -5,-5 v 0 m 115,0 v 10 l -5,-5 5,-5 v 0 m -110,5 c 10,0 15,-10 25,-10 10,0 15,5 20,5 5,0 16.56814,-7.12644 21.56814,-7.12644 C 606.56814,452.87356 625,465 640,465 m -75,20 c 5.86123,12.36016 30,15 35,0 M 470,310 c 10,-5 20,-10 35.74713,-9.17898 C 521.53707,301.64427 535,325 550,325 c -25,0 -30,10 -45,10 -15,0 -25,-5 -35,-10 m 150,-10 c 0,0 20,-20 35,-20 15,0 50,20 60,20 -22.34673,-0.0507 -44.76433,15 -60,15 -20,0 -35,-15 -35,-15 M 495,430 c 5.81906,1.43908 15,-12.65844 0,-12.44589 -22.65292,0.321 -14.29708,33.46885 9.46432,33.43195 C 519.0676,450.96337 535,432.09863 550,430 v -10 c -30,10 -25,25 -45,30 m 185,-15 c -12.38091,-5 -19.67266,-21.47102 2.42784,-23.21688 C 715,410 710,450 667.29664,450.98606 645.72037,451.48428 632.31731,430 600,430 v -10 c 52.09763,5 36.9472,25 66.50496,30 m 91.34216,550 A 107.84712,96.547858 0 0 1 650,1096.5478 107.84712,96.547858 0 0 1 542.15288,1000 107.84712,96.547858 0 0 1 650,903.45216 107.84712,96.547858 0 0 1 757.84712,1000 v 0 M 533.14918,565.48022 c 44.80084,97.37577 70.461,213.43828 91.43118,340.76095 M 721.07031,752.72461 738.1827,944.621 m -92.64401,-225.88465 7.24869,184.84176 M 551.9629,960.00004 435.61326,960 m 370.64843,-3e-5 -58.25193,3e-5 m -0.002,-0.005 59.20999,-37.00622 M 201.98585,621.1053 c 182.60583,10.65772 322.19078,96.3116 373.56283,309.0787 M 754.22736,975 h 51.21992 m -312.94807,0 h 52.34563"
             id="path1078" />
        </symbol>
        <symbol
           id="CK6"
           preserveAspectRatio="none"
           viewBox="0 0 1300 2000">
          <path
             stroke="#4444ff"
             stroke-linecap="round"
             stroke-linejoin="round"
             stroke-width="3"
             fill="none"
             d="m 1205,585.2246 v -84.22071 m 0,163.06055 V 585.2246 m 0,150.84375 v -72.00391 m 0,-187.33593 V 140 m 30,728.53708 V 170 m -10,692.94531 V 160 m -10,696.56639 V 150 m -10,699.23239 v -52.50778 m -10,-566.68945 v -11.12303 m 0,66.79882 v -55.67579 m 0,140.15041 10e-5,-27.11328 M 1195,440.06642 v -69.88085 m 5.5583,533.91952 c 3.8869,4.86144 4.6037,9.57234 2.4856,23.82416 M 1205,935 c 3.8869,4.86144 6.7076,14.03225 2.537,24.38423 m -4.127,-1.19844 c 3.8869,4.86144 4.6551,15.26378 0.8949,23.76847 m -4.4581,7.87357 c 3.8869,4.86144 3.6288,14.44277 0.074,22.53697 M 1240,907.2578 c 1.2762,3.84382 1.458,7.24986 0,10 m 0.6155,21.96069 c 1.2762,3.84382 1.458,7.24986 0,10 m -2.463,18.28407 c 1.2762,3.84382 1.458,7.24986 0,10 m -1.5105,16.67642 c 1.2762,3.84382 1.458,7.24992 0,10.00002 m -42.7929,-64.73731 C 1177.1346,940 1180,970 1180,970 M 480,305 c 5,-10 19.18861,-20 35,-20 15,0 30,20 30,20 m 85,2.10925 c 0,0 15.59102,-23.50547 32.587,-23.70125 16.86922,-0.19431 30.73329,9.62285 34.403,15.199 M 620,315 c 5,15 14.81085,31.86678 40,30 M 470,325 c -3.26385,17.63806 35,25 35,25 m 13.89909,-44.17502 c 0.71086,2.40791 1.10092,5.02743 1.10092,7.76715 0,11.82324 -7.26432,21.40787 -16.22532,21.40787 -8.961,0 -16.22533,-9.58463 -16.22533,-21.40787 0,-4.15742 0.8982,-8.03805 2.45252,-11.32251 M 668.2595,297.6412 c 1.51174,3.25287 2.38331,7.07961 2.38331,11.17494 0,11.82324 -7.26432,21.40787 -16.22532,21.40787 -8.961,0 -16.22533,-9.58463 -16.22533,-21.40787 0,-3.67918 0.70344,-7.14158 1.94254,-10.16585 M 560,515 c 15,-10 35,-5 40,0"
             id="path1081" />
          <use
             xlink:href="#C"
             height="90"
             width="90"
             transform="matrix(0.9961947,0.08471538,-0.08715574,0.96830125,852.09325,811.61425)"
             id="use1083"
             x="0"
             y="0" />
          <use
             xlink:href="#C"
             height="90"
             width="90"
             transform="matrix(0.96592583,0.25157211,-0.25881905,0.9388799,895.18019,667.42966)"
             id="use1085"
             x="0"
             y="0" />
          <use
             xlink:href="#C"
             height="90"
             width="90"
             transform="matrix(0.90630779,0.41078495,-0.42261826,0.88093117,970.23397,542.87277)"
             id="use1087"
             x="0"
             y="0" />
        </symbol>
        <rect
           width="239"
           height="335"
           x="-119.5"
           y="-167.5"
           rx="12"
           ry="12"
           fill="#ffffff"
           stroke="#000000"
           id="rect1090" />
        <use
           width="164.8"
           height="260.79999"
           x="-82.400002"
           y="-130.39999"
           xlink:href="#CK1"
           id="use1092" />
        <use
           transform="scale(-1)"
           width="164.8"
           height="260.79999"
           x="-82.400002"
           y="-130.39999"
           xlink:href="#CK1"
           id="use1094" />
        <use
           width="164.8"
           height="260.79999"
           x="-82.400002"
           y="-130.39999"
           xlink:href="#CK2"
           id="use1096" />
        <use
           transform="scale(-1)"
           width="164.8"
           height="260.79999"
           x="-82.400002"
           y="-130.39999"
           xlink:href="#CK2"
           id="use1098" />
        <use
           width="164.8"
           height="260.79999"
           x="-82.400002"
           y="-130.39999"
           xlink:href="#CK3"
           id="use1100" />
        <use
           transform="scale(-1)"
           width="164.8"
           height="260.79999"
           x="-82.400002"
           y="-130.39999"
           xlink:href="#CK3"
           id="use1102" />
        <use
           width="164.8"
           height="260.79999"
           x="-82.400002"
           y="-130.39999"
           xlink:href="#CK4"
           id="use1104" />
        <use
           transform="scale(-1)"
           width="164.8"
           height="260.79999"
           x="-82.400002"
           y="-130.39999"
           xlink:href="#CK4"
           id="use1106" />
        <use
           width="164.8"
           height="260.79999"
           x="-82.400002"
           y="-130.39999"
           xlink:href="#CK5"
           id="use1108" />
        <use
           transform="scale(-1)"
           width="164.8"
           height="260.79999"
           x="-82.400002"
           y="-130.39999"
           xlink:href="#CK5"
           id="use1110" />
        <use
           width="164.8"
           height="260.79999"
           x="-82.400002"
           y="-130.39999"
           xlink:href="#CK6"
           id="use1112" />
        <use
           transform="scale(-1)"
           width="164.8"
           height="260.79999"
           x="-82.400002"
           y="-130.39999"
           xlink:href="#CK6"
           id="use1114" />
        <use
           xlink:href="#CK"
           height="32"
           width="32"
           x="-114.4"
           y="-156"
           id="use1116" />
        <use
           xlink:href="#C"
           height="26.768999"
           width="26.768999"
           x="-111.784"
           y="-119"
           id="use1118" />
        <use
           xlink:href="#C"
           height="55.68"
           width="55.68"
           x="-86.595001"
           y="-132.16"
           id="use1120" />
        <g
           transform="scale(-1)"
           id="g1128">
          <use
             xlink:href="#CK"
             height="32"
             width="32"
             x="-114.4"
             y="-156"
             id="use1122" />
          <use
             xlink:href="#C"
             height="26.768999"
             width="26.768999"
             x="-111.784"
             y="-119"
             id="use1124" />
          <use
             xlink:href="#C"
             height="55.68"
             width="55.68"
             x="-86.595001"
             y="-132.16"
             id="use1126" />
        </g>
        <use
           xlink:href="#CKX"
           stroke="#4444ff"
           fill="none"
           id="use1130"
           x="0"
           y="0"
           width="100%"
           height="100%" />
      </g>
    </g>
    <g
       id="g1349"
       transform="rotate(24.103344,341.1361,139.54485)">
      <g
         id="g1260"
         transform="matrix(0.26458333,0,0,0.26458333,123.47852,152.87817)">
        <symbol
           id="HA"
           viewBox="-500 -500 1000 1000"
           preserveAspectRatio="xMinYMid">
          <path
             d="m -270,460 h 160 M -200,450 0,-460 200,450 m -90,10 H 270 M -120,130 h 240"
             stroke="#ff0000"
             stroke-width="80"
             stroke-linecap="square"
             stroke-miterlimit="1.5"
             fill="none"
             id="path1221" />
        </symbol>
        <symbol
           id="H"
           viewBox="-600 -600 1200 1200"
           preserveAspectRatio="xMinYMid">
          <path
             d="m 0,-300 c 0,-100 100,-200 200,-200 100,0 200,100 200,250 C 400,0 0,400 0,500 0,400 -400,0 -400,-250 c 0,-150 100,-250 200,-250 100,0 200,100 200,200 z"
             fill="#ff0000"
             id="path1224" />
        </symbol>
        <rect
           width="239"
           height="335"
           x="-119.5"
           y="-167.5"
           rx="12"
           ry="12"
           fill="#ffffff"
           stroke="#000000"
           id="rect1227" />
        <use
           xlink:href="#H"
           height="70"
           width="70"
           x="-35"
           y="-35"
           id="use1229" />
        <use
           xlink:href="#HA"
           height="32"
           width="32"
           x="-114.4"
           y="-156"
           id="use1231" />
        <use
           xlink:href="#H"
           height="26.768999"
           width="26.768999"
           x="-111.784"
           y="-119"
           id="use1233" />
        <g
           transform="scale(-1)"
           id="g1239">
          <use
             xlink:href="#HA"
             height="32"
             width="32"
             x="-114.4"
             y="-156"
             id="use1235" />
          <use
             xlink:href="#H"
             height="26.768999"
             width="26.768999"
             x="-111.784"
             y="-119"
             id="use1237" />
        </g>
      </g>
    </g>
  </g>
  <g
     inkscape:groupmode="layer"
     id="layer2"
     inkscape:label="backdropForTitle">
    <path
       id="rect1374"
       style="opacity:0.998;fill:#005c00;fill-opacity:1;fill-rule:evenodd;stroke:#b8ffb8;stroke-width:2.24044;stroke-linecap:butt;stroke-linejoin:miter;stroke-miterlimit:4;stroke-dasharray:none;stroke-opacity:1;paint-order:stroke markers fill"
       d="m 18.122048,58.674761 c 47.115729,-12.55894 97.156192,-12.597529 144.301682,-0.05603 2.12885,0.566309 3.42566,2.502427 2.91576,4.306465 l -14.0424,49.681968 c -0.5099,1.80403 -2.2614,2.87279 -3.93531,2.42377 -37.07033,-9.94397 -77.062326,-9.90675 -114.156254,0.0519 -1.67497,0.44968 -3.427818,-0.61857 -3.938268,-2.42246 L 15.209777,62.982261 c -0.510452,-1.803899 0.784769,-3.740403 2.912271,-4.3075 z"
       inkscape:path-effect="#path-effect1544"
       inkscape:original-d="M 25.842617,58.595498 H 154.90917 c 1.94266,0 3.50661,1.509253 3.50661,3.383976 v 51.628566 c 0,1.87472 -1.56395,3.38397 -3.50661,3.38397 H 25.842617 c -1.942659,0 -3.506605,-1.50925 -3.506605,-3.38397 V 61.979474 c 0,-1.874723 1.563946,-3.383976 3.506605,-3.383976 z" />
    <g
       id="g1535"
       transform="translate(51.924271,117.14124)">
      <g
         id="layer4"
         inkscape:label="topGrey">
        <ellipse
           style="fill:#999999;fill-opacity:1;fill-rule:evenodd;stroke:#000000;stroke-width:0.649088;stroke-miterlimit:4;stroke-dasharray:none;stroke-opacity:1"
           id="path975"
           cx="35.995258"
           cy="29.892904"
           rx="36.38718"
           ry="19.162954"
           transform="matrix(0.99998788,-0.00492352,0.02407087,0.99971025,0,0)" />
      </g>
      <g
         id="layer2-4"
         inkscape:label="bottomRed">
        <ellipse
           style="fill:#ff0000;fill-rule:evenodd;stroke:#000000;stroke-width:0.659048;stroke-miterlimit:4;stroke-dasharray:none;stroke-opacity:1"
           id="path833-1"
           ry="13.590925"
           rx="28.148294"
           cy="26.932362"
           cx="36.78743"
           transform="rotate(-0.64002041)" />
      </g>
      <g
         id="layer3-7"
         inkscape:label="middleRed">
        <rect
           style="fill:#ff0000;fill-opacity:1;fill-rule:evenodd;stroke:none;stroke-width:0.396046;stroke-linecap:round;stroke-linejoin:round;stroke-miterlimit:4;stroke-dasharray:none;stroke-opacity:1;paint-order:normal"
           id="rect964"
           width="56.358162"
           height="15.18919"
           x="8.5725098"
           y="13.124323"
           ry="3.0588806"
           transform="rotate(-0.64002041)" />
      </g>
      <g
         inkscape:label="topRed"
         id="layer1-9">
        <ellipse
           style="fill:#ff0000;fill-rule:evenodd;stroke:#000000;stroke-width:1;stroke-linecap:round;stroke-linejoin:round;stroke-miterlimit:4;stroke-dasharray:none;stroke-opacity:1;paint-order:stroke fill markers"
           id="path833-11"
           cx="36.751579"
           cy="13.124323"
           rx="28.179081"
           ry="12.209587"
           transform="rotate(-0.64002041)" />
        <path
           style="fill:none;stroke:#000000;stroke-width:0.60533;stroke-linecap:round;stroke-linejoin:bevel;stroke-miterlimit:4;stroke-dasharray:none;stroke-opacity:1;paint-order:normal"
           d="m 8.4479528,13.480249 0.423207,13.075228"
           id="path948" />
        <path
           style="fill:none;stroke:#000000;stroke-width:0.522;stroke-linecap:round;stroke-linejoin:bevel;stroke-miterlimit:4;stroke-dasharray:none;stroke-opacity:1;paint-order:stroke fill markers"
           d="m 65.230912,13.628973 -0.039,13.304833"
           id="path950" />
        <g
           id="g1028"
           transform="matrix(0.06881154,0,0,0.06881154,17.888553,-4.7680205)">
          <path
             style="fill:#fff3de"
             d="m 440.807,190.135 c 4.389,-2.282 8.511,-5.259 12.195,-8.943 0.474,-0.474 0.937,-0.955 1.387,-1.444 27.886,-30.192 -15.993,-74.071 -46.185,-46.185 -0.488,0.451 -0.969,0.913 -1.444,1.387 -10.827,10.827 -15.595,25.414 -14.315,39.558 17.551,1.34 34.028,6.852 48.362,15.627 z"
             id="path980" />
          <path
             style="fill:#fae2c0"
             d="m 412.862,129.893 c 19.087,7.669 31.349,33.083 13.264,52.734 5.096,2.137 10.004,4.645 14.681,7.508 4.389,-2.282 8.511,-5.259 12.195,-8.943 0.474,-0.474 0.937,-0.955 1.387,-1.444 26.482,-28.672 -11.751,-69.676 -41.527,-49.855 z"
             id="path982" />
          <path
             style="fill:none;stroke:#000000;stroke-width:15;stroke-linecap:round;stroke-linejoin:round;stroke-miterlimit:10"
             d="m 441.801,189.605 c 4.018,-2.207 7.797,-5.008 11.202,-8.413 0.474,-0.474 0.937,-0.955 1.387,-1.444 27.886,-30.192 -15.993,-74.071 -46.185,-46.185 -0.488,0.451 -0.969,0.913 -1.444,1.387 -10.566,10.566 -15.358,24.712 -14.394,38.532 18.05,1.354 34.88,7.078 49.434,16.123 z"
             id="path984" />
          <path
             style="fill:#fae2c0"
             d="m 491.908,263.415 c -9.113,-51.297 -53.929,-90.248 -107.843,-90.248 -4.433,0 -8.801,0.273 -13.095,0.785 -0.21,-0.347 -0.426,-0.69 -0.639,-1.036 0.796,-13.64 -3.991,-27.544 -14.412,-37.966 -0.604,-0.604 -1.22,-1.19 -1.847,-1.756 -10.161,-9.178 -21.594,-10.583 -31.382,-7.259 -21.029,-12.569 -45.618,-19.798 -71.898,-19.798 v 0 c -67.11,0 -126.615,43.141 -147.482,106.924 l -22.784,69.642 h 194.004 116.621 84.403 c 10.235,0 18.145,-9.208 16.354,-19.288 z"
             id="path986" />
          <g
             id="g990">
            <path
               style="fill:#fed2a4"
               d="m 491.908,263.415 c -9.113,-51.297 -53.929,-90.248 -107.843,-90.248 -3.338,0 -6.639,0.156 -9.9,0.451 46.023,7.669 82.433,43.75 90.579,89.61 1.808,10.178 -6.178,19.476 -16.515,19.476 h 27.323 c 10.237,-0.001 18.147,-9.209 16.356,-19.289 z"
               id="path988" />
          </g>
          <path
             style="fill:none;stroke:#000000;stroke-width:15;stroke-linecap:round;stroke-linejoin:round;stroke-miterlimit:10"
             d="m 417,282.703 h 53.736 c -7.493,0 -13.624,-6.131 -13.624,-13.624 0,-7.493 6.131,-13.624 13.624,-13.624 h 19.442 c -12.113,-47.312 -55.026,-82.288 -106.114,-82.288 -4.433,0 -8.801,0.273 -13.095,0.785 -0.21,-0.347 -0.426,-0.69 -0.639,-1.036 0.796,-13.64 -3.991,-27.544 -14.412,-37.966 -0.604,-0.604 -1.22,-1.19 -1.847,-1.756 -10.161,-9.177 -21.594,-10.583 -31.382,-7.259 -21.029,-12.569 -45.618,-19.799 -71.898,-19.799 v 0 c -36.371,0 -70.504,12.676 -97.467,34.437"
             id="path992" />
          <path
             style="fill:none;stroke:#000000;stroke-width:15;stroke-linecap:round;stroke-linejoin:round;stroke-miterlimit:10"
             d="m 128.736,165.485 c -10.978,13.977 -19.674,29.99 -25.428,47.576 L 80.524,282.703 H 382"
             id="path994" />
          <path
             style="fill:none;stroke:#000000;stroke-width:15;stroke-linecap:round;stroke-linejoin:round;stroke-miterlimit:10"
             d="m 354.071,133.194 c -31.117,-28.106 -74.183,16.654 -45.308,47.059 0.3,0.316 0.604,0.628 0.914,0.938 4.253,4.254 9.088,7.572 14.247,9.956 -4.747,3.124 -9.236,6.608 -13.43,10.412"
             id="path996" />
          <path
             style="fill:none;stroke:#000000;stroke-width:15;stroke-linecap:round;stroke-linejoin:round;stroke-miterlimit:10"
             d="M 292,282.703 H 43.467 C 23.603,282.703 7.5,298.806 7.5,318.67 v 0 c 0,19.864 16.103,35.967 35.967,35.967 H 91"
             id="path998" />
          <path
             style="fill:none;stroke:#000000;stroke-width:15;stroke-linecap:round;stroke-linejoin:round;stroke-miterlimit:10"
             d="m 126,354.637 h 103.297 c 14.146,0 25.613,11.467 25.613,25.613 v 0 c 0,14.146 -11.467,25.613 -25.613,25.613 h -27.793"
             id="path1000" />
          <path
             style="fill:#fae2c0"
             d="m 147.009,245.646 h 50.136 c 20.466,0 37.057,16.591 37.057,37.057 v 0 h -87.193"
             id="path1002" />
          <path
             style="fill:#fed2a4"
             d="m 197.145,245.646 h -31.009 c 20.466,0 37.057,16.591 37.057,37.057 h 31.009 c 0,-20.466 -16.591,-37.057 -37.057,-37.057 z"
             id="path1004" />
          <path
             style="fill:#fae2c0"
             d="m 287,245.646 h 35.136 c 20.466,0 37.057,16.591 37.057,37.057 v 0 H 287"
             id="path1006" />
          <path
             style="fill:#fed2a4"
             d="m 322.136,245.646 h -31.193 c 20.466,0 37.057,16.591 37.057,37.057 h 31.193 c 0,-20.466 -16.591,-37.057 -37.057,-37.057 z"
             id="path1008" />
          <path
             style="fill:none;stroke:#000000;stroke-width:15;stroke-linecap:round;stroke-linejoin:round;stroke-miterlimit:10"
             d="m 147.009,245.646 h 50.136 c 20.466,0 37.057,16.591 37.057,37.057 v 0 h -87.193"
             id="path1010" />
          <path
             style="fill:none;stroke:#000000;stroke-width:15;stroke-linecap:round;stroke-linejoin:round;stroke-miterlimit:10"
             d="m 287,245.646 h 35.136 c 20.466,0 37.057,16.591 37.057,37.057 v 0 H 287"
             id="path1012" />
          <path
             style="fill:#fdb4ba"
             d="m 324.161,145.552 c -5.261,-4.859 -10.937,-7.534 -16.578,-8.487 -9.668,11.366 -12.367,28.529 0.706,42.683 0.451,0.488 0.914,0.969 1.388,1.444 8.044,8.044 18.164,12.745 28.635,14.106 4.62,-16.661 0.391,-35.26 -12.707,-48.358 -0.474,-0.475 -0.955,-0.937 -1.444,-1.388 z"
             id="path1014" />
          <path
             style="fill:none;stroke:#000000;stroke-width:15;stroke-linecap:round;stroke-linejoin:round;stroke-miterlimit:10"
             d="m 324.161,145.552 c -5.261,-4.859 -10.937,-7.534 -16.578,-8.487 -9.668,11.366 -12.367,28.529 0.706,42.683 0.451,0.488 0.914,0.969 1.388,1.444 8.044,8.044 18.164,12.745 28.635,14.106 4.62,-16.661 0.391,-35.26 -12.707,-48.358 -0.474,-0.475 -0.955,-0.937 -1.444,-1.388 z"
             id="path1016" />
          <line
             style="fill:none;stroke:#000000;stroke-width:15;stroke-linecap:round;stroke-linejoin:round;stroke-miterlimit:10"
             x1="410.76801"
             y1="228.207"
             x2="410.76801"
             y2="236.927"
             id="line1018" />
          <line
             style="fill:none;stroke:#000000;stroke-width:15;stroke-linecap:round;stroke-linejoin:round;stroke-miterlimit:10"
             x1="446.73499"
             y1="228.207"
             x2="446.73499"
             y2="236.927"
             id="line1020" />
          <path
             style="fill:#918291"
             d="m 490.876,282.703 h -20.14 c -7.493,0 -13.624,-6.131 -13.624,-13.624 v 0 c 0,-7.493 6.131,-13.624 13.624,-13.624 h 20.14 c 7.493,0 13.624,6.131 13.624,13.624 v 0 c 0,7.493 -6.131,13.624 -13.624,13.624 z"
             id="path1022" />
          <path
             style="fill:#7a6d79"
             d="m 490.876,255.455 h -20.14 c -0.061,0 -0.12,0.008 -0.18,0.009 7.41,0.098 13.444,6.182 13.444,13.615 0,7.433 -6.034,13.516 -13.444,13.615 0.061,10e-4 0.119,0.009 0.18,0.009 h 20.14 c 7.493,0 13.624,-6.131 13.624,-13.624 0,-7.493 -6.131,-13.624 -13.624,-13.624 z"
             id="path1024" />
          <path
             style="fill:none;stroke:#000000;stroke-width:15;stroke-linecap:round;stroke-linejoin:round;stroke-miterlimit:10"
             d="m 490.876,282.703 h -20.14 c -7.493,0 -13.624,-6.131 -13.624,-13.624 v 0 c 0,-7.493 6.131,-13.624 13.624,-13.624 h 20.14 c 7.493,0 13.624,6.131 13.624,13.624 v 0 c 0,7.493 -6.131,13.624 -13.624,13.624 z"
             id="path1026" />
        </g>
      </g>
    </g>
  </g>
  <g
     inkscape:groupmode="layer"
     id="layer3"
     inkscape:label="title">
    <g
       aria-label="Squeak"
       id="text1353"
       style="font-style:normal;font-weight:normal;font-size:25.4px;line-height:1.25;font-family:sans-serif;fill:#000000;fill-opacity:1;stroke:none;stroke-width:2.065;stroke-linecap:butt;stroke-linejoin:miter;stroke-miterlimit:4;stroke-dasharray:none;paint-order:stroke markers fill"
       transform="matrix(1.1172711,0,0,1.5606848,-37.723105,-142.03164)"
       inkscape:path-effect="#path-effect1539">
      <path
         d="m 70.922453,155.03026 c -1.366328,0.43751 -2.744674,0.65466 -4.156142,0.65361 -1.400173,-0.025 -2.573416,-0.25141 -3.523577,-0.69858 0.06332,-0.59932 0.129904,-1.19897 0.199748,-1.79895 0.894111,0.39248 1.964657,0.61277 3.215479,0.6752 1.262191,0.0384 2.496704,-0.13759 3.720864,-0.52955 1.171388,-0.37506 2.079073,-0.8075 2.728636,-1.31562 0.661357,-0.53093 1.094452,-1.09591 1.295041,-1.70229 0.218597,-0.61113 0.244886,-1.22563 0.07205,-1.84352 -0.208429,-0.74514 -0.597222,-1.28311 -1.173253,-1.60994 -0.556894,-0.33182 -1.228864,-0.52124 -2.013897,-0.56313 -0.790171,-0.06 -1.647276,-0.055 -2.568544,0.0184 -0.21435,0.0171 -2.562227,0.20344 -2.776578,0.22053 -0.935798,0.0558 -1.832205,0.0274 -2.69262,-0.0876 -0.841755,-0.12158 -1.598228,-0.39777 -2.271274,-0.83331 -0.660149,-0.45972 -1.180644,-1.18242 -1.551446,-2.17177 -0.344445,-0.91904 -0.401381,-1.85581 -0.156857,-2.81055 0.257351,-0.97923 0.865999,-1.90465 1.833633,-2.7619 0.960288,-0.87406 2.339784,-1.61207 4.126413,-2.17794 1.184594,-0.37519 2.411202,-0.58031 3.669249,-0.61312 1.252702,-0.0509 2.375002,0.078 3.361276,0.37796 -0.105665,0.60531 -0.208566,1.21052 -0.308694,1.8156 -1.043623,-0.29935 -2.114249,-0.42617 -3.204571,-0.37882 -1.070319,0.0414 -2.075507,0.21199 -3.008472,0.50769 -1.250377,0.39631 -2.229791,0.89182 -2.932468,1.46909 -0.703258,0.57776 -1.156075,1.19697 -1.362088,1.85 -0.192947,0.62859 -0.171709,1.26277 0.05731,1.9024 0.260792,0.72838 0.690889,1.23586 1.283682,1.52672 0.612296,0.28443 1.318813,0.42769 2.121925,0.43452 0.822288,4.3e-4 1.698981,-0.0413 2.632604,-0.12216 0.933461,-0.0808 1.862005,-0.13156 2.784595,-0.15255 0.941521,-0.0267 1.826976,0.0508 2.652912,0.22927 0.83997,0.15498 1.559827,0.48682 2.158495,0.98994 0.618087,0.4986 1.05488,1.25126 1.320298,2.255 0.246052,0.93051 0.21648,1.86493 -0.07408,2.8032 -0.295682,0.92069 -0.892549,1.76798 -1.782303,2.55462 -0.878413,0.76443 -2.100387,1.38257 -3.677349,1.88753 z"
         style="font-style:normal;font-variant:normal;font-weight:normal;font-stretch:normal;font-size:25.4px;font-family:Montserrat;-inkscape-font-specification:Montserrat;fill:#b8ffb8;fill-opacity:1;stroke:#005c00;stroke-width:2.065;stroke-linecap:butt;stroke-linejoin:miter;stroke-miterlimit:4;stroke-dasharray:none;stroke-opacity:1;paint-order:stroke markers fill"
         id="path1355"
         inkscape:original-d="m 71.407945,155.16873 q -1.9812,0 -3.809999,-0.635 -1.8034,-0.6604 -2.794,-1.6764 l 0.7366,-1.4478 q 0.9398,0.9144 2.5146,1.5494 1.600199,0.6096 3.352799,0.6096 1.6764,0 2.7178,-0.4064 1.0668,-0.4318 1.5494,-1.143 0.508,-0.7112 0.508,-1.5748 0,-1.0414 -0.6096,-1.6764 -0.5842,-0.635 -1.5494,-0.9906 -0.9652,-0.381 -2.1336,-0.6604 -1.1684,-0.2794 -2.3368,-0.5842 -1.1684,-0.3302 -2.158999,-0.8636 -0.9652,-0.5334 -1.5748,-1.397 -0.5842,-0.889 -0.5842,-2.3114 0,-1.3208 0.6858,-2.413 0.7112,-1.1176 2.159,-1.778 1.447799,-0.6858 3.708399,-0.6858 1.4986,0 2.9718,0.4318 1.4732,0.4064 2.54,1.143 l -0.635,1.4986 q -1.143,-0.762 -2.4384,-1.1176 -1.27,-0.3556 -2.4638,-0.3556 -1.6002,0 -2.6416,0.4318 -1.041399,0.4318 -1.549399,1.1684 -0.4826,0.7112 -0.4826,1.6256 0,1.0414 0.5842,1.6764 0.609599,0.635 1.574799,0.9906 0.9906,0.3556 2.159,0.635 1.1684,0.2794 2.3114,0.6096 1.1684,0.3302 2.1336,0.8636 0.9906,0.508 1.5748,1.3716 0.6096,0.8636 0.6096,2.2606 0,1.2954 -0.7112,2.413 -0.7112,1.0922 -2.1844,1.778 -1.4478,0.6604 -3.7338,0.6604 z" />
      <path
         d="m 87.401478,150.80373 c -1.358888,0.2615 -2.639411,0.20098 -3.865236,-0.18736 -1.206706,-0.392 -2.253382,-1.059 -3.140785,-2.01154 -0.886639,-0.95172 -1.521245,-2.15703 -1.880703,-3.62274 -0.355211,-1.44839 -0.346586,-2.80069 0.04976,-4.06032 0.39162,-1.27688 1.103376,-2.35463 2.136613,-3.21944 1.048861,-0.88749 2.332822,-1.48423 3.832843,-1.77381 1.399986,-0.27027 2.697437,-0.20359 3.872809,0.19139 1.195538,0.39168 2.195621,1.1052 2.996212,2.12937 0.798692,1.0067 1.30425,2.31524 1.538717,3.92291 0.23422,1.60598 0.11705,3.01736 -0.328695,4.22964 -0.430379,1.19207 -1.099927,2.16644 -2.006187,2.93151 -0.891833,0.744 -1.955151,1.22981 -3.205345,1.47039 z m -0.200092,-1.77808 c 1.027241,-0.19675 1.902846,-0.59352 2.636964,-1.19888 0.74896,-0.62676 1.291617,-1.40322 1.625325,-2.33554 0.349338,-0.95338 0.443418,-1.99969 0.26832,-3.13779 -0.175178,-1.13862 -0.578563,-2.09841 -1.223468,-2.87592 -0.624931,-0.78011 -1.424145,-1.33935 -2.396555,-1.66974 -0.952549,-0.33376 -1.98936,-0.3967 -3.097343,-0.18396 -1.088194,0.20894 -2.018464,0.64915 -2.780129,1.31184 -0.761727,0.66275 -1.297739,1.47787 -1.608905,2.43802 -0.311381,0.96081 -0.330715,2.00128 -0.07195,3.12337 0.25863,1.12153 0.733221,2.05833 1.410127,2.81454 0.673147,0.73824 1.463789,1.25928 2.372548,1.56876 0.905395,0.2912 1.856181,0.33854 2.86507,0.1453 z m 6.472372,6.12452 -1.509172,-9.79717 c -0.05827,-1.00352 -0.114681,-2.00726 -0.169232,-3.0112 -0.21626,-0.96978 -0.433793,-1.93933 -0.652598,-2.90862 l -0.678808,-4.42311 c 0.683512,-0.10505 1.36765,-0.20575 2.052356,-0.3021 l 2.833942,20.16668 c -0.626237,0.0877 -1.251755,0.17958 -1.876488,0.27552 z"
         style="font-style:normal;font-variant:normal;font-weight:normal;font-stretch:normal;font-size:25.4px;font-family:Montserrat;-inkscape-font-specification:Montserrat;fill:#b8ffb8;fill-opacity:1;stroke:#005c00;stroke-width:2.065;stroke-linecap:butt;stroke-linejoin:miter;stroke-miterlimit:4;stroke-dasharray:none;stroke-opacity:1;paint-order:stroke markers fill"
         id="path1357"
         inkscape:original-d="m 87.054339,155.14333 q -1.905,0 -3.429,-0.8636 -1.4986,-0.8636 -2.3622,-2.3876 -0.8636,-1.524 -0.8636,-3.556 0,-2.0066 0.8636,-3.5306 0.8636,-1.5494 2.3622,-2.3876 1.524,-0.8636 3.429,-0.8636 1.778,0 3.1496,0.7874 1.397,0.7874 2.2098,2.3114 0.8128,1.4986 0.8128,3.683 0,2.1844 -0.8382,3.7084 -0.8128,1.4986 -2.2098,2.3114 -1.3716,0.7874 -3.1242,0.7874 z m 0.127,-1.6002 q 1.4224,0 2.54,-0.635 1.143,-0.6604 1.778,-1.8288 0.6604,-1.1938 0.6604,-2.7432 0,-1.5494 -0.6604,-2.7178 -0.635,-1.1684 -1.778,-1.8288 -1.1176,-0.6604 -2.54,-0.6604 -1.397,0 -2.5146,0.6604 -1.1176,0.6604 -1.778,1.8288 -0.6604,1.1684 -0.6604,2.7178 0,1.5494 0.6604,2.7432 0.6604,1.1684 1.778,1.8288 1.1176,0.635 2.5146,0.635 z m 4.953,6.4008 v -8.89 l 0.254,-2.6924 -0.1778,-2.667 v -4.0132 h 1.7272 v 18.2626 z" />
      <path
         d="m 106.25312,148.41027 c -1.23689,0.0786 -2.33123,-0.0734 -3.29717,-0.46538 -0.96512,-0.39162 -1.75639,-1.02741 -2.37452,-1.91487 -0.598722,-0.88834 -0.979467,-2.03663 -1.126325,-3.44454 l -0.89634,-8.59311 c 0.717794,-0.0749 1.436029,-0.14514 2.154635,-0.21066 l 0.76374,8.3785 c 0.14393,1.57893 0.64542,2.73837 1.48208,3.48176 0.85599,0.72484 1.97474,1.03392 3.3753,0.9467 1.02749,-0.064 1.90316,-0.31649 2.63582,-0.76545 0.75004,-0.46834 1.31193,-1.11225 1.68384,-1.93714 0.39064,-0.82495 0.57449,-1.80385 0.54092,-2.93579 l -0.23085,-7.78496 c 0.72068,-0.0211 1.44143,-0.0376 2.16216,-0.0495 l 0.25039,14.86497 c -0.62959,0.0109 -1.25912,0.0257 -1.88853,0.0442 l -0.11868,-4.07654 c 0.11166,0.24228 0.22283,0.48468 0.33352,0.72719 -0.44315,1.10752 -1.14711,1.98824 -2.1064,2.65132 -0.94234,0.64404 -2.05146,1.00109 -3.34359,1.08324 z"
         style="font-style:normal;font-variant:normal;font-weight:normal;font-stretch:normal;font-size:25.4px;font-family:Montserrat;-inkscape-font-specification:Montserrat;fill:#b8ffb8;fill-opacity:1;stroke:#005c00;stroke-width:2.065;stroke-linecap:butt;stroke-linejoin:miter;stroke-miterlimit:4;stroke-dasharray:none;stroke-opacity:1;paint-order:stroke markers fill"
         id="path1359"
         inkscape:original-d="m 104.47873,155.14333 q -1.7018,0 -2.9718,-0.635 -1.27,-0.635 -1.981202,-1.905 -0.6858,-1.27 -0.6858,-3.175 v -7.747 h 1.803402 v 7.5438 q 0,2.1336 1.0414,3.2258 1.0668,1.0668 2.9718,1.0668 1.397,0 2.413,-0.5588 1.0414,-0.5842 1.5748,-1.6764 0.5588,-1.0922 0.5588,-2.6162 v -6.985 h 1.8034 v 13.335 h -1.7272 v -3.6576 l 0.2794,0.6604 q -0.635,1.4732 -1.9812,2.3114 -1.3208,0.8128 -3.0988,0.8128 z" />
      <path
         d="m 125.06063,148.39876 c -1.51096,-0.0939 -2.82356,-0.47564 -3.95675,-1.1601 -1.13258,-0.70337 -2.02354,-1.6219 -2.67002,-2.76757 -0.64575,-1.16377 -0.97336,-2.48001 -0.96008,-3.95292 0.0133,-1.4733 0.34636,-2.7748 1.01997,-3.90024 0.69339,-1.12499 1.63716,-1.99902 2.83369,-2.60786 1.21687,-0.6269 2.58246,-0.90533 4.0759,-0.82168 1.51345,0.0848 2.83532,0.50496 3.94077,1.24474 1.12822,0.72314 1.96141,1.701 2.5002,2.9194 0.54129,1.20076 0.71563,2.54435 0.5499,4.03229 -0.0105,0.0941 -0.0317,0.1966 -0.0636,0.30743 -0.0105,0.0941 -0.022,0.19769 -0.0345,0.31066 -4.4011,-0.48849 -8.83519,-0.75419 -13.25992,-0.8389 l 0.028,-1.50281 c 4.09477,0.0751 8.20137,0.3064 12.28716,0.72605 -0.29335,0.16986 -0.58558,0.3407 -0.87669,0.5125 0.10373,-1.07532 -0.0476,-2.05111 -0.46855,-2.92736 -0.39909,-0.89274 -1.00316,-1.61142 -1.81292,-2.14908 -0.80929,-0.53734 -1.77636,-0.84166 -2.88886,-0.90427 -1.09221,-0.0615 -2.08519,0.13203 -2.96766,0.57316 -0.88286,0.44132 -1.57247,1.08551 -2.07034,1.92475 -0.49815,0.83972 -0.75283,1.80853 -0.77626,2.90519 l -0.007,0.31196 c -0.0242,1.13411 0.20666,2.14191 0.67938,3.02503 0.49256,0.86526 1.17141,1.55869 2.03542,2.08749 0.88357,0.51067 1.88886,0.79757 3.02739,0.86847 0.89589,0.0558 1.73526,-0.0451 2.52664,-0.30517 0.80979,-0.25848 1.52655,-0.68918 2.15445,-1.29579 0.33546,0.46957 0.66689,0.94033 0.99417,1.41219 -0.73382,0.72415 -1.6043,1.24902 -2.61584,1.58163 -0.99357,0.33432 -2.06357,0.46298 -3.22442,0.39081 z"
         style="font-style:normal;font-variant:normal;font-weight:normal;font-stretch:normal;font-size:25.4px;font-family:Montserrat;-inkscape-font-specification:Montserrat;fill:#b8ffb8;fill-opacity:1;stroke:#005c00;stroke-width:2.065;stroke-linecap:butt;stroke-linejoin:miter;stroke-miterlimit:4;stroke-dasharray:none;stroke-opacity:1;paint-order:stroke markers fill"
         id="path1361"
         inkscape:original-d="m 121.6999,155.14333 q -2.0828,0 -3.6576,-0.8636 -1.5748,-0.889 -2.4638,-2.413 -0.889,-1.5494 -0.889,-3.5306 0,-1.9812 0.8382,-3.5052 0.8636,-1.524 2.3368,-2.3876 1.4986,-0.889 3.3528,-0.889 1.8796,0 3.3274,0.8636 1.4732,0.8382 2.3114,2.3876 0.8382,1.524 0.8382,3.5306 0,0.127 -0.0254,0.2794 0,0.127 0,0.2794 h -11.6078 v -1.3462 h 10.6426 l -0.7112,0.5334 q 0,-1.4478 -0.635,-2.5654 -0.6096,-1.143 -1.6764,-1.778 -1.0668,-0.635 -2.4638,-0.635 -1.3716,0 -2.4638,0.635 -1.0922,0.635 -1.7018,1.778 -0.6096,1.143 -0.6096,2.6162 v 0.2794 q 0,1.524 0.6604,2.6924 0.6858,1.143 1.8796,1.8034 1.2192,0.635 2.7686,0.635 1.2192,0 2.2606,-0.4318 1.0668,-0.4318 1.8288,-1.3208 l 1.016,1.1684 q -0.889,1.0668 -2.2352,1.6256 -1.3208,0.5588 -2.921,0.5588 z" />
      <path
         d="m 143.92307,150.84528 0.73135,-3.19959 c 0.0127,-0.18087 0.0252,-0.36176 0.0376,-0.54269 l 1.21878,-5.35222 c 0.28069,-1.23261 0.12969,-2.26398 -0.47909,-3.09393 -0.58704,-0.8229 -1.63021,-1.39426 -3.11496,-1.67432 -1.02273,-0.19291 -2.02657,-0.20491 -2.99989,-0.038 -0.97333,0.16696 -1.81678,0.4713 -2.52793,0.90474 -0.24761,-0.54218 -0.49911,-1.0838 -0.75444,-1.62481 0.89126,-0.5283 1.93557,-0.87542 3.12706,-1.02947 1.19432,-0.17272 2.42998,-0.14027 3.69115,0.10074 2.07649,0.39683 3.57067,1.22845 4.44962,2.42092 0.90755,1.18457 1.0988,2.71872 0.63037,4.60377 l -2.22284,8.94508 c -0.59336,-0.14556 -1.18901,-0.2856 -1.78681,-0.42026 z m -4.84162,-0.82387 c -1.05426,-0.18534 -1.9481,-0.50897 -2.69071,-0.9843 -0.72108,-0.49094 -1.25193,-1.07988 -1.58853,-1.77499 -0.33394,-0.71369 -0.45118,-1.49216 -0.34029,-2.33693 0.10105,-0.76977 0.37096,-1.44109 0.81814,-2.01127 0.46842,-0.58584 1.15483,-1.00758 2.06022,-1.2534 0.92592,-0.26116 2.12302,-0.27272 3.56756,-0.01 1.74353,0.3175 3.47845,0.6749 5.20213,1.0748 l -0.33852,1.4607 c -1.68092,-0.38899 -3.37356,-0.73713 -5.07538,-1.04696 -1.44512,-0.26309 -2.50152,-0.17003 -3.15002,0.24649 -0.63,0.41979 -0.99506,1.00751 -1.10595,1.75618 -0.1248,0.84257 0.10278,1.56343 0.66609,2.16702 0.56382,0.60415 1.4129,0.99809 2.55395,1.20271 1.08641,0.19482 2.06061,0.12714 2.94296,-0.21058 0.90305,-0.35196 1.64838,-0.95982 2.23345,-1.83275 0.0444,0.48389 0.0867,0.96757 0.12696,1.45102 -0.58388,0.87168 -1.38413,1.49301 -2.39522,1.87841 -0.99489,0.38975 -2.14731,0.459 -3.48684,0.22352 z"
         style="font-style:normal;font-variant:normal;font-weight:normal;font-stretch:normal;font-size:25.4px;font-family:Montserrat;-inkscape-font-specification:Montserrat;fill:#b8ffb8;fill-opacity:1;stroke:#005c00;stroke-width:2.065;stroke-linecap:butt;stroke-linejoin:miter;stroke-miterlimit:4;stroke-dasharray:none;stroke-opacity:1;paint-order:stroke markers fill"
         id="path1363"
         inkscape:original-d="m 139.35282,155.01633 v -2.9464 l -0.0762,-0.4826 v -4.9276 q 0,-1.7018 -0.9652,-2.6162 -0.9398,-0.9144 -2.8194,-0.9144 -1.2954,0 -2.4638,0.4318 -1.1684,0.4318 -1.9812,1.143 l -0.8128,-1.3462 q 1.016,-0.8636 2.4384,-1.3208 1.4224,-0.4826 2.9972,-0.4826 2.5908,0 3.9878,1.2954 1.4224,1.27 1.4224,3.8862 v 8.2804 z m -4.5974,0.127 q -1.4986,0 -2.6162,-0.4826 -1.0922,-0.508 -1.6764,-1.3716 -0.5842,-0.889 -0.5842,-2.032 0,-1.0414 0.4826,-1.8796 0.508,-0.8636 1.6256,-1.3716 1.143,-0.5334 3.048,-0.5334 h 4.5974 v 1.3462 h -4.5466 q -1.9304,0 -2.6924,0.6858 -0.7366,0.6858 -0.7366,1.7018 0,1.143 0.889,1.8288 0.889,0.6858 2.4892,0.6858 1.524,0 2.6162,-0.6858 1.1176,-0.7112 1.6256,-2.032 l 0.4064,1.2446 q -0.508,1.3208 -1.778,2.1082 -1.2446,0.7874 -3.1496,0.7874 z" />
      <path
         d="m 153.32609,149.4473 c 0.2846,-0.80746 0.56971,-1.61474 0.85531,-2.42185 3.84377,-1.68696 7.90208,-3.13137 12.20006,-4.27673 0.8353,0.37537 1.6666,0.76341 2.49361,1.1644 -3.11409,0.80661 -6.0995,1.77129 -8.96581,2.87342 -0.48157,0.15351 -0.96006,0.31095 -1.43552,0.47223 -1.75948,0.67912 -3.47461,1.41029 -5.14765,2.18853 z m -2.62242,3.19427 6.18901,-20.00848 c 0.74766,0.23332 1.49398,0.4747 2.2388,0.72429 l -6.62233,19.86131 c -0.5988,-0.19893 -1.20068,-0.39125 -1.80548,-0.57712 z m 10.08256,3.86161 c -0.66641,-3.15154 -1.55213,-6.30799 -2.6358,-9.45705 0.59893,-0.32761 1.20396,-0.64942 1.81521,-0.96521 1.25834,3.8079 2.23164,7.62474 2.8838,11.42957 -0.68178,-0.34699 -1.36962,-0.68267 -2.06321,-1.00731 z"
         style="font-style:normal;font-variant:normal;font-weight:normal;font-stretch:normal;font-size:25.4px;font-family:Montserrat;-inkscape-font-specification:Montserrat;fill:#b8ffb8;fill-opacity:1;stroke:#005c00;stroke-width:2.065;stroke-linecap:butt;stroke-linejoin:miter;stroke-miterlimit:4;stroke-dasharray:none;stroke-opacity:1;paint-order:stroke markers fill"
         id="path1365"
         inkscape:original-d="m 147.40458,151.56193 0.0508,-2.3114 8.30579,-7.5692 h 2.2098 l -5.8674,5.6134 -1.016,0.8636 z m -1.4224,3.4544 v -18.8468 h 1.8034 v 18.8468 z m 10.33779,0 -5.5626,-6.9342 1.1684,-1.397 6.604,8.3312 z" />
    </g>
  </g>
</svg>
