<svg height="512" viewBox="0 0 32 32" width="512" xmlns="http://www.w3.org/2000/svg"><g fill="rgb(220 38 38)"><path fill="hsl(0deg 85% 60%)" d="m6 2c-1.65685 0-3 1.34315-3 3v22c0 1.6569 1.34315 3 3 3h13c1.6569 0 3-1.3431 3-3v-3h-2v3c0 .5523-.4477 1-1 1h-13c-.55228 0-1-.4477-1-1v-22c0-.55228.44772-1 1-1h1.66667l.53333.4c.51929.38947 1.15089.6 1.8.6h5c.6491 0 1.2807-.21053 1.8-.6l.5333-.4h1.6667c.5523 0 1 .44772 1 1v3.11666c.6555-.15555 1.3445-.15555 2 0v-3.11666c0-1.65685-1.3431-3-3-3z"/><path fill="hsl(0deg 72% 53%)" clip-rule="evenodd" d="m23.7047 10.4905c-1.2078-1.98734-4.2016-1.98734-5.4094 0l-4.8552 7.9896c-1.2751 2.0984.4022 4.5199 2.7047 4.5199h9.7104c2.3025 0 3.9798-2.4215 2.7047-4.5199zm-1.706 3.5095c0-.5523-.4471-1-.9987-1-.5515 0-.9987.4477-.9987 1v2c0 .5523.4472 1 .9987 1 .5516 0 .9987-.4477.9987-1zm-.9987 6c.5516 0 .9987-.4477.9987-1s-.4471-1-.9987-1c-.5515 0-.9987.4477-.9987 1s.4472 1 .9987 1z" fill-rule="evenodd"/></g></svg>