<?xml version="1.0" encoding="UTF-8" standalone="no"?>
<!-- Created with Inkscape (http://www.inkscape.org/) -->

<svg
   version="1.1"
   id="svg297"
   xml:space="preserve"
   width="682.66669"
   height="682.66669"
   viewBox="0 0 682.66669 682.66669"
   xmlns="http://www.w3.org/2000/svg"
   xmlns:svg="http://www.w3.org/2000/svg"><defs
     id="defs301"><clipPath
       clipPathUnits="userSpaceOnUse"
       id="clipPath311"><path
         d="M 0,512 H 512 V 0 H 0 Z"
         id="path309" /></clipPath><clipPath
       clipPathUnits="userSpaceOnUse"
       id="clipPath343"><path
         d="M 0,512 H 512 V 0 H 0 Z"
         id="path341" /></clipPath></defs><g
     id="g303"
     transform="matrix(1.3333333,0,0,-1.3333333,0,682.66667)"><g
       id="g305"><g
         id="g307"
         clip-path="url(#clipPath311)"><g
           id="g313"
           transform="translate(63.2002,336.3335)"><path
             d="M 0,0 H -16.067"
             style="fill:none;stroke:hsl(120deg 100% 86%);stroke-width:30;stroke-linecap:round;stroke-linejoin:round;stroke-miterlimit:10;stroke-dasharray:none;stroke-opacity:1"
             id="path315" /></g><g
           id="g317"
           transform="translate(448.7998,175.6665)"><path
             d="M 0,0 H 16.067"
             style="fill:none;stroke:hsl(120deg 100% 86%);stroke-width:30;stroke-linecap:round;stroke-linejoin:round;stroke-miterlimit:10;stroke-dasharray:none;stroke-opacity:1"
             id="path319" /></g><g
           id="g321"
           transform="translate(175.6665,448.7998)"><path
             d="M 0,0 V 16.067"
             style="fill:none;stroke:hsl(120deg 100% 86%);stroke-width:30;stroke-linecap:round;stroke-linejoin:round;stroke-miterlimit:10;stroke-dasharray:none;stroke-opacity:1"
             id="path323" /></g><g
           id="g325"
           transform="translate(336.3335,63.2002)"><path
             d="M 0,0 V -16.067"
             style="fill:none;stroke:hsl(120deg 100% 86%);stroke-width:30;stroke-linecap:round;stroke-linejoin:round;stroke-miterlimit:10;stroke-dasharray:none;stroke-opacity:1"
             id="path327" /></g></g></g><g
       id="g329"
       transform="translate(96.1362,415.8594)"><path
         d="M 0,0 -11.327,11.361"
         style="fill:none;stroke:hsl(120deg 100% 86%);stroke-width:30;stroke-linecap:round;stroke-linejoin:round;stroke-miterlimit:10;stroke-dasharray:none;stroke-opacity:1"
         id="path331" /></g><g
       id="g333"
       transform="translate(415.8638,96.1406)"><path
         d="M 0,0 11.327,-11.361"
         style="fill:none;stroke:hsl(120deg 100% 86%);stroke-width:30;stroke-linecap:round;stroke-linejoin:round;stroke-miterlimit:10;stroke-dasharray:none;stroke-opacity:1"
         id="path335" /></g><g
       id="g337"><g
         id="g339"
         clip-path="url(#clipPath343)"><g
           id="g345"
           transform="translate(221.939,267.3608)"><path
             d="m 0,0 c 6.025,6.026 9.399,14.2 9.399,22.722 0,8.522 -3.374,16.695 -9.399,22.722 -6.025,6.025 -14.219,9.411 -22.734,9.411 -8.516,0 -16.71,-3.386 -22.735,-9.411 C -65.311,25.617 -90.938,0 -90.938,0 l 45.469,-45.443 c 0,0 25.627,25.617 45.469,45.443 z"
             style="fill:none;stroke:hsl(120deg 100% 86%);stroke-width:30;stroke-linecap:round;stroke-linejoin:round;stroke-miterlimit:10;stroke-dasharray:none;stroke-opacity:1"
             id="path347" /></g><g
           id="g349"
           transform="translate(312.7954,176.4741)"><path
             d="m 0,0 c 6.025,6.026 9.399,14.2 9.399,22.722 0,8.522 -3.374,16.695 -9.399,22.722 -6.025,6.025 -14.218,9.411 -22.734,9.411 -8.515,0 -16.709,-3.386 -22.734,-9.411 C -65.231,25.617 -90.856,0 -90.856,0 l 45.388,-45.443 c 0,0 25.626,25.617 45.468,45.443 z"
             style="fill:none;stroke:hsl(120deg 100% 86%);stroke-width:30;stroke-linecap:round;stroke-linejoin:round;stroke-miterlimit:10;stroke-dasharray:none;stroke-opacity:1"
             id="path351" /></g><g
           id="g353"
           transform="translate(278.7339,119.6704)"><path
             d="m 0,0 -159.059,159.052 c 0,0 -15.746,-15.72 -34.062,-34.083 -31.41,-31.372 -31.41,-82.237 0,-113.608 14.782,-14.768 30.687,-30.676 45.388,-45.444 31.411,-31.372 82.262,-31.372 113.672,0 C -15.745,-15.719 0,0 0,0 Z"
             style="fill:none;stroke:hsl(120deg 100% 86%);stroke-width:30;stroke-linecap:round;stroke-linejoin:round;stroke-miterlimit:10;stroke-dasharray:none;stroke-opacity:1"
             id="path355" /></g><g
           id="g357"
           transform="translate(392.3252,233.2783)"><path
             d="m 0,0 -159.059,159.052 c 0,0 15.745,15.719 34.061,34.082 31.41,31.373 82.261,31.373 113.672,0 14.701,-14.766 30.606,-30.676 45.388,-45.443 31.41,-31.372 31.41,-82.236 0,-113.608 C 15.746,15.719 0,0 0,0 Z"
             style="fill:none;stroke:hsl(120deg 100% 86%);stroke-width:30;stroke-linecap:round;stroke-linejoin:round;stroke-miterlimit:10;stroke-dasharray:none;stroke-opacity:1"
             id="path359" /></g><g
           id="g361"
           transform="translate(131.001,85.5874)"><path
             d="m 0,0 -45.388,45.444 -70.613,-70.588 45.469,-45.443 z"
             style="fill:none;stroke:hsl(120deg 100% 86%);stroke-width:30;stroke-linecap:round;stroke-linejoin:round;stroke-miterlimit:10;stroke-dasharray:none;stroke-opacity:1"
             id="path363" /></g><g
           id="g365"
           transform="translate(497,451.5571)"><path
             d="m 0,0 -45.469,45.443 -70.532,-70.588 45.388,-45.442 z"
             style="fill:none;stroke:hsl(120deg 100% 86%);stroke-width:30;stroke-linecap:round;stroke-linejoin:round;stroke-miterlimit:10;stroke-dasharray:none;stroke-opacity:1"
             id="path367" /></g></g></g></g></svg>
